<svg width="14" height="20" viewBox="0 0 14 20" fill="none" xmlns="http://www.w3.org/2000/svg">
<path d="M7.06809 13.3303H6.94126C4.75527 13.3303 2.97656 11.6464 2.97656 9.57686V3.81351C2.97634 1.71102 4.78365 0 7.00447 0C9.22552 0 11.0326 1.71102 11.0326 3.81351V9.57686C11.0328 11.6464 9.25402 13.3303 7.06809 13.3303ZM7.00445 1.90717C5.89427 1.90717 4.99116 2.76216 4.99116 3.81319V9.57654C4.99116 10.5946 5.86589 11.4225 6.94101 11.4225H7.06783C8.14319 11.4225 9.01769 10.5944 9.01769 9.57654V3.81319C9.01791 2.76216 8.11486 1.90717 7.00445 1.90717Z" fill="#0058E9"/>
<path d="M12.0723 19.0463C12.0723 19.5708 11.619 20 11.0649 20H2.94506C2.39098 20 1.93764 19.5708 1.93764 19.0463C1.93764 18.5217 2.39098 18.0925 2.94506 18.0925H5.99767V16.1946C2.99566 15.7846 0.517342 13.5337 0.0135725 10.6438C-0.0770495 10.1193 0.295559 9.6328 0.849619 9.54701C1.39358 9.46122 1.91755 9.82356 2.00816 10.3385C2.39088 12.6371 4.54698 14.3634 7.00503 14.3634C9.45295 14.3634 11.5989 12.6371 12.0019 10.3385C12.0824 9.82354 12.6064 9.46096 13.1503 9.55633C13.7044 9.64213 14.0773 10.1286 13.9864 10.6436C13.4826 13.5333 11.0043 15.7842 8.01263 16.1944V18.0923H11.065C11.6191 18.0925 12.0724 18.5217 12.0724 19.0462L12.0723 19.0463Z" fill="#0058E9"/>
</svg>
