<svg width="24" height="25" viewBox="0 0 24 25" fill="none" xmlns="http://www.w3.org/2000/svg">
<g id="Hide">
<path id="Vector 48" d="M5.67969 3.5L21.6797 19.5" stroke="#202227" stroke-width="2" stroke-linecap="round"/>
<path id="Subtract" fill-rule="evenodd" clip-rule="evenodd" d="M14.0546 5.29046C14.2347 4.76835 14.8039 4.49106 15.326 4.67112C18.4478 5.74771 21.0835 8.15289 22.8918 11.3025C23.3668 12.1299 23.4799 13.1015 23.2316 13.9975C23.084 14.5297 22.5329 14.8416 22.0007 14.694C21.4685 14.5465 21.1567 13.9954 21.3042 13.4632C21.4117 13.0757 21.3626 12.6559 21.1573 12.2984C19.5394 9.48037 17.2514 7.45069 14.674 6.56185C14.1519 6.38179 13.8746 5.81257 14.0546 5.29046ZM8.7503 5.44125C8.95814 5.95293 8.71183 6.53622 8.20014 6.74406C5.82167 7.71018 3.71737 9.65939 2.2022 12.2984C1.9326 12.768 1.9326 13.345 2.2022 13.8146C4.42466 17.6855 7.89339 20.0565 11.6798 20.0565C14.367 20.0565 16.8801 18.869 18.9146 16.7991C19.3017 16.4052 19.9349 16.3998 20.3288 16.7869C20.7226 17.174 20.7281 17.8072 20.341 18.2011C17.9956 20.5872 14.9897 22.0565 11.6798 22.0565C6.99415 22.0565 2.94527 19.1256 0.467746 14.8104C-0.155911 13.7242 -0.155916 12.3889 0.467735 11.3026C2.16221 8.35128 4.58162 6.05518 7.44748 4.89109C7.95917 4.68325 8.54246 4.92956 8.7503 5.44125Z" fill="#202227"/>
<path id="Ellipse 48" d="M14.5892 12.3251C14.748 12.957 14.6968 13.6233 14.4434 14.2235C14.1899 14.8236 13.748 15.325 13.1844 15.6517C12.6208 15.9785 11.9662 16.1129 11.3194 16.0347C10.6726 15.9564 10.0689 15.6698 9.59949 15.2181C9.13007 14.7663 8.82045 14.1741 8.71743 13.5308C8.61441 12.8875 8.7236 12.2282 9.02848 11.6524C9.33337 11.0767 9.81738 10.6159 10.4074 10.3396C10.9973 10.0633 11.6612 9.98653 12.2987 10.121" stroke="#202227" stroke-width="2"/>
</g>
</svg>
