<svg width="24" height="24" viewBox="0 0 24 24" fill="none" xmlns="http://www.w3.org/2000/svg">
<path d="M7.91617 1.35821C7.04655 0.488561 5.86706 0 4.6372 0C3.40734 0 2.22785 0.488561 1.35821 1.35821C0.488561 2.22785 0 3.40734 0 4.6372C0 5.86706 0.488561 7.04655 1.35821 7.91617L5.44371 12.0017L1.35821 16.0872C0.515525 16.9623 0.0499066 18.1331 0.0614751 19.3479C0.0730434 20.5627 0.560875 21.7245 1.42007 22.5833C2.27926 23.4422 3.44119 23.9296 4.65599 23.9407C5.87079 23.9518 7.04143 23.4857 7.91617 22.6428L12.0017 18.5572V5.44371L7.91617 1.35821Z" fill="#0058E9"/>
<path d="M16.0875 1.3581C16.9625 0.515418 18.1333 0.0497992 19.3482 0.0613677C20.5629 0.0729361 21.7247 0.560768 22.5836 1.41996C23.4424 2.27915 23.9298 3.44108 23.9409 4.65588C23.9521 5.87068 23.486 7.04132 22.643 7.91606L18.5575 12.0016L22.643 16.0871C23.5123 16.9564 24.0007 18.1354 24.0007 19.3649C24.0007 20.5943 23.5123 21.7733 22.643 22.6427C21.7736 23.512 20.5946 24.0003 19.3652 24.0003C18.1358 24.0003 16.9568 23.512 16.0875 22.6427L12.002 18.5571V5.44361L16.0875 1.3581Z" fill="#4D5156"/>
<path d="M12 11C11.6021 11 11.2207 11.1489 10.9392 11.4136C10.658 11.6782 10.5 12.0374 10.5 12.4119V15.5882C10.5 16.0926 10.7859 16.5586 11.25 16.8107C11.7141 17.0631 12.286 17.0631 12.75 16.8107C13.2141 16.5586 13.5 16.0926 13.5 15.5882V12.4119C13.5 12.0374 13.342 11.6782 13.0608 11.4136C12.7793 11.1489 12.3979 11 12 11H12Z" fill="white"/>
<path d="M13.5 8.49987C13.5 9.32828 12.8285 10 12 10C11.1715 10 10.5 9.32828 10.5 8.49987C10.5 7.67145 11.1715 7 12 7C12.8285 7 13.5 7.67145 13.5 8.49987Z" fill="white"/>
</svg>
