<svg width="181" height="48" viewBox="0 0 181 48" fill="none" xmlns="http://www.w3.org/2000/svg">
<path fill-rule="evenodd" clip-rule="evenodd" d="M44.5879 3.41119C40.0397 -1.13707 32.6655 -1.13706 28.1172 3.41119L23.9991 7.52929L19.8819 3.4121C15.3337 -1.13615 7.95951 -1.13615 3.41125 3.4121C-1.137 7.96036 -1.137 15.3345 3.41126 19.8828L7.52844 24L3.41119 28.1172C-1.13706 32.6655 -1.13706 40.0396 3.41119 44.5879C7.95945 49.1362 15.3336 49.1362 19.8819 44.5879L23.9991 40.4707L28.1173 44.5888C32.6655 49.1371 40.0397 49.1371 44.588 44.5888C49.1362 40.0406 49.1362 32.6664 44.588 28.1181L40.4698 24L44.5879 19.8819C49.1362 15.3336 49.1362 7.95944 44.5879 3.41119Z" fill="#0058E9"/>
<path d="M20.999 23.9997C20.999 22.3429 22.3421 20.9998 23.999 20.9998C25.6558 20.9998 26.9989 22.3429 26.9989 23.9997V32.3996C26.9989 34.0564 25.6558 35.3995 23.999 35.3995C22.3421 35.3995 20.999 34.0564 20.999 32.3996V23.9997Z" fill="white"/>
<path d="M26.9989 15.5995C26.9989 17.2563 25.6559 18.5998 23.999 18.5998C22.342 18.5998 20.999 17.2563 20.999 15.5995C20.999 13.9427 22.342 12.5999 23.999 12.5999C25.6559 12.5999 26.9989 13.9427 26.9989 15.5995Z" fill="white"/>
<path d="M112.01 18.2203C114.716 18.2203 117.31 19.3265 119.223 21.2956C121.136 23.2647 122.21 25.9354 122.21 28.7201C122.21 31.5049 121.136 34.1755 119.223 36.1446C117.31 38.1137 114.716 39.22 112.01 39.22L112.01 33.4451C113.228 33.4451 114.395 32.9473 115.256 32.0612C116.117 31.1751 116.6 29.9733 116.6 28.7201C116.6 27.467 116.117 26.2652 115.256 25.3791C114.395 24.493 113.228 23.9952 112.01 23.9952L112.01 18.2203Z" fill="#0058E9"/>
<path d="M110.211 18.2203C107.505 18.2203 104.911 19.3265 102.998 21.2956C101.085 23.2647 100.011 25.9354 100.011 28.7201C100.011 31.5049 101.085 34.1755 102.998 36.1446C104.911 38.1137 107.505 39.22 110.211 39.22L110.211 33.4451C108.993 33.4451 107.826 32.9473 106.965 32.0612C106.104 31.1751 105.621 29.9733 105.621 28.7201C105.621 27.467 106.104 26.2652 106.965 25.3791C107.826 24.493 108.993 23.9952 110.211 23.9952L110.211 18.2203Z" fill="#202227"/>
<path d="M57.5996 39.2216V12.342H69.2346C71.641 12.342 73.7145 12.7388 75.4553 13.5324C77.1961 14.3004 78.5401 15.414 79.4872 16.8732C80.4344 18.3323 80.908 20.0731 80.908 22.0955C80.908 24.0922 80.4344 25.8202 79.4872 27.2794C78.5401 28.7386 77.1961 29.865 75.4553 30.6585C73.7145 31.4265 71.641 31.8105 69.2346 31.8105H61.0556L63.8203 29.0074V39.2216H57.5996ZM63.8203 29.6986L61.0556 26.7418H68.889C70.809 26.7418 72.2426 26.3322 73.1897 25.513C74.1369 24.6938 74.6105 23.5547 74.6105 22.0955C74.6105 20.6107 74.1369 19.4587 73.1897 18.6395C72.2426 17.8204 70.809 17.4108 68.889 17.4108H61.0556L63.8203 14.454V29.6986Z" fill="#202227"/>
<path d="M84.7773 39.2214V18.5626H90.4988V24.3993L89.6925 22.7097C90.3069 21.2505 91.2924 20.1497 92.6492 19.4074C94.006 18.6394 95.6572 18.2554 97.6027 18.2554V23.7849C97.3467 23.7593 97.1163 23.7465 96.9115 23.7465C96.7067 23.7209 96.4892 23.7081 96.2588 23.7081C94.6204 23.7081 93.2892 24.1817 92.2652 25.1289C91.2668 26.0504 90.7676 27.4968 90.7676 29.468V39.2214H84.7773Z" fill="#202227"/>
<path d="M153.93 34.9957L154.084 27.6998L163.722 18.5608H170.864L161.61 27.9686L158.5 30.503L153.93 34.9957ZM148.977 39.2196V10.7273H154.967V39.2196H148.977ZM164.375 39.2196L157.386 30.5414L161.149 25.895L171.632 39.2196H164.375Z" fill="#202227"/>
<path d="M126.177 39.2196V10.7273H132.167V39.2196H126.177Z" fill="#202227"/>
<path d="M137.574 39.2203V18.5614H143.565V39.2203H137.574ZM140.569 15.6815C139.469 15.6815 138.573 15.3615 137.882 14.7215C137.19 14.0815 136.845 13.2879 136.845 12.3407C136.845 11.3936 137.19 10.6 137.882 9.95999C138.573 9.32 139.469 9 140.569 9C141.67 9 142.566 9.3072 143.257 9.92159C143.949 10.5104 144.294 11.2784 144.294 12.2255C144.294 13.2239 143.949 14.0559 143.257 14.7215C142.592 15.3615 141.696 15.6815 140.569 15.6815Z" fill="#202227"/>
<path d="M174.174 39.2203V18.5614H180.164V39.2203H174.174ZM177.169 15.6815C176.068 15.6815 175.172 15.3615 174.481 14.7215C173.79 14.0815 173.444 13.2879 173.444 12.3407C173.444 11.3936 173.79 10.6 174.481 9.95999C175.172 9.32 176.068 9 177.169 9C178.27 9 179.166 9.3072 179.857 9.92159C180.548 10.5104 180.894 11.2784 180.894 12.2255C180.894 13.2239 180.548 14.0559 179.857 14.7215C179.191 15.3615 178.295 15.6815 177.169 15.6815Z" fill="#202227"/>
</svg>
