<svg width="409" height="406" viewBox="0 0 409 406" fill="none" xmlns="http://www.w3.org/2000/svg">
<path d="M181.535 391.694H26.8696V176.447C26.8696 165.14 36.0349 155.975 47.3412 155.975H179.162C190.468 155.975 199.634 165.14 199.634 176.447V373.594C199.634 383.589 191.531 391.694 181.535 391.694Z" fill="#7D97F4"/>
<path d="M173.755 391.694H0.991211V161.991C0.991211 158.668 3.68426 155.977 7.00519 155.977H167.74C171.062 155.977 173.754 158.67 173.754 161.991V391.694H173.755Z" fill="#91B3FA"/>
<path d="M356.877 303.359C356.877 303.359 334.716 299.647 333.51 299.647H271.819C267.701 299.647 264.333 303.015 264.333 307.134V313.904C264.333 318.02 267.701 321.39 271.819 321.39H333.51C334.093 321.39 334.658 321.316 335.203 321.188C342.426 319.992 349.651 314.055 356.877 303.359Z" fill="url(#paint0_linear_813_13148)"/>
<path d="M356.638 304.271C440.721 104.465 284.953 104.292 304.353 293.377L356.638 304.271Z" fill="url(#paint1_linear_813_13148)"/>
<path d="M350.849 302.358C434.932 98.7381 274.655 104.185 294.056 296.879L350.849 302.358Z" fill="url(#paint2_linear_813_13148)"/>
<path d="M309.909 315.832H303.358V386.672H309.909V315.832Z" fill="url(#paint3_linear_813_13148)"/>
<path d="M335.321 388.038H277.947V384.199C277.947 383.964 278.137 383.774 278.372 383.774H334.864C335.117 383.774 335.322 383.979 335.322 384.232V388.038H335.321Z" fill="url(#paint4_linear_813_13148)"/>
<path d="M271.9 376.937C271.9 376.937 253.194 390.42 256.442 399.478C256.442 399.478 276.908 390.648 279.381 383.692C281.854 376.736 278.963 373.664 278.963 373.664L271.9 376.937Z" fill="url(#paint5_linear_813_13148)"/>
<path d="M274.712 365.638L277.771 374.481C278.232 375.815 277.771 377.334 276.577 378.089C275.979 378.467 275.163 378.816 274.047 379.069C272.471 379.426 270.845 378.699 270.087 377.272L266.429 370.383L274.712 365.638Z" fill="url(#paint6_linear_813_13148)"/>
<path d="M304.477 286.051C304.477 286.051 266.057 292.709 249.576 307.934C233.095 323.16 264.703 371.724 264.703 371.724C264.703 371.724 269.882 371.692 276.158 366.312C276.158 366.312 257.417 329.787 273.568 319.135C291.726 307.161 312.653 304.463 312.653 304.463L304.849 287.223L304.477 286.051Z" fill="url(#paint7_linear_813_13148)"/>
<path d="M259.693 394.469C263.807 392.564 275.456 384.412 277.418 384.052C279.382 383.692 282.787 386 282.787 386C282.787 386 283.615 387.489 282.729 390.088C279.994 393.396 273.925 399.703 265.764 402.052C259.762 403.781 255.563 402.17 252.947 400.283C254.388 398.093 256.953 395.738 259.693 394.469Z" fill="url(#paint8_linear_813_13148)"/>
<path d="M265.765 402.052C273.926 399.703 279.995 393.396 282.73 390.089C282.131 391.844 280.751 394.106 277.801 396.757C270.485 403.334 256.511 405.704 253.535 405.247C251.152 404.881 251.376 402.68 252.949 400.283C255.563 402.17 259.762 403.781 265.765 402.052Z" fill="url(#paint9_linear_813_13148)"/>
<path d="M286.276 380.245C286.23 381.378 283.913 385.266 282.559 387.446C281.916 388.483 280.788 389.115 279.568 389.118C278.795 389.12 277.905 389.053 277.097 388.821C275.884 388.473 275.203 387.181 275.559 385.97L278.204 376.936L286.276 380.245Z" fill="url(#paint10_linear_813_13148)"/>
<path d="M341.459 274.518C341.459 274.518 349.992 297.333 341.459 304.271C332.926 311.209 312.572 319.02 308.024 332.84C303.477 346.659 295.761 373.517 285.434 383.028C285.434 383.028 278.179 382.326 275.463 379.435C275.463 379.435 281.345 339.342 285.224 329.053C288.583 320.144 293.532 307.284 303.017 300.098C305.733 298.04 305.259 294.781 304.001 291.615L301.708 285.851L341.459 274.518Z" fill="url(#paint11_linear_813_13148)"/>
<path d="M252.469 256.635C266.777 257.498 262.318 234.642 262.06 233.733L283.774 249.07C283.774 249.07 282.624 261.292 264.572 267.704C260.004 269.325 255.829 269.397 252.139 268.604C253.713 264.015 253.393 259.897 252.469 256.635Z" fill="url(#paint12_linear_813_13148)"/>
<path d="M224.807 249.756C230.138 246.048 236.177 249.756 236.177 249.756C243.306 254.417 248.579 256.4 252.47 256.635C253.392 259.897 253.712 264.015 252.139 268.605C244.154 266.888 238.441 261.109 235.957 258.144C235.063 257.076 233.481 256.891 232.388 257.754C231.278 258.631 230.199 259.831 230.396 261.095C230.781 263.585 227.89 264.378 227.673 263.475C227.456 262.572 228.662 257.216 228.662 257.216C228.662 257.216 222.88 263.03 220.623 265.264C218.366 267.498 215.527 265.264 215.527 265.264C215.527 265.264 219.475 253.465 224.807 249.756Z" fill="url(#paint13_linear_813_13148)"/>
<path d="M319.18 198.434C319.18 198.434 298.366 190.101 259.631 222.08C259.631 222.08 256.395 228.776 259.925 234.737C263.455 240.697 297.086 269.743 301.708 285.85C301.708 285.85 321.743 292.361 342.465 276.922C342.465 276.924 340.636 232.096 319.18 198.434Z" fill="url(#paint14_linear_813_13148)"/>
<path d="M278.034 190.998L288.28 203.419C289.298 204.652 289.521 206.368 288.817 207.804C287.395 210.705 284.02 214.927 276.536 214.344C274.31 214.17 272.339 212.827 271.366 210.816L264.202 196.006L278.034 190.998Z" fill="url(#paint15_linear_813_13148)"/>
<path d="M335.295 251.633C337.711 241.792 313.237 219.854 313.237 219.854L319.181 198.434C319.181 198.434 372.029 233.615 358.562 261.907C356.631 265.963 354.067 268.803 351.095 270.703C346.836 259.25 340.055 253.996 335.295 251.633Z" fill="url(#paint16_linear_813_13148)"/>
<path d="M335.312 250.2C335.572 250.2 335.807 250.025 335.872 249.76C338.344 239.699 314.648 218.318 313.639 217.414C313.403 217.201 313.037 217.22 312.822 217.458C312.61 217.696 312.629 218.062 312.867 218.275C313.11 218.492 337.057 240.093 334.751 249.485C334.675 249.794 334.864 250.108 335.175 250.184C335.219 250.194 335.265 250.2 335.312 250.2Z" fill="url(#paint17_linear_813_13148)"/>
<path d="M298.225 250.785C298.225 250.785 327.243 262.051 334.325 253.576C334.806 253.002 335.118 252.347 335.294 251.632C340.055 253.996 346.836 259.248 351.092 270.703C335.831 280.455 309.744 265.278 302.691 260.804C301.531 260.068 300.14 259.81 298.793 260.089C296.073 260.653 291.373 261.483 288.838 261.092C285.13 260.52 279.803 273.6 273.794 269.566C273.795 269.566 278.942 246.832 298.225 250.785Z" fill="url(#paint18_linear_813_13148)"/>
<path d="M255.738 172.752C255.636 173.151 258.14 200.305 258.14 200.305L273.614 198.545L275.063 172.456C275.063 172.458 257.464 166.067 255.738 172.752Z" fill="url(#paint19_linear_813_13148)"/>
<path d="M271.034 177.863L271.346 191.656C271.351 191.833 271.331 192.005 271.287 192.176C271.017 193.225 269.827 196.766 266.279 195.326C263.059 194.02 260.101 192.876 257.926 193.289C256.95 193.475 256.274 194.369 256.365 195.359C256.593 197.826 257.21 203.376 258.482 208.114C258.74 209.076 259.698 209.671 260.678 209.498C263.633 208.977 269.835 207.705 274.585 205.514C275.23 205.216 275.661 204.6 275.709 203.892C275.941 200.444 276.685 189.967 277.342 187.08C277.961 184.371 281.51 183.096 283.038 182.667C283.539 182.526 283.956 182.19 284.201 181.73C285.066 180.105 286.432 176.278 281.656 174.124C280.656 173.673 280.232 172.496 280.714 171.51C281.672 169.547 282.322 166.466 278.68 164.328C274.977 162.156 271.84 163.911 270.085 165.427C269.375 166.04 268.344 166.032 267.612 165.448C267.194 165.115 266.627 164.959 265.881 165.317C264.876 165.801 263.675 165.264 263.298 164.215C262.575 162.199 260.9 159.939 257.015 160.174C250.122 160.59 248.533 168.003 249.836 172.593C251.139 177.182 258.586 176.307 262.473 174.492C265.428 173.112 268.829 175.271 270.288 176.386C270.748 176.737 271.02 177.281 271.034 177.863Z" fill="url(#paint20_linear_813_13148)"/>
<path d="M277.405 192.105C277.405 192.105 275.478 184.011 278.544 182.417C281.611 180.824 285.735 182.279 284.183 187.818C282.255 194.709 277.405 192.105 277.405 192.105Z" fill="url(#paint21_linear_813_13148)"/>
<path d="M283.359 273.002C283.313 273.005 283.265 273.005 283.219 273.005L222.337 272.938C220.833 272.937 219.613 271.715 219.614 270.211C219.616 268.705 220.842 267.461 222.343 267.488L283.225 267.555C284.731 267.556 285.949 268.778 285.948 270.282C285.945 271.74 284.799 272.931 283.359 273.002Z" fill="url(#paint22_linear_813_13148)"/>
<path d="M167.606 217.725H218.31C222.05 217.725 225.454 219.884 227.049 223.265L250.489 272.969H187.479C185.069 272.969 182.903 271.496 182.017 269.254L163.84 223.261C162.79 220.604 164.749 217.725 167.606 217.725Z" fill="url(#paint23_linear_813_13148)"/>
<path d="M203.327 243.209C204.425 246.622 203.614 249.939 201.514 250.614C199.415 251.29 196.822 249.071 195.722 245.656C194.624 242.243 195.435 238.927 197.534 238.251C199.635 237.576 202.228 239.796 203.327 243.209Z" fill="#7D97F4"/>
<path d="M175.827 403.582C175.489 403.582 175.147 403.516 174.816 403.38C173.519 402.839 172.919 401.381 173.477 400.126L227.134 279.367C227.692 278.111 229.196 277.531 230.495 278.071C231.793 278.611 232.392 280.069 231.834 281.325L178.177 402.084C177.761 403.021 176.817 403.582 175.827 403.582Z" fill="url(#paint24_linear_813_13148)"/>
<path d="M236.273 403.582C235.282 403.582 234.337 403.021 233.922 402.084L180.265 281.325C179.707 280.068 180.306 278.611 181.604 278.071C182.901 277.531 184.407 278.111 184.965 279.367L238.622 400.126C239.18 401.383 238.58 402.839 237.283 403.38C236.953 403.516 236.61 403.582 236.273 403.582Z" fill="url(#paint25_linear_813_13148)"/>
<path d="M341.916 403.582C341.578 403.582 341.236 403.516 340.906 403.38C339.608 402.839 339.009 401.381 339.567 400.126L393.224 279.367C393.782 278.111 395.286 277.531 396.585 278.071C397.882 278.611 398.482 280.069 397.924 281.325L344.267 402.084C343.852 403.021 342.908 403.582 341.916 403.582Z" fill="url(#paint26_linear_813_13148)"/>
<path d="M402.362 403.582C401.371 403.582 400.426 403.021 400.011 402.084L346.354 281.325C345.796 280.068 346.396 278.611 347.693 278.071C348.991 277.531 350.496 278.111 351.054 279.367L404.711 400.126C405.269 401.383 404.67 402.839 403.372 403.38C403.044 403.516 402.7 403.582 402.362 403.582Z" fill="url(#paint27_linear_813_13148)"/>
<path d="M408.656 275.638C408.793 274.847 408.607 274.027 408.147 273.405C407.689 272.783 407.006 272.423 406.286 272.423H162.187C161.239 272.423 160.357 272.963 159.847 273.857C159.336 274.752 159.268 275.875 159.665 276.838L162.311 283.247C162.916 284.716 164.229 285.655 165.673 285.655H404.612C405.955 285.655 407.11 284.588 407.364 283.112L408.656 275.638Z" fill="#BDD0FB"/>
<path d="M18.3219 28.7069C18.3219 28.7069 1.88239 37.8142 0.52248 53.227C-0.837434 68.6399 0.409406 132.612 33.3747 148.358C66.3399 164.105 109.976 160.476 126.679 158.754C143.382 157.033 152.642 145.682 154.712 137.866C156.78 130.05 160.122 100.936 142.552 91.5442C124.981 82.1527 106.526 67.765 88.0852 53.7552C69.643 39.7439 38.0406 16.8739 18.3219 28.7069Z" fill="url(#paint28_linear_813_13148)"/>
<path d="M137.37 96.8574C137.37 96.8574 132.933 97.0925 132.388 106.221C132.388 106.221 142.677 115.444 156.575 117.639C157.618 117.804 155.117 110.516 154.74 109.53C152.951 104.832 147.314 101.808 137.37 96.8574Z" fill="url(#paint29_linear_813_13148)"/>
<path d="M87.3995 86.1239H96.7627C96.7627 86.1239 125.501 54.3846 144.349 51.1827C144.349 51.1827 157.469 67.9302 143.65 99.2246C142.538 101.742 139.429 102.861 137.109 101.379C136.416 100.936 135.917 100.342 135.615 99.598L136.727 72.8789C136.727 72.8789 112.213 94.3191 107.953 98.4568C103.692 102.593 82.0327 100.071 87.3995 86.1239Z" fill="url(#paint30_linear_813_13148)"/>
<path d="M177.922 152.76C173.998 149.321 167.746 145.463 158.721 144.358L155.669 146.225C155.669 146.225 157.615 149.095 161.171 152.129C164.438 154.027 169.485 156.597 173.668 157.155C177.734 157.695 178.335 155.238 177.922 152.76Z" fill="url(#paint31_linear_813_13148)"/>
<path d="M154.74 109.53C152.323 110.312 151.26 113.737 145.126 111.471C139.192 109.28 134.781 106.454 132.51 104.825C132.46 105.267 132.416 105.728 132.388 106.219C132.388 106.219 143.236 116.537 157.134 118.734C158.177 118.899 159.005 117.857 158.628 116.869C157.953 115.099 156.737 112.413 154.74 109.53Z" fill="#7D97F4"/>
<path d="M180.876 155.697C180.103 154.817 179.116 153.807 177.92 152.761C178.334 155.238 177.734 157.696 173.666 157.155C169.482 156.598 164.437 154.027 161.169 152.129C165.266 155.622 171.497 159.329 179.362 159.111C181.11 159.062 182.031 157.008 180.876 155.697Z" fill="#91B3FA"/>
<path d="M87.7417 92.8982L131.589 93.3728C131.589 93.3728 156.629 114.09 161.171 145.679C161.171 145.679 161.925 148.003 157.399 148.4C157.399 148.4 142.26 138.513 132.39 121.031C120.286 99.5966 96.3073 109.245 96.3073 109.245C88.4291 103.565 77.2953 102.409 68.9082 100.516L87.7417 92.8982Z" fill="url(#paint32_linear_813_13148)"/>
<path d="M88.7772 57.5776C88.7772 57.5776 93.4967 81.2333 116.626 90.592L124.852 89.6219L126.794 92.7167L107.496 93.3312C107.496 93.3312 91 86.7979 82.2618 68.9956C81.9716 68.4078 77.1599 58.4704 88.7772 57.5776Z" fill="url(#paint33_linear_813_13148)"/>
<path d="M91.3065 92.5114C91.3065 92.5114 85.9382 77.9198 84.7851 63.7434C84.7851 63.7434 88.7116 60.3689 91.1666 58.9123C91.9611 58.4406 92.2617 57.4437 91.8599 56.6105C90.0552 52.873 79.1431 38.1937 78.3248 37.9898C73.882 36.8814 55.6586 28.216 42.8257 45.7714C37.3176 53.306 43.9193 76.4974 68.9066 100.516L74.062 101.503L91.3065 92.5114Z" fill="url(#paint34_linear_813_13148)"/>
<path d="M70.6233 66.9408C70.6233 66.9408 85.5363 84.5988 104.603 87.1803C104.603 87.1803 109.531 82.6884 113.194 84.2923C116.859 85.8963 121.882 92.9756 121.882 92.9756H97.4005C97.4005 92.9756 74.2523 92.1602 62.6855 78.1236C63.617 73.2107 66.4037 70.2766 70.6233 66.9408Z" fill="url(#paint35_linear_813_13148)"/>
<path d="M61.9241 25.6047L58.6612 36.487C58.5124 36.9855 58.6969 37.5256 59.1254 37.8202C60.6966 38.8959 64.8017 41.0354 70.4347 38.9569C71.079 38.7188 71.5209 38.1177 71.5759 37.4333L72.3496 27.9526L61.9241 25.6047Z" fill="url(#paint36_linear_813_13148)"/>
<path d="M81.0296 16.7921C81.0296 16.7921 79.4257 28.0731 75.0915 31.5429C70.7573 35.0126 62.3151 32.3999 59.4629 23.8952L65.1451 9.35425L81.0296 16.7921Z" fill="url(#paint37_linear_813_13148)"/>
<path d="M64.5053 18.7635C64.8356 18.8692 65.1793 18.6579 65.2313 18.3157C65.3876 17.2742 65.7789 15.2135 66.5689 13.8089C66.5689 13.8089 66.1553 12.3285 70.3094 14.5648C74.4636 16.801 80.7037 20.0848 84.3758 18.1297C87.9571 16.2222 91.5845 6.62548 82.1202 8.40348C81.7601 8.47044 81.4283 8.18477 81.4566 7.81875C81.5726 6.24161 81.4164 2.61269 77.7414 1.44769C74.3029 0.357079 76.1493 2.12467 75.3727 3.06202C75.145 3.33728 75.6613 2.12318 70.7751 2.83438C69.0983 3.0784 66.9469 -1.37332 62.8299 0.441887C59.4376 1.9372 58.9109 4.02617 58.9659 5.32806C58.9838 5.75061 58.5553 6.03628 58.1729 5.85923C57.1343 5.38013 55.4635 5.13165 53.8625 7.1373C51.6501 9.90921 54.8118 12.3136 55.761 12.9445C55.9158 13.0471 56.0125 13.2182 56.014 13.4057C56.0229 14.8475 56.2476 21.1367 59.4004 24.6852C59.6727 24.9918 60.1785 24.9025 60.3362 24.5231L62.763 18.7397C62.876 18.4719 63.1751 18.3335 63.4518 18.4228L64.5053 18.7635Z" fill="url(#paint38_linear_813_13148)"/>
<path d="M64.5575 19.9375C64.5575 19.9375 63.0756 13.9012 60.8245 15.8607C58.5733 17.8202 61.4107 22.1351 63.9907 22.9564L64.5575 19.9375Z" fill="url(#paint39_linear_813_13148)"/>
<path d="M120.65 94.3444L131.643 57.6863C132.091 56.1909 133.419 55.1301 134.977 55.023L149.817 54.0082C151.326 53.9056 152.448 55.3786 151.946 56.8054L139.658 91.8136C139.262 92.9414 138.249 93.7389 137.06 93.8579L122.446 95.4811L120.65 94.3444Z" fill="#7D97F4"/>
<path d="M140.922 70.1115C140.101 71.7675 138.684 72.739 137.758 72.2793C136.831 71.8195 136.743 70.104 137.564 68.448C138.385 66.792 139.802 65.8204 140.729 66.2802C141.656 66.74 141.744 68.4555 140.922 70.1115Z" fill="#91B3FA"/>
<path d="M122.448 95.4811C122.424 95.4811 122.4 95.4812 122.376 95.4797L91.2366 93.9055C90.4674 93.8668 89.8737 93.2107 89.9124 92.4414C89.9511 91.6707 90.6102 91.0666 91.3765 91.1172L122.516 92.6914C123.285 92.7301 123.879 93.3862 123.839 94.1555C123.803 94.9024 123.186 95.4811 122.448 95.4811Z" fill="#7D97F4"/>
<path d="M84.7849 63.9903C84.6495 63.9903 84.5364 63.8787 84.5379 63.7418C84.5588 57.2368 82.0487 48.5997 82.0219 48.5135C81.9833 48.3825 82.0576 48.2456 82.1901 48.2069C82.3225 48.1698 82.4594 48.2427 82.4966 48.3751C82.5219 48.4629 85.0527 57.1669 85.0304 63.7448C85.0319 63.8802 84.9218 63.9903 84.7849 63.9903Z" fill="url(#paint40_linear_813_13148)"/>
<path d="M70.6237 67.1878C70.5508 67.1878 70.4779 67.155 70.4288 67.094C70.3604 67.0077 63.5489 58.3498 61.2085 52.4162C61.1579 52.2882 61.2204 52.1454 61.3469 52.0963C61.4748 52.0457 61.6177 52.1082 61.6668 52.2347C63.9819 58.1014 70.7472 66.7027 70.8172 66.7875C70.902 66.8947 70.8826 67.0509 70.7755 67.1342C70.7324 67.1699 70.6773 67.1878 70.6237 67.1878Z" fill="url(#paint41_linear_813_13148)"/>
<path d="M61.0403 80.4238L60.8573 80.345C51.0046 76.1269 44.9177 64.3623 44.8582 64.2447C44.7957 64.1227 44.8448 63.9739 44.9668 63.9129C45.0859 63.8519 45.2346 63.898 45.2986 64.0201C45.3581 64.1361 51.2888 75.5987 60.8692 79.8123L61.8839 78.378C61.9643 78.2649 62.119 78.2411 62.2291 78.3185C62.3407 78.3973 62.3675 78.5521 62.2886 78.6637L61.0403 80.4238Z" fill="url(#paint42_linear_813_13148)"/>
<defs>
<linearGradient id="paint0_linear_813_13148" x1="330.988" y1="267.485" x2="289.804" y2="341.831" gradientUnits="userSpaceOnUse">
<stop stop-color="#FF928E"/>
<stop offset="1" stop-color="#FE7062"/>
</linearGradient>
<linearGradient id="paint1_linear_813_13148" x1="213.199" y1="141.414" x2="341.313" y2="229.443" gradientUnits="userSpaceOnUse">
<stop stop-color="#E1473D"/>
<stop offset="1" stop-color="#E9605A"/>
</linearGradient>
<linearGradient id="paint2_linear_813_13148" x1="320.765" y1="309.065" x2="345.832" y2="157.147" gradientUnits="userSpaceOnUse">
<stop stop-color="#FF928E"/>
<stop offset="1" stop-color="#FE7062"/>
</linearGradient>
<linearGradient id="paint3_linear_813_13148" x1="301.519" y1="383.419" x2="315.678" y2="294.359" gradientUnits="userSpaceOnUse">
<stop stop-color="#FF928E"/>
<stop offset="1" stop-color="#FE7062"/>
</linearGradient>
<linearGradient id="paint4_linear_813_13148" x1="306.98" y1="383.922" x2="321.756" y2="290.976" gradientUnits="userSpaceOnUse">
<stop stop-color="#FF928E"/>
<stop offset="1" stop-color="#FE7062"/>
</linearGradient>
<linearGradient id="paint5_linear_813_13148" x1="255.957" y1="363.348" x2="267.52" y2="386.09" gradientUnits="userSpaceOnUse">
<stop stop-color="#09005D"/>
<stop offset="1" stop-color="#1A0F91"/>
</linearGradient>
<linearGradient id="paint6_linear_813_13148" x1="277.946" y1="372.398" x2="266.426" y2="372.398" gradientUnits="userSpaceOnUse">
<stop stop-color="#FEBBBA"/>
<stop offset="1" stop-color="#FF928E"/>
</linearGradient>
<linearGradient id="paint7_linear_813_13148" x1="293.887" y1="341.918" x2="244.934" y2="273.307" gradientUnits="userSpaceOnUse">
<stop stop-color="#09005D"/>
<stop offset="1" stop-color="#1A0F91"/>
</linearGradient>
<linearGradient id="paint8_linear_813_13148" x1="262.668" y1="386.342" x2="302.755" y2="438.764" gradientUnits="userSpaceOnUse">
<stop stop-color="#09005D"/>
<stop offset="1" stop-color="#1A0F91"/>
</linearGradient>
<linearGradient id="paint9_linear_813_13148" x1="282.73" y1="397.695" x2="251.754" y2="397.695" gradientUnits="userSpaceOnUse">
<stop stop-color="#4042E2"/>
<stop offset="1" stop-color="#4F52FF"/>
</linearGradient>
<linearGradient id="paint10_linear_813_13148" x1="286.276" y1="383.029" x2="275.465" y2="383.029" gradientUnits="userSpaceOnUse">
<stop stop-color="#FEBBBA"/>
<stop offset="1" stop-color="#FF928E"/>
</linearGradient>
<linearGradient id="paint11_linear_813_13148" x1="311.532" y1="376.108" x2="308.833" y2="284.369" gradientUnits="userSpaceOnUse">
<stop stop-color="#09005D"/>
<stop offset="1" stop-color="#1A0F91"/>
</linearGradient>
<linearGradient id="paint12_linear_813_13148" x1="244.571" y1="281.071" x2="189.54" y2="355.008" gradientUnits="userSpaceOnUse">
<stop stop-color="#4042E2"/>
<stop offset="1" stop-color="#4F52FF"/>
</linearGradient>
<linearGradient id="paint13_linear_813_13148" x1="253.241" y1="258.356" x2="215.527" y2="258.356" gradientUnits="userSpaceOnUse">
<stop stop-color="#FEBBBA"/>
<stop offset="1" stop-color="#FF928E"/>
</linearGradient>
<linearGradient id="paint14_linear_813_13148" x1="270.635" y1="213.191" x2="355.436" y2="274.864" gradientUnits="userSpaceOnUse">
<stop stop-color="#4042E2"/>
<stop offset="1" stop-color="#4F52FF"/>
</linearGradient>
<linearGradient id="paint15_linear_813_13148" x1="289.225" y1="202.698" x2="264.203" y2="202.698" gradientUnits="userSpaceOnUse">
<stop stop-color="#FEBBBA"/>
<stop offset="1" stop-color="#FF928E"/>
</linearGradient>
<linearGradient id="paint16_linear_813_13148" x1="282.796" y1="196.469" x2="367.597" y2="258.142" gradientUnits="userSpaceOnUse">
<stop stop-color="#4042E2"/>
<stop offset="1" stop-color="#4F52FF"/>
</linearGradient>
<linearGradient id="paint17_linear_813_13148" x1="359.316" y1="143.811" x2="339.06" y2="195.803" gradientUnits="userSpaceOnUse">
<stop stop-color="#09005D"/>
<stop offset="1" stop-color="#1A0F91"/>
</linearGradient>
<linearGradient id="paint18_linear_813_13148" x1="306.289" y1="258.81" x2="402.089" y2="425.282" gradientUnits="userSpaceOnUse">
<stop stop-color="#FEBBBA"/>
<stop offset="1" stop-color="#FF928E"/>
</linearGradient>
<linearGradient id="paint19_linear_813_13148" x1="261.637" y1="174.462" x2="281.585" y2="222.35" gradientUnits="userSpaceOnUse">
<stop stop-color="#FEBBBA"/>
<stop offset="1" stop-color="#FF928E"/>
</linearGradient>
<linearGradient id="paint20_linear_813_13148" x1="282.276" y1="190.098" x2="246.094" y2="180.761" gradientUnits="userSpaceOnUse">
<stop stop-color="#09005D"/>
<stop offset="1" stop-color="#1A0F91"/>
</linearGradient>
<linearGradient id="paint21_linear_813_13148" x1="297.809" y1="217.644" x2="279.948" y2="186.449" gradientUnits="userSpaceOnUse">
<stop stop-color="#FEBBBA"/>
<stop offset="1" stop-color="#FF928E"/>
</linearGradient>
<linearGradient id="paint22_linear_813_13148" x1="293.688" y1="256.825" x2="245.358" y2="272.677" gradientUnits="userSpaceOnUse">
<stop stop-color="#09005D"/>
<stop offset="1" stop-color="#1A0F91"/>
</linearGradient>
<linearGradient id="paint23_linear_813_13148" x1="227.297" y1="225.137" x2="192.492" y2="261.924" gradientUnits="userSpaceOnUse">
<stop stop-color="#09005D"/>
<stop offset="1" stop-color="#1A0F91"/>
</linearGradient>
<linearGradient id="paint24_linear_813_13148" x1="173.269" y1="340.726" x2="232.043" y2="340.726" gradientUnits="userSpaceOnUse">
<stop stop-color="#4042E2"/>
<stop offset="1" stop-color="#4F52FF"/>
</linearGradient>
<linearGradient id="paint25_linear_813_13148" x1="180.056" y1="340.725" x2="238.831" y2="340.725" gradientUnits="userSpaceOnUse">
<stop stop-color="#4042E2"/>
<stop offset="1" stop-color="#4F52FF"/>
</linearGradient>
<linearGradient id="paint26_linear_813_13148" x1="339.359" y1="340.726" x2="398.133" y2="340.726" gradientUnits="userSpaceOnUse">
<stop stop-color="#4042E2"/>
<stop offset="1" stop-color="#4F52FF"/>
</linearGradient>
<linearGradient id="paint27_linear_813_13148" x1="346.146" y1="340.725" x2="404.92" y2="340.725" gradientUnits="userSpaceOnUse">
<stop stop-color="#4042E2"/>
<stop offset="1" stop-color="#4F52FF"/>
</linearGradient>
<linearGradient id="paint28_linear_813_13148" x1="103.203" y1="46.1332" x2="39.0556" y2="166.263" gradientUnits="userSpaceOnUse">
<stop stop-color="#4042E2"/>
<stop offset="1" stop-color="#4F52FF"/>
</linearGradient>
<linearGradient id="paint29_linear_813_13148" x1="141.852" y1="105.533" x2="157.938" y2="122.333" gradientUnits="userSpaceOnUse">
<stop stop-color="#09005D"/>
<stop offset="1" stop-color="#1A0F91"/>
</linearGradient>
<linearGradient id="paint30_linear_813_13148" x1="169.468" y1="-49.0028" x2="148.959" y2="4.92779" gradientUnits="userSpaceOnUse">
<stop stop-color="#09005D"/>
<stop offset="1" stop-color="#1A0F91"/>
</linearGradient>
<linearGradient id="paint31_linear_813_13148" x1="163.19" y1="147.701" x2="193.616" y2="170.032" gradientUnits="userSpaceOnUse">
<stop stop-color="#09005D"/>
<stop offset="1" stop-color="#1A0F91"/>
</linearGradient>
<linearGradient id="paint32_linear_813_13148" x1="179.224" y1="-45.2928" x2="158.716" y2="8.63791" gradientUnits="userSpaceOnUse">
<stop stop-color="#09005D"/>
<stop offset="1" stop-color="#1A0F91"/>
</linearGradient>
<linearGradient id="paint33_linear_813_13148" x1="114.034" y1="65.1718" x2="93.3784" y2="89.7356" gradientUnits="userSpaceOnUse">
<stop stop-color="#FEBBBA"/>
<stop offset="1" stop-color="#FF928E"/>
</linearGradient>
<linearGradient id="paint34_linear_813_13148" x1="36.0084" y1="-50.2874" x2="69.1033" y2="65.8208" gradientUnits="userSpaceOnUse">
<stop stop-color="#FF928E"/>
<stop offset="1" stop-color="#FE7062"/>
</linearGradient>
<linearGradient id="paint35_linear_813_13148" x1="89.9484" y1="87.5219" x2="131.236" y2="31.0379" gradientUnits="userSpaceOnUse">
<stop stop-color="#FEBBBA"/>
<stop offset="1" stop-color="#FF928E"/>
</linearGradient>
<linearGradient id="paint36_linear_813_13148" x1="64.6917" y1="40.7136" x2="66.2126" y2="27.0263" gradientUnits="userSpaceOnUse">
<stop stop-color="#FEBBBA"/>
<stop offset="1" stop-color="#FF928E"/>
</linearGradient>
<linearGradient id="paint37_linear_813_13148" x1="72.803" y1="28.7742" x2="66.0997" y2="6.66534" gradientUnits="userSpaceOnUse">
<stop stop-color="#FEBBBA"/>
<stop offset="1" stop-color="#FF928E"/>
</linearGradient>
<linearGradient id="paint38_linear_813_13148" x1="66.7675" y1="-11.7444" x2="72.9858" y2="23.7229" gradientUnits="userSpaceOnUse">
<stop stop-color="#09005D"/>
<stop offset="1" stop-color="#1A0F91"/>
</linearGradient>
<linearGradient id="paint39_linear_813_13148" x1="65.86" y1="30.8794" x2="59.1568" y2="8.77042" gradientUnits="userSpaceOnUse">
<stop stop-color="#FEBBBA"/>
<stop offset="1" stop-color="#FF928E"/>
</linearGradient>
<linearGradient id="paint40_linear_813_13148" x1="82.013" y1="56.0936" x2="85.0323" y2="56.0936" gradientUnits="userSpaceOnUse">
<stop stop-color="#E1473D"/>
<stop offset="1" stop-color="#E9605A"/>
</linearGradient>
<linearGradient id="paint41_linear_813_13148" x1="61.1914" y1="59.6324" x2="70.8711" y2="59.6324" gradientUnits="userSpaceOnUse">
<stop stop-color="#E1473D"/>
<stop offset="1" stop-color="#E9605A"/>
</linearGradient>
<linearGradient id="paint42_linear_813_13148" x1="44.8291" y1="72.1553" x2="62.3316" y2="72.1553" gradientUnits="userSpaceOnUse">
<stop stop-color="#E1473D"/>
<stop offset="1" stop-color="#E9605A"/>
</linearGradient>
</defs>
</svg>
