<svg width="552" height="369" viewBox="0 0 552 369" fill="none" xmlns="http://www.w3.org/2000/svg">
<g clip-path="url(#clip0_813_13560)">
<path d="M552 0H0V368.249H552V0Z" fill="white"/>
<path d="M72.5631 305.496C72.5631 309.452 75.8015 312.69 79.7598 312.69H468.863C472.821 312.69 476.06 309.452 476.06 305.496L479.298 81.7385C479.298 77.7825 474.64 70.0585 466.102 70.6378L85.8259 60.7922C80.8607 60.6635 76.0588 62.5772 72.5433 66.0827C69.0278 69.5906 67.1031 74.3859 67.2193 79.3495L72.5631 305.496Z" fill="url(#paint0_linear_813_13560)"/>
<path d="M79.668 298.594C79.668 302.339 82.7307 305.407 86.4763 305.407H459.479C463.222 305.407 466.287 302.342 466.287 298.594L469.343 95.4636C468.984 83.239 458.274 78.8472 451.78 79.1047L87.3224 69.3235C83.8341 69.2294 80.4621 70.5737 77.9906 73.0419C75.5192 75.5076 74.161 78.8819 74.2476 82.375L79.668 298.594Z" fill="url(#paint1_linear_813_13560)"/>
<path d="M462.254 202.019C462.249 202.019 462.244 202.019 462.239 202.019C461.73 202.012 461.321 201.591 461.331 201.083L461.574 184.61C461.581 184.1 461.999 183.732 462.509 183.702C463.018 183.709 463.427 184.13 463.417 184.64L463.174 201.113C463.169 201.613 462.756 202.019 462.254 202.019Z" fill="white"/>
<path d="M462.848 161.649C462.843 161.649 462.838 161.649 462.833 161.649C462.323 161.642 461.915 161.221 461.925 160.711L462.85 97.6171C462.833 93.8467 461.688 90.8364 459.449 88.6875C455.275 84.6844 448.652 84.8924 448.368 84.8998L331.884 81.7731C331.375 81.7607 330.974 81.3349 330.986 80.8249C330.998 80.3224 331.409 79.9263 331.909 79.9263C331.916 79.9263 331.926 79.9263 331.934 79.9263L448.353 83.053C449.075 83.0183 456.072 82.8896 460.723 87.3507C463.338 89.8585 464.674 93.3145 464.693 97.6221L463.768 160.733C463.761 161.246 463.35 161.649 462.848 161.649Z" fill="#7D97F4"/>
<path d="M42.7318 331.264H498.001C498.954 331.264 499.733 330.484 499.733 329.531V313.338C499.733 312.385 498.954 311.605 498.001 311.605H42.7318C41.7793 311.605 41 312.385 41 313.338V329.531C40.9975 330.484 41.7768 331.264 42.7318 331.264Z" fill="url(#paint2_linear_813_13560)"/>
<path d="M451.844 94.0275C449.341 91.3117 445.88 89.7347 442.236 89.653L102.072 81.9588C98.3314 81.8746 94.759 83.3253 92.1614 85.9817C89.5637 88.638 88.161 92.2772 88.2674 96.0723L93.3043 273.052C93.5196 280.625 99.8182 286.723 107.369 286.683L436.429 284.916C443.666 284.876 449.596 279.053 449.845 271.74L455.555 104.098C455.684 100.37 454.346 96.7432 451.844 94.0275Z" fill="#C7D0F0"/>
<path d="M288.751 181.927C288.736 184.041 287.014 185.744 284.901 185.729C282.788 185.714 281.086 183.991 281.101 181.877C281.116 179.763 282.838 178.06 284.951 178.075C287.063 178.089 288.765 179.812 288.751 181.927Z" fill="url(#paint3_linear_813_13560)"/>
<path d="M288.626 181.926C288.613 183.971 286.946 185.615 284.902 185.603C282.859 185.59 281.216 183.922 281.229 181.877C281.241 179.832 282.908 178.186 284.952 178.201C286.993 178.215 288.638 179.881 288.626 181.926Z" fill="#BDD0FB"/>
<path d="M288.751 205.133C288.736 207.247 287.014 208.951 284.901 208.936C282.788 208.921 281.086 207.198 281.101 205.084C281.116 202.969 282.838 201.266 284.951 201.281C287.063 201.296 288.765 203.019 288.751 205.133Z" fill="url(#paint4_linear_813_13560)"/>
<path d="M288.626 205.133C288.613 207.178 286.946 208.822 284.902 208.809C282.859 208.797 281.216 207.128 281.229 205.084C281.241 203.039 282.908 201.395 284.952 201.407C286.993 201.422 288.638 203.088 288.626 205.133Z" fill="#BDD0FB"/>
<path d="M288.751 228.339C288.736 230.454 287.014 232.157 284.901 232.142C282.788 232.127 281.086 230.402 281.101 228.288C281.116 226.173 282.838 224.47 284.951 224.485C287.063 224.502 288.765 226.225 288.751 228.339Z" fill="url(#paint5_linear_813_13560)"/>
<path d="M288.626 228.34C288.613 230.385 286.946 232.028 284.902 232.016C282.859 232.004 281.216 230.335 281.229 228.29C281.241 226.245 282.908 224.601 284.952 224.614C286.993 224.629 288.638 226.297 288.626 228.34Z" fill="#BDD0FB"/>
<path d="M294.637 181.729L294.654 182.38C294.701 184.145 295.805 185.546 297.15 185.551L399.612 185.707C401.002 185.715 402.13 184.237 402.128 182.412C402.125 180.625 401.034 179.167 399.671 179.129L297.193 178.322C295.753 178.285 294.585 179.842 294.637 181.729Z" fill="#91B3FA"/>
<path d="M294.637 204.821L294.654 205.472C294.701 207.237 295.805 208.639 297.15 208.643L399.612 208.799C401.002 208.807 402.13 207.329 402.128 205.504C402.125 203.717 401.034 202.259 399.671 202.222L297.193 201.415C295.753 201.38 294.585 202.935 294.637 204.821Z" fill="#91B3FA"/>
<path d="M294.637 227.917L294.654 228.568C294.701 230.333 295.805 231.734 297.15 231.739L399.612 231.895C401.002 231.902 402.13 230.424 402.128 228.6C402.125 226.813 401.034 225.354 399.671 225.317L297.193 224.51C295.753 224.473 294.585 226.028 294.637 227.917Z" fill="#91B3FA"/>
<path d="M422.597 132.011C422.597 136.373 419.064 139.908 414.705 139.908H268.584C264.225 139.908 260.692 136.373 260.692 132.011C260.692 127.649 264.225 124.114 268.584 124.114H414.705C419.064 124.114 422.597 127.649 422.597 132.011Z" fill="#91B3FA"/>
<path d="M240 149.704V146.53H150.903V149.81C144.792 150.704 139.701 156.695 139.701 163.688V251.397C139.701 258.97 145.561 265.749 152.016 265.749H239.483C245.729 265.749 250.185 259.233 250.185 251.397V163.688C250.182 156.011 246.11 149.966 240 149.704Z" fill="url(#paint6_linear_813_13560)"/>
<path opacity="0.37" d="M239.48 154.683H152.016C147.808 154.683 143.775 158.644 143.775 163.689V251.398C143.775 256.443 147.81 260.654 152.016 260.654H239.483C243.691 260.654 246.62 256.443 246.62 251.398V163.689C246.62 158.644 243.688 154.683 239.48 154.683Z" fill="white"/>
<path d="M247.13 132.253C247.13 127.389 243.693 123.606 239.765 123.606H150.821C146.89 123.606 143.775 127.389 143.775 132.253V137.489C143.775 142.354 146.893 146.533 150.821 146.533H239.765C243.696 146.533 247.13 142.354 247.13 137.489V132.253Z" fill="url(#paint7_linear_813_13560)"/>
<path d="M230.055 216.754L221.302 236.975C219.524 241.085 214.754 242.971 210.647 241.191C208.596 240.302 207.094 238.664 206.333 236.735C205.571 234.804 205.543 232.583 206.434 230.531L215.187 210.31C216.966 206.201 221.735 204.314 225.842 206.094C227.893 206.983 229.395 208.622 230.157 210.55C230.919 212.479 230.943 214.702 230.055 216.754Z" fill="url(#paint8_linear_813_13560)"/>
<path d="M225.679 226.864L221.302 236.975C219.524 241.084 214.754 242.971 210.647 241.191C208.596 240.302 207.094 238.663 206.333 236.735C205.571 234.804 205.543 232.583 206.434 230.531L210.81 220.42L225.679 226.864Z" fill="url(#paint9_linear_813_13560)"/>
<path d="M173.225 195.852L164.472 216.073C162.694 220.183 157.924 222.069 153.817 220.289C151.766 219.4 150.264 217.761 149.502 215.833C148.74 213.902 148.713 211.681 149.604 209.629L158.357 189.408C160.135 185.299 164.905 183.412 169.012 185.192C171.063 186.081 172.565 187.72 173.327 189.648C174.089 191.579 174.113 193.8 173.225 195.852Z" fill="url(#paint10_linear_813_13560)"/>
<path d="M168.849 205.963L164.472 216.073C162.694 220.183 157.924 222.069 153.817 220.289C151.766 219.4 150.264 217.761 149.502 215.833C148.74 213.902 148.713 211.681 149.604 209.629L153.98 199.519L168.849 205.963Z" fill="url(#paint11_linear_813_13560)"/>
<path d="M206.673 197.654L184.66 198.255C180.187 198.377 176.461 194.849 176.34 190.373C176.278 188.138 177.129 186.085 178.554 184.578C179.979 183.07 181.983 182.109 184.217 182.047L206.23 181.446C210.703 181.325 214.429 184.852 214.55 189.328C214.612 191.564 213.761 193.616 212.336 195.124C210.909 196.631 208.907 197.594 206.673 197.654Z" fill="url(#paint12_linear_813_13560)"/>
<path d="M195.667 197.956L184.66 198.258C180.187 198.38 176.461 194.852 176.34 190.376C176.278 188.14 177.129 186.088 178.554 184.58C179.979 183.073 181.983 182.112 184.217 182.05L195.224 181.748L195.667 197.956Z" fill="url(#paint13_linear_813_13560)"/>
<path d="M207.158 255.01L185.145 255.612C180.672 255.733 176.946 252.205 176.825 247.729C176.763 245.494 177.614 243.442 179.039 241.934C180.464 240.426 182.468 239.466 184.702 239.404L206.715 238.802C211.188 238.681 214.914 242.209 215.035 246.685C215.097 248.92 214.246 250.973 212.821 252.48C211.393 253.988 209.392 254.948 207.158 255.01Z" fill="url(#paint14_linear_813_13560)"/>
<path d="M196.151 255.31L185.145 255.612C180.672 255.734 176.946 252.206 176.825 247.73C176.763 245.495 177.614 243.442 179.039 241.935C180.464 240.427 182.468 239.466 184.702 239.405L195.709 239.103L196.151 255.31Z" fill="url(#paint15_linear_813_13560)"/>
<path d="M215.523 240.406L228.148 222.352C230.713 218.683 235.765 217.789 239.431 220.356C241.262 221.639 242.405 223.545 242.766 225.587C243.128 227.632 242.707 229.813 241.425 231.645L228.801 249.7C226.235 253.369 221.184 254.263 217.517 251.695C215.686 250.413 214.544 248.507 214.182 246.464C213.821 244.422 214.242 242.238 215.523 240.406Z" fill="url(#paint16_linear_813_13560)"/>
<path d="M221.834 231.377L228.145 222.349C230.711 218.68 235.762 217.786 239.429 220.353C241.259 221.636 242.402 223.542 242.764 225.584C243.125 227.629 242.704 229.81 241.423 231.642L235.112 240.671L221.834 231.377Z" fill="url(#paint17_linear_813_13560)"/>
<path d="M188.641 198.694L209.14 206.745C213.306 208.381 215.357 213.085 213.722 217.254C212.906 219.336 211.322 220.893 209.42 221.725C207.52 222.554 205.301 222.658 203.22 221.841L182.721 213.79C178.555 212.154 176.504 207.45 178.139 203.281C178.956 201.199 180.539 199.642 182.441 198.81C184.341 197.978 186.561 197.877 188.641 198.694Z" fill="url(#paint18_linear_813_13560)"/>
<path d="M198.89 202.718L209.14 206.743C213.306 208.379 215.357 213.083 213.722 217.252C212.905 219.334 211.322 220.891 209.42 221.723C207.52 222.552 205.3 222.656 203.22 221.839L192.97 217.814L198.89 202.718Z" fill="url(#paint19_linear_813_13560)"/>
<path d="M184.487 243.233L164.42 234.155C160.343 232.311 158.532 227.508 160.376 223.428C161.296 221.391 162.956 219.915 164.898 219.183C166.838 218.45 169.059 218.46 171.095 219.381L191.161 228.459C195.239 230.303 197.049 235.106 195.206 239.186C194.286 241.223 192.626 242.699 190.684 243.431C188.744 244.164 186.523 244.154 184.487 243.233Z" fill="url(#paint20_linear_813_13560)"/>
<path d="M174.455 238.696L164.423 234.159C160.346 232.314 158.535 227.511 160.379 223.432C161.299 221.394 162.959 219.919 164.901 219.186C166.84 218.453 169.062 218.463 171.098 219.384L181.13 223.922L174.455 238.696Z" fill="url(#paint21_linear_813_13560)"/>
<path d="M210.535 232.895L188.572 231.311C184.109 230.989 180.751 227.107 181.073 222.641C181.234 220.411 182.283 218.452 183.851 217.093C185.42 215.734 187.508 214.977 189.737 215.138L211.701 216.722C216.164 217.044 219.521 220.926 219.199 225.392C219.038 227.622 217.989 229.58 216.421 230.939C214.852 232.299 212.764 233.056 210.535 232.895Z" fill="url(#paint22_linear_813_13560)"/>
<path d="M199.551 232.103L188.569 231.311C184.106 230.989 180.749 227.107 181.071 222.641C181.231 220.41 182.28 218.452 183.849 217.093C185.417 215.734 187.505 214.976 189.734 215.137L200.716 215.93L199.551 232.103Z" fill="url(#paint23_linear_813_13560)"/>
<path d="M162.175 255.153L150.517 236.457C148.147 232.657 149.305 227.656 153.103 225.287C155 224.104 157.199 223.797 159.218 224.267C161.239 224.735 163.08 225.978 164.265 227.874L175.922 246.57C178.292 250.37 177.135 255.371 173.337 257.74C171.439 258.923 169.24 259.23 167.221 258.76C165.2 258.292 163.36 257.052 162.175 255.153Z" fill="url(#paint24_linear_813_13560)"/>
<path d="M156.346 245.805L150.517 236.457C148.147 232.657 149.305 227.656 153.103 225.287C155 224.104 157.199 223.797 159.218 224.267C161.239 224.735 163.08 225.978 164.265 227.874L170.094 237.222L156.346 245.805Z" fill="url(#paint25_linear_813_13560)"/>
<path d="M226.861 211.86L215.758 192.83C213.502 188.963 214.805 183.999 218.67 181.741C220.599 180.612 222.809 180.372 224.815 180.9C226.822 181.427 228.625 182.722 229.753 184.653L240.856 203.683C243.112 207.55 241.809 212.513 237.944 214.771C236.015 215.9 233.805 216.14 231.799 215.613C229.793 215.086 227.989 213.791 226.861 211.86Z" fill="url(#paint26_linear_813_13560)"/>
<path d="M221.31 202.343L215.758 192.83C213.502 188.963 214.805 183.999 218.67 181.741C220.599 180.612 222.809 180.372 224.815 180.9C226.822 181.427 228.625 182.722 229.753 184.653L235.305 194.166L221.31 202.343Z" fill="url(#paint27_linear_813_13560)"/>
<path opacity="0.6" d="M158.54 246.9C158.54 248.87 156.944 250.467 154.975 250.467C153.006 250.467 151.41 248.87 151.41 246.9V173.024C151.41 171.054 153.006 169.457 154.975 169.457C156.944 169.457 158.54 171.054 158.54 173.024V246.9Z" fill="white"/>
<path d="M152.938 141.945C152.938 142.507 152.483 142.965 151.919 142.965C151.358 142.965 150.9 142.51 150.9 141.945V127.681C150.9 127.119 151.355 126.661 151.919 126.661C152.481 126.661 152.938 127.116 152.938 127.681V141.945Z" fill="url(#paint28_linear_813_13560)"/>
<path d="M160.066 141.945C160.066 142.507 159.611 142.965 159.047 142.965C158.486 142.965 158.028 142.509 158.028 141.945V127.68C158.028 127.118 158.483 126.66 159.047 126.66C159.609 126.66 160.066 127.116 160.066 127.68V141.945Z" fill="url(#paint29_linear_813_13560)"/>
<path d="M167.194 141.945C167.194 142.507 166.739 142.965 166.175 142.965C165.613 142.965 165.155 142.509 165.155 141.945V127.68C165.155 127.118 165.61 126.66 166.175 126.66C166.736 126.66 167.194 127.116 167.194 127.68V141.945Z" fill="url(#paint30_linear_813_13560)"/>
<path d="M174.321 141.945C174.321 142.507 173.866 142.965 173.302 142.965C172.74 142.965 172.283 142.509 172.283 141.945V127.68C172.283 127.118 172.738 126.66 173.302 126.66C173.864 126.66 174.321 127.116 174.321 127.68V141.945Z" fill="url(#paint31_linear_813_13560)"/>
<path d="M181.959 141.945C181.959 142.507 181.504 142.965 180.94 142.965C180.378 142.965 179.92 142.509 179.92 141.945V127.68C179.92 127.118 180.376 126.66 180.94 126.66C181.501 126.66 181.959 127.116 181.959 127.68V141.945Z" fill="url(#paint32_linear_813_13560)"/>
<path d="M189.088 141.945C189.088 142.507 188.633 142.965 188.069 142.965C187.507 142.965 187.05 142.509 187.05 141.945V127.68C187.05 127.118 187.505 126.66 188.069 126.66C188.631 126.66 189.088 127.116 189.088 127.68V141.945Z" fill="url(#paint33_linear_813_13560)"/>
<path d="M196.215 141.945C196.215 142.507 195.76 142.965 195.196 142.965C194.634 142.965 194.177 142.509 194.177 141.945V127.68C194.177 127.118 194.632 126.66 195.196 126.66C195.758 126.66 196.215 127.116 196.215 127.68V141.945Z" fill="url(#paint34_linear_813_13560)"/>
<path d="M203.344 141.945C203.344 142.507 202.889 142.965 202.325 142.965C201.763 142.965 201.306 142.509 201.306 141.945V127.68C201.306 127.118 201.761 126.66 202.325 126.66C202.887 126.66 203.344 127.116 203.344 127.68V141.945Z" fill="url(#paint35_linear_813_13560)"/>
<path d="M210.981 141.945C210.981 142.507 210.526 142.965 209.962 142.965C209.4 142.965 208.942 142.509 208.942 141.945V127.68C208.942 127.118 209.398 126.66 209.962 126.66C210.523 126.66 210.981 127.116 210.981 127.68V141.945Z" fill="url(#paint36_linear_813_13560)"/>
<path d="M218.108 141.945C218.108 142.507 217.653 142.965 217.089 142.965C216.527 142.965 216.069 142.509 216.069 141.945V127.68C216.069 127.118 216.525 126.66 217.089 126.66C217.65 126.66 218.108 127.116 218.108 127.68V141.945Z" fill="url(#paint37_linear_813_13560)"/>
<path d="M225.235 141.945C225.235 142.507 224.78 142.965 224.216 142.965C223.654 142.965 223.197 142.509 223.197 141.945V127.68C223.197 127.118 223.652 126.66 224.216 126.66C224.778 126.66 225.235 127.116 225.235 127.68V141.945Z" fill="url(#paint38_linear_813_13560)"/>
<path d="M232.873 141.945C232.873 142.507 232.417 142.965 231.853 142.965C231.292 142.965 230.834 142.509 230.834 141.945V127.68C230.834 127.118 231.289 126.66 231.853 126.66C232.415 126.66 232.873 127.116 232.873 127.68V141.945Z" fill="url(#paint39_linear_813_13560)"/>
<path d="M239.999 141.945C239.999 142.507 239.544 142.965 238.98 142.965C238.418 142.965 237.96 142.509 237.96 141.945V127.68C237.96 127.118 238.416 126.66 238.98 126.66C239.541 126.66 239.999 127.116 239.999 127.68V141.945Z" fill="url(#paint40_linear_813_13560)"/>
<path d="M90.9325 254.644L89.2601 253.75C88.9484 253.584 88.8297 253.195 88.9979 252.883C89.1637 252.571 89.5521 252.453 89.8638 252.621C89.8663 252.623 89.8687 252.623 89.8712 252.626L89.8935 252.638L91.5114 253.539L91.5312 253.549C91.8331 253.718 91.9394 254.096 91.7737 254.398C91.6055 254.696 91.2319 254.804 90.9325 254.644Z" fill="white"/>
<path d="M85.4846 251.448L83.9235 250.371C83.6069 250.154 83.5277 249.72 83.7454 249.403C83.9631 249.087 84.396 249.007 84.7127 249.225C84.7152 249.228 84.7177 249.228 84.7201 249.23L84.7424 249.245L86.2466 250.322L86.2639 250.334C86.5682 250.552 86.6399 250.978 86.4222 251.282C86.207 251.584 85.7889 251.656 85.4846 251.448Z" fill="white"/>
<path d="M80.4216 247.666L78.9842 246.428C78.67 246.158 78.6354 245.683 78.9051 245.368C79.1747 245.054 79.6497 245.019 79.9639 245.289C79.9664 245.292 79.9689 245.294 79.9713 245.294L79.9911 245.312L81.3716 246.544L81.3889 246.559C81.6907 246.829 81.718 247.294 81.4483 247.597C81.1811 247.899 80.7234 247.926 80.4216 247.666Z" fill="white"/>
<path d="M75.789 243.365L74.4877 241.984C74.1834 241.659 74.1983 241.152 74.5224 240.847C74.8465 240.543 75.3536 240.558 75.6579 240.882C75.6604 240.884 75.6629 240.887 75.6629 240.889L75.6827 240.909L76.9271 242.276L76.9444 242.293C77.2388 242.615 77.214 243.115 76.8924 243.407C76.5758 243.697 76.0834 243.677 75.789 243.365Z" fill="white"/>
<path d="M71.6229 238.607L70.4676 237.102C70.1831 236.731 70.2524 236.201 70.6235 235.916C70.9946 235.632 71.524 235.701 71.8085 236.072C71.811 236.075 71.811 236.075 71.8134 236.077L71.8308 236.1L72.9391 237.58L72.9539 237.6C73.2285 237.969 73.1543 238.491 72.7857 238.766C72.4171 239.041 71.9 238.969 71.6229 238.607Z" fill="white"/>
<path d="M67.9386 233.466L66.9292 231.859C66.6695 231.445 66.7932 230.896 67.2088 230.636C67.6219 230.376 68.1712 230.5 68.4309 230.916C68.4309 230.918 68.4334 230.921 68.4334 230.921L68.4482 230.945L69.4106 232.525L69.423 232.545C69.6753 232.956 69.5442 233.495 69.1311 233.745C68.7253 233.998 68.1934 233.872 67.9386 233.466Z" fill="white"/>
<path d="M64.75 228.004L63.8915 226.31C63.659 225.855 63.842 225.295 64.2972 225.062C64.7549 224.83 65.3116 225.013 65.5441 225.468C65.5441 225.471 65.5466 225.473 65.5466 225.476L65.559 225.503L66.3729 227.162L66.3828 227.184C66.6054 227.637 66.4174 228.187 65.9647 228.41C65.5169 228.63 64.9751 228.447 64.75 228.004Z" fill="white"/>
<path d="M62.0625 222.273L61.3574 220.51C61.1595 220.013 61.3995 219.451 61.8967 219.25C62.394 219.052 62.9556 219.292 63.156 219.79C63.156 219.792 63.1585 219.795 63.1585 219.797L63.1684 219.827L63.8339 221.553L63.8437 221.577C64.0342 222.07 63.7893 222.622 63.297 222.813C62.8047 222.998 62.2555 222.758 62.0625 222.273Z" fill="white"/>
<path d="M59.8913 216.324L59.3421 214.502C59.1813 213.967 59.4831 213.405 60.015 213.244C60.5493 213.083 61.1109 213.385 61.2717 213.917C61.2717 213.92 61.2742 213.922 61.2742 213.925L61.2841 213.954L61.7962 215.732L61.8036 215.757C61.9546 216.286 61.6503 216.839 61.1208 216.99C60.5964 217.143 60.0496 216.844 59.8913 216.324Z" fill="white"/>
<path d="M58.2488 210.202L57.8604 208.341C57.7416 207.774 58.1053 207.217 58.6743 207.098C59.2408 206.979 59.7975 207.343 59.9162 207.912C59.9162 207.915 59.9162 207.917 59.9187 207.92L59.9261 207.952L60.2799 209.764L60.2848 209.791C60.3937 210.353 60.0275 210.898 59.466 211.009C58.9044 211.118 58.3626 210.757 58.2488 210.202Z" fill="white"/>
<path d="M57.147 203.958L56.9243 202.064C56.8551 201.465 57.2831 200.923 57.8793 200.854C58.478 200.784 59.0198 201.213 59.0891 201.809C59.0891 201.812 59.0891 201.814 59.0891 201.817L59.0915 201.851L59.282 203.688L59.2845 203.718C59.3463 204.31 58.9159 204.842 58.3246 204.904C57.7407 204.968 57.2163 204.545 57.147 203.958Z" fill="white"/>
<path d="M56.6075 197.633L56.5581 195.727C56.5407 195.103 57.0355 194.583 57.659 194.566C58.2824 194.548 58.8019 195.043 58.8192 195.667C58.8192 195.67 58.8192 195.672 58.8192 195.677V195.714L58.8415 197.559V197.591C58.8489 198.21 58.3541 198.717 57.7381 198.725C57.1271 198.73 56.6224 198.244 56.6075 197.633Z" fill="white"/>
<path d="M56.6424 191.286L56.7587 189.387C56.7983 188.741 57.3549 188.248 58.0006 188.288C58.6463 188.327 59.1386 188.884 59.0991 189.53C59.0991 189.533 59.0991 189.535 59.0991 189.54L59.0966 189.575L58.9605 191.414L58.9581 191.444C58.911 192.083 58.3544 192.563 57.7161 192.516C57.0803 192.466 56.6028 191.919 56.6424 191.286Z" fill="white"/>
<path d="M57.2172 184.97L57.4918 183.086C57.5883 182.427 58.1993 181.972 58.8574 182.068C59.5155 182.165 59.9707 182.776 59.8742 183.435L59.8717 183.445L59.8668 183.474L59.5848 185.299L59.5798 185.329C59.4784 185.982 58.8673 186.43 58.2142 186.329C57.5685 186.225 57.1207 185.618 57.2172 184.97Z" fill="white"/>
<path d="M58.308 178.725L58.731 176.87C58.8819 176.209 59.54 175.794 60.2005 175.945C60.8611 176.096 61.2767 176.754 61.1258 177.415L61.1233 177.425L61.1159 177.452L60.6928 179.25L60.6854 179.277C60.5296 179.933 59.874 180.339 59.2159 180.185C58.5652 180.029 58.1595 179.376 58.308 178.725Z" fill="white"/>
<path d="M59.879 172.582L60.4406 170.765C60.6459 170.104 61.346 169.733 62.009 169.936C62.6696 170.141 63.0407 170.842 62.8378 171.505L62.8353 171.515L62.8279 171.542L62.2688 173.302L62.2614 173.33C62.0536 173.986 61.3534 174.35 60.6979 174.142C60.0398 173.931 59.6786 173.236 59.879 172.582Z" fill="white"/>
<path d="M61.8997 166.576L62.59 164.806C62.8473 164.148 63.587 163.823 64.245 164.078C64.9031 164.336 65.2272 165.076 64.9724 165.735L64.9674 165.745L64.9575 165.769L64.2723 167.485L64.2624 167.51C64.0026 168.163 63.2629 168.48 62.6098 168.22C61.9641 167.96 61.6474 167.225 61.8997 166.576Z" fill="white"/>
<path d="M64.3443 160.732L65.1558 159.014C65.4626 158.363 66.2394 158.083 66.89 158.39C67.5407 158.697 67.8202 159.474 67.5135 160.125L67.5085 160.135L67.4961 160.16L66.6946 161.824L66.6822 161.848C66.3705 162.495 65.5961 162.764 64.9529 162.453C64.3122 162.143 64.04 161.376 64.3443 160.732Z" fill="white"/>
<path d="M67.18 155.067L68.1028 153.409C68.4591 152.767 69.2681 152.537 69.9088 152.894C70.5496 153.25 70.7796 154.06 70.4234 154.701L70.4184 154.711L70.4061 154.733L69.4957 156.34L69.4833 156.362C69.1246 156.998 68.3181 157.221 67.6822 156.86C67.0514 156.503 66.8287 155.701 67.18 155.067Z" fill="white"/>
<path d="M70.38 149.609L71.4092 148.012C71.8149 147.383 72.6511 147.203 73.2795 147.609C73.9079 148.015 74.0885 148.851 73.6827 149.48L73.6778 149.49L73.6629 149.512L72.6486 151.06L72.6338 151.082C72.2256 151.703 71.3919 151.877 70.7709 151.468C70.1549 151.06 69.9817 150.23 70.38 149.609Z" fill="white"/>
<path d="M73.9288 144.362L75.0569 142.832C75.5096 142.218 76.373 142.09 76.9841 142.543C77.5976 142.996 77.7263 143.86 77.2736 144.471L77.2661 144.481L77.2513 144.501L76.1405 145.981L76.1256 146.001C75.6704 146.608 74.812 146.729 74.2058 146.276C73.6047 145.823 73.481 144.969 73.9288 144.362Z" fill="white"/>
<path d="M77.7984 139.35L79.0181 137.894C79.5153 137.3 80.401 137.221 80.9947 137.721C81.5885 138.219 81.6677 139.105 81.1679 139.699L81.1605 139.706L81.1432 139.726L79.9458 141.132L79.9285 141.152C79.4287 141.739 78.548 141.811 77.9617 141.308C77.3778 140.813 77.3061 139.937 77.7984 139.35Z" fill="white"/>
<path d="M81.9667 134.586L83.2754 133.207C83.8196 132.636 84.7226 132.611 85.2941 133.155C85.8656 133.7 85.8903 134.604 85.3461 135.176L85.3387 135.183L85.3213 135.203L84.0374 136.535L84.02 136.554C83.4758 137.119 82.5753 137.136 82.0112 136.592C81.4496 136.044 81.4298 135.151 81.9667 134.586Z" fill="white"/>
<path d="M86.4239 130.083L87.8093 128.788C88.3956 128.241 89.3159 128.271 89.8627 128.86C90.4094 129.447 90.3797 130.368 89.7909 130.915L89.7835 130.922L89.7662 130.94L88.4055 132.19L88.3882 132.207C87.7994 132.747 86.8865 132.71 86.3447 132.12C85.8079 131.536 85.8425 130.625 86.4239 130.083Z" fill="white"/>
<path d="M91.1299 125.86L92.5871 124.644C93.213 124.122 94.1457 124.206 94.6701 124.832C95.1921 125.459 95.108 126.392 94.4821 126.917L94.4722 126.924L94.4524 126.939L93.0225 128.113L93.0027 128.127C92.3743 128.642 91.449 128.551 90.932 127.922C90.4224 127.298 90.5114 126.377 91.1299 125.86Z" fill="white"/>
<path d="M96.0597 121.899L97.5787 120.763C98.2442 120.265 99.1868 120.401 99.6841 121.067C100.181 121.733 100.045 122.676 99.3798 123.174L99.3699 123.181L99.3501 123.196L97.8608 124.293L97.841 124.308C97.1755 124.798 96.2378 124.654 95.7505 123.989C95.2631 123.323 95.4041 122.392 96.0597 121.899Z" fill="white"/>
<path d="M101.192 118.208L102.765 117.15C103.465 116.68 104.415 116.868 104.885 117.569C105.355 118.269 105.167 119.22 104.467 119.69L104.457 119.698L104.438 119.71L102.894 120.728L102.874 120.74C102.172 121.203 101.229 121.007 100.766 120.307C100.309 119.611 100.499 118.673 101.192 118.208Z" fill="white"/>
<path d="M106.498 114.779L108.121 113.801C108.855 113.358 109.81 113.595 110.253 114.331C110.696 115.066 110.459 116.021 109.724 116.465L109.714 116.472L109.694 116.482L108.101 117.425L108.081 117.437C107.346 117.873 106.399 117.628 105.963 116.893C105.533 116.16 105.773 115.217 106.498 114.779Z" fill="white"/>
<path d="M111.96 111.607L113.627 110.706C114.394 110.293 115.349 110.578 115.764 111.345C116.178 112.112 115.893 113.068 115.126 113.484L115.116 113.489L115.097 113.499L113.461 114.368L113.441 114.378C112.675 114.786 111.725 114.494 111.316 113.727C110.913 112.964 111.2 112.018 111.96 111.607Z" fill="white"/>
<path d="M117.564 108.702L119.266 107.88C120.055 107.498 121.003 107.83 121.384 108.62C121.765 109.41 121.433 110.358 120.644 110.739L120.639 110.741L120.622 110.749L118.955 111.548L118.937 111.558C118.148 111.937 117.203 111.603 116.827 110.816C116.448 110.023 116.777 109.078 117.564 108.702Z" fill="white"/>
<path d="M123.284 106.043L125.02 105.29C125.827 104.941 126.767 105.312 127.116 106.119C127.464 106.926 127.093 107.867 126.287 108.216L126.282 108.219L126.265 108.226L124.563 108.959L124.545 108.966C123.739 109.313 122.804 108.939 122.455 108.132C122.106 107.322 122.475 106.389 123.284 106.043Z" fill="white"/>
<path d="M129.105 103.616L130.869 102.933C131.693 102.613 132.62 103.024 132.939 103.849C133.259 104.675 132.848 105.601 132.024 105.921L132.019 105.923L132.002 105.931L130.27 106.596L130.253 106.604C129.429 106.921 128.504 106.507 128.187 105.683C127.873 104.856 128.281 103.933 129.105 103.616Z" fill="white"/>
<path d="M135.013 101.418L136.802 100.801C137.643 100.512 138.558 100.957 138.848 101.799C139.137 102.641 138.692 103.557 137.851 103.847L137.846 103.849L137.828 103.854L136.072 104.456L136.055 104.46C135.213 104.748 134.301 104.3 134.014 103.458C133.729 102.619 134.174 101.705 135.013 101.418Z" fill="white"/>
<path d="M140.997 99.4402L142.806 98.8881C143.659 98.6257 144.565 99.1085 144.827 99.9626C145.089 100.819 144.607 101.723 143.753 101.985L143.748 101.988L143.733 101.993L141.955 102.532L141.937 102.537C141.084 102.795 140.181 102.312 139.924 101.458C139.664 100.599 140.144 99.6977 140.997 99.4402Z" fill="white"/>
<path d="M147.046 97.6676L148.869 97.1774C149.737 96.9447 150.628 97.4572 150.863 98.3261C151.096 99.195 150.583 100.086 149.715 100.321H149.71L149.695 100.326L147.902 100.804L147.887 100.809C147.021 101.039 146.13 100.524 145.9 99.6555C145.668 98.7891 146.18 97.9003 147.046 97.6676Z" fill="white"/>
<path d="M153.14 96.1003L154.978 95.6671C155.856 95.4591 156.737 96.0038 156.944 96.8851C157.152 97.7639 156.608 98.6452 155.727 98.8532H155.722L155.707 98.8557L153.899 99.2765L153.884 99.279C153.006 99.4845 152.128 98.9374 151.925 98.0585C151.719 97.1822 152.261 96.3058 153.14 96.1003Z" fill="white"/>
<path d="M159.28 94.7212L161.128 94.3424C162.017 94.1617 162.885 94.7336 163.068 95.6248C163.249 96.5135 162.677 97.3825 161.786 97.5657H161.782L161.767 97.5682L159.946 97.9346L159.931 97.937C159.043 98.1153 158.177 97.5409 157.999 96.6522C157.821 95.7659 158.392 94.9019 159.28 94.7212Z" fill="white"/>
<path d="M165.455 93.5252L167.313 93.2009C168.211 93.0449 169.067 93.6465 169.223 94.5452C169.379 95.4438 168.778 96.3004 167.88 96.4563H167.875L167.86 96.4588L166.029 96.7732L166.014 96.7757C165.116 96.9292 164.265 96.3276 164.109 95.429C163.958 94.5303 164.557 93.6787 165.455 93.5252Z" fill="white"/>
<path d="M171.659 92.5081L173.527 92.2358C174.435 92.1046 175.276 92.7334 175.407 93.6395C175.538 94.5481 174.91 95.3898 174.005 95.521H174L173.987 95.5235L172.147 95.7859L172.134 95.7883C171.229 95.9171 170.39 95.2883 170.259 94.3822C170.13 93.4761 170.754 92.6369 171.659 92.5081Z" fill="white"/>
<path d="M177.891 91.659L179.764 91.4361C180.68 91.3272 181.508 91.9833 181.617 92.8968C181.726 93.8127 181.07 94.6421 180.158 94.751H180.153L180.14 94.7535L178.292 94.9664L178.28 94.9689C177.367 95.0753 176.541 94.4193 176.434 93.5058C176.325 92.5923 176.976 91.7654 177.891 91.659Z" fill="white"/>
<path d="M184.139 90.9777L186.016 90.8044C186.939 90.7203 187.756 91.3986 187.84 92.3195C187.924 93.2429 187.246 94.0599 186.326 94.144H186.321H186.308L184.455 94.3099H184.443C183.523 94.3916 182.709 93.7133 182.627 92.7924C182.543 91.8739 183.218 91.0594 184.139 90.9777Z" fill="white"/>
<path d="M190.402 90.4533L192.282 90.327C193.21 90.2652 194.014 90.9658 194.076 91.8941C194.138 92.8225 193.438 93.6271 192.51 93.6889H192.505H192.493L190.635 93.8103H190.622C189.695 93.8697 188.895 93.1666 188.836 92.2407C188.777 91.3148 189.474 90.5152 190.402 90.4533Z" fill="white"/>
<path d="M196.671 90.082L198.553 89.9978C199.488 89.9558 200.278 90.6811 200.32 91.6144C200.362 92.5477 199.637 93.3399 198.704 93.382H198.699H198.687L196.826 93.4588H196.814C195.881 93.4984 195.095 92.773 195.055 91.8397C195.018 90.9089 195.738 90.1216 196.671 90.082Z" fill="white"/>
<path d="M202.948 89.8545L204.831 89.8124C205.771 89.7926 206.548 90.5378 206.57 91.476C206.59 92.4168 205.845 93.1941 204.907 93.2164H204.902H204.893L203.032 93.2535H203.022C202.085 93.2709 201.31 92.5257 201.29 91.5874C201.271 90.6467 202.01 89.8718 202.948 89.8545Z" fill="white"/>
<path d="M209.227 89.762L211.109 89.7595C212.054 89.7595 212.819 90.5245 212.821 91.4677C212.821 92.4134 212.057 93.1784 211.114 93.1808H211.109H211.099L209.236 93.1784H209.227C208.284 93.1759 207.522 92.4109 207.522 91.4677C207.522 90.522 208.284 89.7595 209.227 89.762Z" fill="white"/>
<path d="M215.503 89.7999L217.386 89.8346C218.333 89.8519 219.088 90.6367 219.07 91.5849C219.053 92.533 218.269 93.2881 217.321 93.2708H217.316H217.306L215.443 93.2312H215.434C214.486 93.2114 213.736 92.4266 213.756 91.4784C213.776 90.5303 214.555 89.7801 215.503 89.7999Z" fill="white"/>
<path d="M221.777 89.9607L223.658 90.0325C224.61 90.0672 225.352 90.8693 225.318 91.8224C225.283 92.7755 224.481 93.5182 223.529 93.4836H223.524H223.514L221.651 93.4093H221.641C220.691 93.3722 219.952 92.5676 219.989 91.6169C220.028 90.6613 220.825 89.9211 221.777 89.9607Z" fill="white"/>
<path d="M228.043 90.2355L229.921 90.3395C230.878 90.3915 231.611 91.2109 231.556 92.169C231.504 93.1271 230.685 93.8599 229.728 93.8054H229.723H229.713L227.855 93.6965H227.845C226.89 93.642 226.161 92.8226 226.217 91.867C226.274 90.9089 227.088 90.1786 228.043 90.2355Z" fill="white"/>
<path d="M234.3 90.6165L236.175 90.7502C237.135 90.8195 237.857 91.6538 237.788 92.6143C237.719 93.5749 236.885 94.2978 235.925 94.2284H235.92H235.913L234.055 94.0898H234.048C233.09 94.018 232.37 93.1837 232.442 92.2232C232.511 91.2651 233.34 90.5447 234.3 90.6165Z" fill="white"/>
<path d="M240.552 91.1016L242.427 91.265C243.389 91.3492 244.102 92.1983 244.018 93.1638C243.934 94.1293 243.085 94.8398 242.12 94.7557H242.115H242.108L240.25 94.5873H240.242C239.28 94.5007 238.572 93.6515 238.659 92.6885C238.746 91.7255 239.589 91.015 240.552 91.1016Z" fill="white"/>
<path d="M246.793 91.6888L248.666 91.8844C249.626 91.9859 250.321 92.8449 250.22 93.803C250.118 94.7635 249.26 95.4592 248.302 95.3577H248.3L246.442 95.1671H246.435C245.475 95.068 244.775 94.2115 244.874 93.2485C244.973 92.2879 245.829 91.5873 246.791 91.6863L246.793 91.6888Z" fill="white"/>
<path d="M253.025 92.3715L254.895 92.5918C255.848 92.7057 256.528 93.5697 256.417 94.5228C256.303 95.476 255.44 96.1568 254.487 96.0454H254.485L252.629 95.83H252.622C251.667 95.7186 250.984 94.8571 251.093 93.9015C251.204 92.9459 252.065 92.2626 253.02 92.3715H253.025Z" fill="white"/>
<path d="M259.245 93.1367L261.108 93.3818C262.055 93.5056 262.721 94.3745 262.597 95.3202C262.473 96.2684 261.605 96.9343 260.66 96.8106H260.657L258.807 96.5729H258.802C257.854 96.4516 257.184 95.5826 257.305 94.6345C257.426 93.6863 258.295 93.0154 259.242 93.1367H259.245Z" fill="white"/>
<path d="M265.452 93.9762L267.314 94.2411C268.254 94.3748 268.908 95.2462 268.774 96.187C268.64 97.1277 267.77 97.7812 266.829 97.6476L264.977 97.3876H264.972C264.029 97.2564 263.373 96.385 263.504 95.4418C263.636 94.4986 264.506 93.8425 265.449 93.9737L265.452 93.9762Z" fill="white"/>
<path d="M271.649 94.8821L273.507 95.1668C274.44 95.3104 275.083 96.1843 274.939 97.1176C274.796 98.0509 273.923 98.6946 272.99 98.551L271.142 98.2737H271.137C270.202 98.1326 269.556 97.2587 269.697 96.323C269.838 95.3872 270.711 94.741 271.647 94.8821H271.649Z" fill="white"/>
<path d="M277.836 95.8526L279.689 96.1546C280.617 96.3056 281.245 97.182 281.094 98.1103C280.943 99.0387 280.068 99.6675 279.14 99.5165L277.294 99.2194H277.289C276.359 99.0709 275.726 98.1945 275.877 97.2662C276.025 96.3353 276.901 95.7016 277.829 95.8526H277.836Z" fill="white"/>
<path d="M284.009 96.8804L285.86 97.1973C286.782 97.3557 287.401 98.2321 287.243 99.153C287.084 100.076 286.208 100.695 285.288 100.537L283.445 100.225H283.44C282.517 100.069 281.894 99.1926 282.05 98.2692C282.206 97.3458 283.081 96.7219 284.004 96.8779L284.009 96.8804Z" fill="white"/>
<path d="M290.171 97.9543L292.019 98.2861C292.934 98.4494 293.543 99.3258 293.379 100.242C293.216 101.158 292.34 101.767 291.425 101.603H291.427L289.587 101.279H289.584C288.667 101.118 288.053 100.242 288.216 99.3233C288.377 98.4049 289.253 97.7909 290.171 97.9543Z" fill="white"/>
<path d="M296.327 99.0715L298.173 99.4132C299.083 99.5815 299.684 100.455 299.516 101.366C299.348 102.277 298.474 102.879 297.566 102.711L295.726 102.374C294.813 102.208 294.207 101.337 294.373 100.423C294.538 99.5097 295.409 98.9032 296.322 99.0691L296.327 99.0715Z" fill="white"/>
<path d="M302.475 100.219L304.318 100.571C305.223 100.741 305.817 101.615 305.644 102.521C305.473 103.427 304.603 104.022 303.697 103.848L301.856 103.504C300.951 103.336 300.352 102.464 300.521 101.556C300.689 100.65 301.56 100.051 302.468 100.219H302.475Z" fill="white"/>
<path d="M308.615 101.398L310.458 101.755C311.356 101.928 311.945 102.799 311.769 103.7C311.596 104.599 310.728 105.188 309.83 105.015L307.989 104.663C307.089 104.493 306.497 103.621 306.668 102.72C306.839 101.819 307.71 101.227 308.61 101.398H308.615Z" fill="white"/>
<path d="M314.748 102.594L316.588 102.955C317.481 103.131 318.065 103.997 317.89 104.894C317.714 105.787 316.851 106.372 315.957 106.196L314.117 105.839C313.221 105.666 312.635 104.8 312.808 103.903C312.981 103.007 313.847 102.421 314.743 102.594H314.748Z" fill="white"/>
<path d="M320.879 103.802L322.719 104.166C323.607 104.342 324.186 105.206 324.011 106.095C323.835 106.983 322.974 107.563 322.086 107.387L320.245 107.028C319.355 106.855 318.773 105.991 318.947 105.1C319.12 104.208 319.983 103.627 320.874 103.8L320.879 103.802Z" fill="white"/>
<path d="M327.004 105.02L328.842 105.386C329.725 105.562 330.299 106.421 330.123 107.305C329.948 108.189 329.094 108.765 328.208 108.59L326.368 108.228C325.482 108.055 324.903 107.196 325.079 106.31C325.252 105.423 326.11 104.846 326.996 105.02H327.004Z" fill="white"/>
<path d="M333.13 106.238L334.968 106.602C335.846 106.775 336.42 107.629 336.244 108.51C336.071 109.389 335.22 109.964 334.342 109.79L332.501 109.431C331.62 109.261 331.044 108.404 331.217 107.523C331.39 106.641 332.244 106.064 333.125 106.238H333.13Z" fill="white"/>
<path d="M339.255 107.446L341.093 107.807C341.969 107.978 342.538 108.827 342.367 109.703C342.197 110.58 341.35 111.152 340.477 110.978L338.634 110.622C337.758 110.451 337.184 109.604 337.353 108.725C337.523 107.849 338.369 107.275 339.248 107.443L339.255 107.446Z" fill="white"/>
<path d="M345.378 108.644L347.216 109.001C348.087 109.169 348.656 110.011 348.49 110.882C348.322 111.753 347.483 112.325 346.613 112.157L344.77 111.805C343.896 111.64 343.325 110.798 343.491 109.924C343.656 109.05 344.497 108.478 345.371 108.644H345.378Z" fill="white"/>
<path d="M351.506 109.823L353.346 110.172C354.212 110.335 354.784 111.17 354.621 112.038C354.457 112.905 353.626 113.477 352.758 113.313L350.912 112.969C350.044 112.808 349.472 111.972 349.633 111.103C349.794 110.234 350.63 109.662 351.498 109.823H351.506Z" fill="white"/>
<path d="M357.636 110.971L359.477 111.31C360.34 111.469 360.912 112.296 360.754 113.16C360.595 114.024 359.771 114.595 358.908 114.437L357.06 114.103C356.197 113.947 355.623 113.117 355.778 112.253C355.934 111.389 356.763 110.815 357.626 110.971H357.636Z" fill="white"/>
<path d="M363.769 112.09L365.612 112.417H365.614C366.473 112.57 367.044 113.39 366.893 114.249C366.74 115.108 365.926 115.682 365.068 115.529L363.219 115.204C362.359 115.053 361.785 114.234 361.933 113.372C362.084 112.511 362.903 111.937 363.764 112.085L363.769 112.09Z" fill="white"/>
<path d="M369.909 113.174L371.752 113.493H371.755C372.603 113.639 373.172 114.449 373.024 115.296C372.878 116.14 372.079 116.707 371.235 116.568L369.382 116.264C368.529 116.123 367.95 115.315 368.091 114.461C368.232 113.607 369.039 113.028 369.892 113.169L369.904 113.172L369.909 113.174Z" fill="white"/>
<path d="M376.054 114.222L377.897 114.527H377.902C378.736 114.665 379.303 115.453 379.164 116.289C379.028 117.121 378.246 117.683 377.415 117.555L375.559 117.265C374.718 117.134 374.144 116.346 374.275 115.505C374.407 114.663 375.196 114.089 376.034 114.22L376.047 114.222H376.054Z" fill="white"/>
<path d="M382.203 115.217L384.049 115.505H384.054C384.875 115.633 385.439 116.403 385.31 117.225C385.184 118.042 384.42 118.604 383.603 118.485L381.745 118.213C380.919 118.092 380.345 117.322 380.466 116.495C380.588 115.668 381.357 115.094 382.183 115.215L382.196 115.217H382.203Z" fill="white"/>
<path d="M388.36 116.153L390.208 116.42H390.213C391.022 116.536 391.581 117.289 391.465 118.096C391.349 118.901 390.604 119.46 389.803 119.351L387.942 119.099C387.128 118.987 386.559 118.237 386.668 117.423C386.777 116.608 387.529 116.039 388.343 116.148L388.355 116.15L388.36 116.153Z" fill="white"/>
<path d="M394.524 117.019L396.374 117.264H396.379C397.173 117.371 397.732 118.101 397.628 118.896C397.522 119.688 396.8 120.245 396.008 120.146L394.145 119.913C393.344 119.814 392.777 119.084 392.876 118.282C392.975 117.48 393.705 116.913 394.506 117.012L394.519 117.014L394.524 117.019Z" fill="white"/>
<path d="M400.695 117.814L402.548 118.037H402.553C403.335 118.131 403.894 118.841 403.8 119.623C403.706 120.401 403.004 120.958 402.227 120.871L400.361 120.663C399.575 120.577 399.008 119.866 399.095 119.079C399.181 118.292 399.891 117.725 400.678 117.811L400.69 117.814H400.695Z" fill="white"/>
<path d="M406.875 118.525L408.731 118.723H408.736C409.505 118.805 410.062 119.495 409.98 120.263C409.898 121.028 409.215 121.582 408.451 121.508L406.581 121.325C405.806 121.248 405.24 120.56 405.317 119.785C405.393 119.01 406.081 118.443 406.855 118.52H406.868L406.875 118.525Z" fill="white"/>
<path d="M413.065 119.15L414.923 119.321H414.931C415.685 119.391 416.242 120.059 416.173 120.814C416.103 121.567 415.443 122.121 414.691 122.059L412.818 121.903C412.058 121.841 411.492 121.173 411.556 120.413C411.618 119.653 412.286 119.086 413.046 119.15H413.058H413.065Z" fill="white"/>
<path d="M419.258 119.678L421.113 119.809H421.126C421.868 119.861 422.427 120.505 422.375 121.248C422.323 121.985 421.685 122.545 420.95 122.498L419.07 122.381C418.323 122.334 417.754 121.693 417.801 120.946C417.848 120.198 418.488 119.629 419.235 119.676H419.248L419.258 119.678Z" fill="white"/>
<path d="M425.444 120.037L427.297 120.099H427.315C428.045 120.124 428.616 120.733 428.591 121.463C428.567 122.189 427.963 122.758 427.241 122.741L425.35 122.696C424.618 122.679 424.037 122.07 424.054 121.334C424.071 120.602 424.68 120.02 425.415 120.037H425.427H425.444Z" fill="white"/>
<path d="M431.62 120.134L433.468 120.094H433.493C434.207 120.079 434.799 120.646 434.814 121.362C434.828 122.072 434.267 122.661 433.559 122.684L431.664 122.738C430.947 122.758 430.346 122.193 430.326 121.473C430.304 120.755 430.87 120.153 431.59 120.134H431.6H431.62Z" fill="white"/>
<path d="M437.765 119.858L439.598 119.687L439.63 119.685C440.328 119.621 440.944 120.133 441.008 120.831C441.073 121.524 440.565 122.138 439.875 122.21L437.98 122.403C437.28 122.475 436.654 121.962 436.582 121.262C436.511 120.561 437.023 119.935 437.723 119.863H437.733L437.765 119.858Z" fill="white"/>
<path d="M443.848 119.106L445.652 118.769L445.689 118.762C446.362 118.636 447.01 119.081 447.136 119.755C447.262 120.425 446.822 121.069 446.154 121.2L444.279 121.567C443.601 121.698 442.945 121.257 442.814 120.579C442.683 119.901 443.123 119.245 443.801 119.113L443.811 119.111L443.848 119.106Z" fill="white"/>
<path d="M449.803 117.76L451.55 117.223L451.595 117.21C452.235 117.012 452.916 117.374 453.111 118.015C453.307 118.654 452.95 119.329 452.317 119.53L450.489 120.109C449.846 120.312 449.158 119.956 448.955 119.312C448.752 118.668 449.108 117.98 449.752 117.777L449.761 117.775L449.803 117.76Z" fill="white"/>
<path d="M455.528 115.71L457.183 114.947L457.23 114.925C457.826 114.65 458.531 114.91 458.806 115.507C459.078 116.098 458.823 116.801 458.234 117.079L456.495 117.901C455.899 118.183 455.187 117.925 454.905 117.329C454.622 116.732 454.88 116.019 455.476 115.737L455.486 115.732L455.528 115.71Z" fill="white"/>
<path d="M460.901 112.897L462.423 111.899L462.468 111.869C462.994 111.523 463.704 111.669 464.051 112.199C464.395 112.723 464.251 113.424 463.737 113.776L462.141 114.855C461.611 115.214 460.892 115.075 460.535 114.545C460.177 114.016 460.315 113.295 460.845 112.939C460.847 112.936 460.85 112.936 460.852 112.934L460.901 112.897Z" fill="white"/>
<path d="M465.783 109.3L467.138 108.08L467.175 108.047C467.628 107.641 468.323 107.676 468.729 108.129C469.132 108.577 469.1 109.265 468.66 109.674L467.25 110.981C466.799 111.399 466.094 111.372 465.676 110.922C465.258 110.471 465.285 109.766 465.736 109.347C465.738 109.345 465.74 109.342 465.743 109.34L465.783 109.3Z" fill="white"/>
<path d="M470.08 105.003L471.243 103.592L471.273 103.555C471.644 103.104 472.309 103.04 472.759 103.411C473.205 103.78 473.272 104.438 472.91 104.889L471.708 106.389C471.337 106.85 470.664 106.924 470.204 106.555C469.744 106.186 469.67 105.51 470.038 105.05C470.041 105.047 470.043 105.045 470.043 105.042L470.08 105.003Z" fill="white"/>
<path d="M473.709 100.111L474.654 98.544L474.677 98.5044C474.966 98.0241 475.589 97.8706 476.069 98.1603C476.544 98.4474 476.698 99.0639 476.421 99.5417L475.451 101.198C475.164 101.688 474.536 101.851 474.046 101.564C473.556 101.277 473.393 100.648 473.68 100.158C473.682 100.156 473.682 100.153 473.685 100.151L473.709 100.111Z" fill="white"/>
<path d="M476.589 94.7386L477.294 93.0503L477.312 93.0106C477.517 92.5155 478.086 92.2828 478.581 92.4883C479.071 92.6938 479.306 93.2533 479.108 93.7459L478.395 95.5259C478.192 96.0309 477.621 96.276 477.116 96.073C476.611 95.87 476.366 95.2981 476.569 94.7931C476.569 94.7906 476.572 94.7881 476.572 94.7857L476.589 94.7386Z" fill="white"/>
<path d="M478.63 88.9979L479.068 87.2204L479.078 87.1783C479.199 86.6807 479.701 86.3762 480.199 86.5C480.691 86.6213 480.993 87.1164 480.879 87.6091L480.446 89.4782C480.33 89.9832 479.823 90.3001 479.318 90.1813C478.813 90.0649 478.497 89.5574 478.615 89.0524C478.615 89.0499 478.615 89.0474 478.618 89.0449L478.63 88.9979Z" fill="white"/>
<path d="M479.758 83.0067L479.912 81.1822L479.914 81.1401C479.956 80.6524 480.382 80.2935 480.869 80.3331C481.351 80.3727 481.71 80.796 481.675 81.2763L481.542 83.185C481.507 83.6801 481.079 84.0514 480.584 84.0168C480.09 83.9821 479.719 83.5538 479.753 83.0587C479.753 83.0562 479.753 83.0538 479.753 83.0513L479.758 83.0067Z" fill="white"/>
<path d="M479.946 76.9018L479.822 75.0699L479.82 75.0327C479.788 74.5698 480.139 74.1687 480.602 74.1366C481.059 74.1068 481.458 74.451 481.495 74.9065L481.648 76.8127C481.685 77.2831 481.336 77.694 480.866 77.7336C480.396 77.7708 479.986 77.4217 479.946 76.9513C479.946 76.9489 479.946 76.9464 479.946 76.9439V76.9018Z" fill="white"/>
<path d="M479.223 70.8242L478.835 69.0269L478.828 68.9922C478.734 68.5615 479.008 68.1381 479.436 68.0465C479.862 67.9549 480.282 68.2223 480.379 68.6456L480.812 70.5073C480.913 70.943 480.641 71.3787 480.206 71.4802C479.77 71.5817 479.335 71.3094 479.233 70.8737C479.233 70.8712 479.233 70.8688 479.231 70.8663L479.223 70.8242Z" fill="white"/>
<path d="M477.63 64.9051L476.985 63.1796L476.972 63.1499C476.829 62.7686 477.024 62.3428 477.405 62.1992C477.781 62.0581 478.202 62.2463 478.35 62.6201L479.051 64.3951C479.204 64.7838 479.013 65.222 478.625 65.3754C478.237 65.5289 477.799 65.3383 477.645 64.9496C477.645 64.9472 477.643 64.9422 477.643 64.9397L477.63 64.9051Z" fill="white"/>
<path d="M475.186 59.2751L474.293 57.6635L474.278 57.6363C474.095 57.307 474.214 56.8936 474.543 56.7129C474.867 56.5321 475.275 56.646 475.461 56.9654L476.416 58.6141C476.609 58.9484 476.495 59.3742 476.164 59.5673C475.83 59.7604 475.404 59.6465 475.211 59.3147C475.209 59.3123 475.209 59.3098 475.206 59.3073L475.186 59.2751Z" fill="white"/>
<path d="M471.923 54.0787L471.001 52.8829L470.986 52.8631C470.775 52.5908 470.825 52.1972 471.097 51.9868C471.367 51.7788 471.753 51.8258 471.965 52.0907L472.943 53.3088C473.163 53.5835 473.121 53.9871 472.844 54.2074C472.569 54.4277 472.166 54.3856 471.946 54.1084C471.943 54.1059 471.941 54.1034 471.941 54.1009L471.923 54.0787Z" fill="white"/>
<path d="M160.123 32.4541C192.562 32.5383 353.03 32.5086 385.963 32.5036C389.214 32.5036 391.831 35.1699 391.774 38.4204L391.514 53.4499C391.46 56.6608 388.813 59.2206 385.602 59.1637L159.816 55.2472C156.608 55.1928 154.049 52.5438 154.106 49.3305L154.299 38.1679C154.354 34.9892 156.946 32.4442 160.123 32.4541Z" fill="#91B3FA"/>
<path d="M200.809 44.7383C200.753 48.0111 203.387 50.6922 206.658 50.6922L337.52 50.6897C341.273 50.6897 344.054 47.2041 343.225 43.5401L342.671 41.1016C342.057 38.3958 339.63 36.492 336.857 36.544L206.547 38.985C203.4 39.0469 200.864 41.5869 200.809 44.7383Z" fill="#BDD0FB"/>
<path d="M171.579 56.137L151.112 76.2787C150.254 77.1229 150.296 78.5216 151.204 79.3113L151.352 79.44C152.156 80.1406 153.376 80.0515 154.069 79.242L172.871 57.3327L171.579 56.137Z" fill="#3B009A"/>
<g opacity="0.28">
<path d="M192.525 40.08C195.521 46.6553 192.527 54.4609 185.835 57.5158C179.143 60.5708 171.291 57.7164 168.293 51.1411C165.297 44.5658 168.29 36.7602 174.982 33.7053C181.674 30.6503 189.526 33.5047 192.525 40.08Z" fill="#7D97F4"/>
</g>
<path d="M174.371 32.3632C166.927 35.7623 163.594 44.4468 166.929 51.7647C170.264 59.0802 179.002 62.2564 186.448 58.8574C193.895 55.4584 197.225 46.7739 193.89 39.4559C190.555 32.1404 181.815 28.9642 174.371 32.3632ZM185.56 56.9116C179.21 59.8105 171.753 57.1022 168.908 50.8611C166.063 44.6201 168.906 37.2105 175.259 34.3116C181.609 31.4126 189.066 34.1209 191.911 40.362C194.754 46.6006 191.911 54.0126 185.56 56.9116Z" fill="#3B009A"/>
<path d="M167.062 49.3535C166.948 49.3535 166.844 49.2767 166.815 49.1628C166.577 48.2295 166.439 47.269 166.402 46.3085C166.397 46.1673 166.505 46.051 166.646 46.0436C166.785 46.0361 166.906 46.1475 166.911 46.2886C166.946 47.2145 167.079 48.1379 167.309 49.0366C167.344 49.1728 167.262 49.3114 167.126 49.346C167.104 49.351 167.084 49.3535 167.062 49.3535Z" fill="#3B009A"/>
<path d="M154.787 73.7434C154.723 73.7434 154.658 73.7187 154.609 73.6716C154.507 73.5726 154.505 73.4117 154.604 73.3102L154.918 72.9859C155.015 72.8844 155.178 72.8819 155.279 72.981C155.381 73.08 155.383 73.2409 155.284 73.3424L154.97 73.6667C154.918 73.7162 154.854 73.7434 154.787 73.7434Z" fill="#3B009A"/>
<path d="M126.484 218.391C126.484 218.391 126.462 218.406 126.445 218.433L126.549 218.441C126.531 218.466 126.62 218.508 126.62 218.557V218.56L126.509 218.612C126.509 218.664 126.45 218.73 126.435 218.805L126.405 218.837C126.222 219.919 125.198 222.877 124.114 226.709C124.104 226.742 124.09 226.776 124.08 226.808C121.648 235.404 118.13 248.252 117.068 254.243C117.068 254.243 115.183 255.038 112.267 255.548H112.259C108.041 256.568 101.678 257.402 95.7554 255.85C95.7554 255.85 92.5739 229.898 96.4283 207.372C96.4283 207.372 106.544 204.869 117.462 204.181C117.519 204.179 117.573 204.174 117.63 204.171C118.511 204.122 119.394 204.09 120.28 204.09H120.982C121.081 204.09 121.175 204.09 121.274 204.09H121.292C121.744 204.09 122.561 204.458 123.516 204.862C123.543 204.872 123.6 204.879 123.6 204.892C123.6 204.892 123.607 204.862 123.61 204.862C123.61 204.862 123.775 204.961 123.847 204.993C123.956 205.038 124.067 205.097 124.184 205.154C124.208 205.169 124.236 205.186 124.26 205.196C124.27 205.204 124.285 205.209 124.295 205.216C124.369 205.256 124.446 205.295 124.527 205.332C124.545 205.34 124.56 205.347 124.572 205.355C124.664 205.399 124.755 205.449 124.849 205.498C124.864 205.506 124.79 205.513 124.805 205.523C124.913 205.58 125.054 205.639 125.166 205.699C125.267 205.751 125.344 205.808 125.351 205.867L125.366 205.776C125.418 205.803 125.475 205.835 125.527 205.867C125.529 205.867 125.537 205.87 125.542 205.875C126.123 206.216 126.709 206.612 127.254 207.075C127.256 207.078 127.256 207.083 127.261 207.085C127.269 207.095 127.278 207.11 127.286 207.12C129.733 211.187 130.871 217.847 126.484 218.391Z" fill="url(#paint41_linear_813_13560)"/>
<path d="M152.038 225.129C141.034 223.963 135.868 215.479 131.776 210.085C126.376 202.963 120.414 204.193 120.414 204.193L124.063 219.911C132.227 232.93 143.906 233.549 151.756 232.061C152.56 229.417 152.427 226.993 152.038 225.129Z" fill="#BDD0FB"/>
<path d="M168.566 222.679L164.563 223.657C159.684 225.128 155.563 225.504 152.037 225.13C152.426 226.997 152.559 229.418 151.758 232.062C156.755 231.114 160.201 229.314 160.201 229.314C169.392 226.635 168.566 222.679 168.566 222.679Z" fill="#BDD0FB"/>
<path d="M177.626 230.324C177.596 229.509 177.195 228.754 176.542 228.272L170.159 223.548C170.159 223.548 170.291 222.605 172.064 222.404C173.841 222.204 173.932 220.295 173.932 220.295C173.932 220.295 171.466 220.728 167.824 221.483C165.741 221.917 164.286 223.258 163.423 224.328L164.63 227.22C168.68 229.683 173.061 231.091 177.68 231.735L177.626 230.324Z" fill="url(#paint42_linear_813_13560)"/>
<path d="M121.402 204.11C121.362 204.107 121.327 204.107 121.292 204.107C121.282 204.105 121.274 204.105 121.264 204.1L121.402 204.11Z" fill="url(#paint43_linear_813_13560)"/>
<path d="M123.617 203.989L123.601 203.997V203.98C123.606 203.986 123.609 203.989 123.617 203.989Z" fill="url(#paint44_linear_813_13560)"/>
<path d="M117.161 326.583C117.161 326.583 116.589 329.819 116.31 333.022C116.201 334.275 117.166 335.362 118.42 335.414C122.683 335.592 131.802 335.936 135.075 335.79C135.567 335.768 135.889 335.265 135.705 334.807C135.552 334.424 135.258 334.114 134.884 333.941L119.82 327.014L117.161 326.583Z" fill="url(#paint45_linear_813_13560)"/>
<path d="M116.693 324.683L117.154 328.554C117.154 328.554 119.793 329.785 121.594 328.399L120.501 324.083L116.693 324.683Z" fill="url(#paint46_linear_813_13560)"/>
<path d="M117.04 251.906C116.842 252.916 115.976 302.352 121.255 324.504C121.342 324.866 121.159 325.239 120.815 325.378C120.006 325.71 118.418 326.187 116.515 326.252C115.926 326.272 115.397 325.888 115.231 325.324C113.722 320.184 106.488 294.43 105.546 269.83C104.492 242.341 105.546 268.894 105.546 268.894L106.164 251.901L117.04 251.906Z" fill="url(#paint47_linear_813_13560)"/>
<path d="M99.8326 328.272C99.8326 328.272 98.9222 329.906 98.044 334.248C97.8856 335.033 98.4324 335.783 99.229 335.86C100.637 335.998 102.804 336.177 104.541 336.164C105.34 336.159 105.966 335.461 105.869 334.667C105.676 333.082 105.077 330.483 103.227 328.455L99.8326 328.272Z" fill="url(#paint48_linear_813_13560)"/>
<path d="M99.0361 323.293L100.107 329.148C100.107 329.148 101.169 329.938 103.267 329.366L102.754 323.068L99.0361 323.293Z" fill="url(#paint49_linear_813_13560)"/>
<path d="M96.1364 253.424C91.8169 279.507 97.074 317.887 98.8454 325.401C98.9542 325.861 99.3253 326.213 99.7904 326.289C100.582 326.421 101.883 326.527 103.167 326.156C103.61 326.027 103.919 325.628 103.939 325.168C104.177 319.095 103.749 281.81 107.774 267.075C107.977 266.327 108.434 265.676 109.063 265.228L116.873 259.673L117.472 250.691L96.1364 253.424Z" fill="url(#paint50_linear_813_13560)"/>
<path d="M101.399 219.943L96.4337 207.402C96.4337 207.402 84.3435 215.621 82.3569 226.043C84.6404 226.212 88.7966 226.806 92.8663 228.863C93.7594 223.942 101.399 219.943 101.399 219.943Z" fill="url(#paint51_linear_813_13560)"/>
<path d="M110.547 193.489L106.428 205.406C106.359 205.604 106.441 205.822 106.624 205.924C107.747 206.545 111.792 208.34 116.666 205.248C117.173 204.926 117.519 204.401 117.596 203.804L118.929 193.491H110.547V193.489Z" fill="url(#paint52_linear_813_13560)"/>
<path d="M102.733 206.063L107.646 201.886L114.996 219.847L109.635 291.215L92.8963 291.715C92.7776 291.717 92.6638 291.673 92.5796 291.588C92.4955 291.504 92.451 291.39 92.4559 291.271L94.7938 222.612C94.7938 222.612 94.8582 207.776 96.4341 207.405C98.01 207.033 102.733 206.063 102.733 206.063Z" fill="url(#paint53_linear_813_13560)"/>
<path d="M126.529 218.441L126.621 218.557V218.56L126.51 218.612L126.435 218.805L126.45 218.837L125.092 233.008C125.092 233.01 125.092 233.01 125.092 233.015L119.202 292.138C119.187 292.257 119.122 292.363 119.031 292.437C118.939 292.507 118.816 292.539 118.699 292.522L109.635 291.215L112.265 255.726L112.267 255.674L114.988 218.924L117.455 204.167V204.159L117.838 201.886L120.278 204.028L120.317 204.03L121.015 204.07L121.302 204.085C121.752 204.204 123.593 204.899 123.593 204.899C123.593 204.909 124.236 205.186 124.545 205.335C124.563 205.342 124.568 205.35 124.58 205.357C124.671 205.402 124.758 205.451 124.852 205.501C124.867 205.508 125 205.516 125.015 205.526C125.206 205.632 125.597 205.746 125.597 205.87V205.877L126.487 218.394L126.51 218.436L126.529 218.441Z" fill="#BDD0FB"/>
<path d="M117.967 219.699V221.447L124.075 221.058V219.117L117.967 219.699Z" fill="url(#paint54_linear_813_13560)"/>
<path d="M114.601 223.979C114.573 223.979 114.544 223.972 114.519 223.959L108.871 220.924C108.821 220.897 108.789 220.85 108.779 220.796L108.005 215.582L105.944 215.216C105.88 215.203 105.825 215.156 105.808 215.094L103.629 208.009C103.601 207.917 103.651 207.818 103.745 207.789C103.839 207.759 103.935 207.813 103.965 207.905L106.112 214.886L108.19 215.255C108.265 215.268 108.322 215.327 108.334 215.401L109.113 220.652L114.685 223.645C114.771 223.692 114.801 223.799 114.756 223.883C114.724 223.945 114.665 223.979 114.601 223.979Z" fill="#BDD0FB"/>
<path d="M115.943 222.234C115.921 222.234 115.899 222.229 115.879 222.217C115.817 222.18 115.795 222.101 115.829 222.036L118.793 216.837L118.303 213.899C118.293 213.842 118.321 213.787 118.37 213.76L120.755 212.49L120.149 204.038C120.144 203.967 120.198 203.902 120.27 203.897C120.344 203.895 120.406 203.947 120.411 204.019L121.022 212.557C121.027 212.609 121 212.659 120.953 212.683L118.575 213.948L119.058 216.84C119.063 216.87 119.058 216.899 119.043 216.927L116.054 222.167C116.032 222.21 115.988 222.234 115.943 222.234Z" fill="#91B3FA"/>
<path d="M111.977 231.379C111.977 231.379 98.4051 239.056 93.8233 232.5C92.8733 231.138 92.6457 229.787 92.8782 228.497C88.8086 226.442 84.6523 225.846 82.3689 225.677C81.7702 228.819 82.0869 232.161 83.9324 235.538C91.9555 250.223 113.773 234.726 113.773 234.726L111.977 231.379Z" fill="url(#paint55_linear_813_13560)"/>
<path d="M110.347 241.088L117.754 215.201C117.838 214.906 118.088 214.693 118.392 214.656C119.733 214.5 123.622 214.059 128.112 213.678C133.52 213.22 139.802 212.849 143.555 213.166C144.089 213.21 144.411 213.775 144.173 214.255C142.038 218.575 133.258 236.152 128.862 241.91C128.716 242.101 128.491 242.212 128.251 242.21L111.064 242.049C110.567 242.051 110.208 241.571 110.347 241.088Z" fill="url(#paint56_linear_813_13560)"/>
<path d="M128.881 211.437L134.252 210.541C134.539 210.494 134.772 210.766 134.683 211.044L134.151 212.655C134.104 212.796 133.982 212.898 133.837 212.918L128.668 213.608C128.401 213.643 128.181 213.4 128.243 213.138L128.572 211.729C128.604 211.578 128.728 211.462 128.881 211.437Z" fill="url(#paint57_linear_813_13560)"/>
<path d="M124.862 215.987L125.305 213.68C125.349 213.45 125.54 213.274 125.775 213.249L136.623 212.148C136.989 212.11 137.281 212.445 137.194 212.804L136.504 215.678C136.45 215.908 136.249 216.074 136.012 216.086L125.411 216.621C125.067 216.636 124.795 216.326 124.862 215.987Z" fill="url(#paint58_linear_813_13560)"/>
<path d="M112.136 234.835C112.136 234.835 111.104 230.589 111.52 229.081C111.935 227.574 112.742 225.638 115.431 226.068C118.12 226.499 121.289 227.633 121.289 227.633C121.289 227.633 121.128 229.596 119.085 228.962L120.352 229.943C120.352 229.943 120.171 231.515 118.444 230.676L119.622 231.978C119.622 231.978 118.88 233.268 117.61 232.441C116.346 231.611 115.738 235.345 112.136 234.835Z" fill="url(#paint59_linear_813_13560)"/>
<path d="M99.2018 235.188C97.9401 235.188 96.7822 235.002 95.9015 234.517C95.8174 234.47 95.7852 234.364 95.8323 234.279C95.8793 234.195 95.9856 234.163 96.0698 234.21C99.6867 236.198 108.613 232.794 108.704 232.759C108.729 232.752 110.463 232.148 111.084 230.937C111.129 230.851 111.233 230.816 111.319 230.861C111.406 230.905 111.44 231.012 111.396 231.096C110.711 232.435 108.902 233.061 108.825 233.089C108.543 233.198 103.321 235.188 99.2018 235.188Z" fill="#BDD0FB"/>
<path d="M94.3061 241.79C94.2121 241.79 94.1354 241.835 94.1304 241.738C94.128 241.642 94.2022 241.62 94.2987 241.617C104.608 241.263 110.473 236.569 110.533 236.522C110.607 236.46 110.718 236.488 110.78 236.562C110.842 236.636 110.83 236.636 110.755 236.698C110.696 236.748 104.736 241.79 94.311 241.79C94.3086 241.79 94.3086 241.79 94.3061 241.79Z" fill="#BDD0FB"/>
<path d="M121.421 182.192C121.421 182.192 123.408 189.421 123.096 193.021C122.784 196.62 123.222 199.049 118.992 199.175C114.761 199.304 111.58 196.749 110.207 192.922C110.207 192.922 108.039 187.017 109.022 184.868C110.006 182.717 121.421 182.192 121.421 182.192Z" fill="url(#paint60_linear_813_13560)"/>
<path d="M104.566 182.593C105.466 182.031 106.052 182.227 106.396 182.509C106.493 182.588 106.612 182.591 106.708 182.544C106.718 182.437 107.401 175.048 117.465 176.347C118.511 176.484 119.536 175.971 120.055 175.053C121.245 172.956 123.504 169.871 125.208 172.884C127.633 177.169 128.353 182.791 121.485 183.957C121.079 184.027 120.669 184.081 120.258 184.126C117.423 184.826 114.194 185.047 112.997 185.349C110.998 185.854 112.524 190.508 112.524 190.508L112.002 190.434L110.892 190.275C110.731 190.253 110.572 190.434 110.56 190.597L110.303 193.778C110.293 193.914 110.184 194.038 110.045 194.053C109.538 194.108 108.22 194.058 106.191 192.57C104.209 191.114 105.159 190.377 105.768 190.095C105.941 190.015 105.973 189.79 105.845 189.649C103.136 186.7 103 183.569 104.566 182.593Z" fill="url(#paint61_linear_813_13560)"/>
<path d="M112.017 191.236C112.017 191.236 111.51 186.728 109.387 187.669C107.264 188.609 109.701 192.684 111.242 193.07L112.017 191.236Z" fill="url(#paint62_linear_813_13560)"/>
<path d="M123.266 182.596C123.232 182.591 123.199 182.574 123.177 182.544C123.13 182.485 123.14 182.396 123.199 182.349C124.647 181.205 125.441 179.88 125.562 178.412C125.772 175.862 123.853 173.719 123.833 173.696C123.781 173.639 123.786 173.55 123.843 173.498C123.9 173.446 123.989 173.451 124.041 173.508C124.122 173.6 126.059 175.761 125.842 178.435C125.715 179.982 124.884 181.373 123.375 182.569C123.343 182.594 123.303 182.604 123.266 182.596Z" fill="#91B3FA"/>
</g>
<defs>
<linearGradient id="paint0_linear_813_13560" x1="309.851" y1="295.488" x2="217.841" y2="19.6449" gradientUnits="userSpaceOnUse">
<stop stop-color="#786FCB"/>
<stop offset="1" stop-color="#4B41B1"/>
</linearGradient>
<linearGradient id="paint1_linear_813_13560" x1="485.623" y1="-0.766799" x2="170.75" y2="276.292" gradientUnits="userSpaceOnUse">
<stop stop-color="#4042E2"/>
<stop offset="1" stop-color="#4F52FF"/>
</linearGradient>
<linearGradient id="paint2_linear_813_13560" x1="271.232" y1="175.051" x2="270.489" y2="300.576" gradientUnits="userSpaceOnUse">
<stop stop-color="#09005D"/>
<stop offset="1" stop-color="#1A0F91"/>
</linearGradient>
<linearGradient id="paint3_linear_813_13560" x1="291.189" y1="175.883" x2="279.413" y2="187.184" gradientUnits="userSpaceOnUse">
<stop stop-color="#53D8FF"/>
<stop offset="1" stop-color="#3840F7"/>
</linearGradient>
<linearGradient id="paint4_linear_813_13560" x1="291.189" y1="199.089" x2="279.413" y2="210.391" gradientUnits="userSpaceOnUse">
<stop stop-color="#53D8FF"/>
<stop offset="1" stop-color="#3840F7"/>
</linearGradient>
<linearGradient id="paint5_linear_813_13560" x1="291.189" y1="222.296" x2="279.413" y2="233.597" gradientUnits="userSpaceOnUse">
<stop stop-color="#53D8FF"/>
<stop offset="1" stop-color="#3840F7"/>
</linearGradient>
<linearGradient id="paint6_linear_813_13560" x1="192.435" y1="210.509" x2="300.117" y2="106.982" gradientUnits="userSpaceOnUse">
<stop stop-color="#FE7062"/>
<stop offset="1" stop-color="#FF928E"/>
</linearGradient>
<linearGradient id="paint7_linear_813_13560" x1="235.712" y1="8.92993" x2="194.095" y2="138.897" gradientUnits="userSpaceOnUse">
<stop stop-color="#E1473D"/>
<stop offset="1" stop-color="#E9605A"/>
</linearGradient>
<linearGradient id="paint8_linear_813_13560" x1="210.81" y1="220.418" x2="225.683" y2="226.857" gradientUnits="userSpaceOnUse">
<stop stop-color="#E1473D"/>
<stop offset="1" stop-color="#E9605A"/>
</linearGradient>
<linearGradient id="paint9_linear_813_13560" x1="205.765" y1="231.14" x2="225.68" y2="231.14" gradientUnits="userSpaceOnUse">
<stop stop-color="#4042E2"/>
<stop offset="1" stop-color="#4F52FF"/>
</linearGradient>
<linearGradient id="paint10_linear_813_13560" x1="153.98" y1="199.518" x2="168.853" y2="205.956" gradientUnits="userSpaceOnUse">
<stop stop-color="#E1473D"/>
<stop offset="1" stop-color="#E9605A"/>
</linearGradient>
<linearGradient id="paint11_linear_813_13560" x1="148.934" y1="210.24" x2="168.85" y2="210.24" gradientUnits="userSpaceOnUse">
<stop stop-color="#4042E2"/>
<stop offset="1" stop-color="#4F52FF"/>
</linearGradient>
<linearGradient id="paint12_linear_813_13560" x1="195.223" y1="181.746" x2="195.666" y2="197.955" gradientUnits="userSpaceOnUse">
<stop stop-color="#E1473D"/>
<stop offset="1" stop-color="#E9605A"/>
</linearGradient>
<linearGradient id="paint13_linear_813_13560" x1="176.336" y1="190.003" x2="195.666" y2="190.003" gradientUnits="userSpaceOnUse">
<stop stop-color="#4042E2"/>
<stop offset="1" stop-color="#4F52FF"/>
</linearGradient>
<linearGradient id="paint14_linear_813_13560" x1="195.709" y1="239.101" x2="196.152" y2="255.31" gradientUnits="userSpaceOnUse">
<stop stop-color="#E1473D"/>
<stop offset="1" stop-color="#E9605A"/>
</linearGradient>
<linearGradient id="paint15_linear_813_13560" x1="176.822" y1="247.358" x2="196.151" y2="247.358" gradientUnits="userSpaceOnUse">
<stop stop-color="#4042E2"/>
<stop offset="1" stop-color="#4F52FF"/>
</linearGradient>
<linearGradient id="paint16_linear_813_13560" x1="235.113" y1="240.674" x2="221.829" y2="231.387" gradientUnits="userSpaceOnUse">
<stop stop-color="#E1473D"/>
<stop offset="1" stop-color="#E9605A"/>
</linearGradient>
<linearGradient id="paint17_linear_813_13560" x1="221.835" y1="229.782" x2="242.889" y2="229.782" gradientUnits="userSpaceOnUse">
<stop stop-color="#4042E2"/>
<stop offset="1" stop-color="#4F52FF"/>
</linearGradient>
<linearGradient id="paint18_linear_813_13560" x1="192.971" y1="217.813" x2="198.897" y2="202.72" gradientUnits="userSpaceOnUse">
<stop stop-color="#E1473D"/>
<stop offset="1" stop-color="#E9605A"/>
</linearGradient>
<linearGradient id="paint19_linear_813_13560" x1="192.97" y1="212.56" x2="214.284" y2="212.56" gradientUnits="userSpaceOnUse">
<stop stop-color="#4042E2"/>
<stop offset="1" stop-color="#4F52FF"/>
</linearGradient>
<linearGradient id="paint20_linear_813_13560" x1="181.13" y1="223.919" x2="174.446" y2="238.692" gradientUnits="userSpaceOnUse">
<stop stop-color="#E1473D"/>
<stop offset="1" stop-color="#E9605A"/>
</linearGradient>
<linearGradient id="paint21_linear_813_13560" x1="159.655" y1="228.678" x2="181.13" y2="228.678" gradientUnits="userSpaceOnUse">
<stop stop-color="#4042E2"/>
<stop offset="1" stop-color="#4F52FF"/>
</linearGradient>
<linearGradient id="paint22_linear_813_13560" x1="200.718" y1="215.93" x2="199.551" y2="232.104" gradientUnits="userSpaceOnUse">
<stop stop-color="#E1473D"/>
<stop offset="1" stop-color="#E9605A"/>
</linearGradient>
<linearGradient id="paint23_linear_813_13560" x1="181.051" y1="223.609" x2="200.718" y2="223.609" gradientUnits="userSpaceOnUse">
<stop stop-color="#4042E2"/>
<stop offset="1" stop-color="#4F52FF"/>
</linearGradient>
<linearGradient id="paint24_linear_813_13560" x1="170.094" y1="237.222" x2="156.342" y2="245.798" gradientUnits="userSpaceOnUse">
<stop stop-color="#E1473D"/>
<stop offset="1" stop-color="#E9605A"/>
</linearGradient>
<linearGradient id="paint25_linear_813_13560" x1="149.288" y1="234.932" x2="170.094" y2="234.932" gradientUnits="userSpaceOnUse">
<stop stop-color="#4042E2"/>
<stop offset="1" stop-color="#4F52FF"/>
</linearGradient>
<linearGradient id="paint26_linear_813_13560" x1="235.304" y1="194.168" x2="221.305" y2="202.336" gradientUnits="userSpaceOnUse">
<stop stop-color="#E1473D"/>
<stop offset="1" stop-color="#E9605A"/>
</linearGradient>
<linearGradient id="paint27_linear_813_13560" x1="214.652" y1="191.488" x2="235.304" y2="191.488" gradientUnits="userSpaceOnUse">
<stop stop-color="#4042E2"/>
<stop offset="1" stop-color="#4F52FF"/>
</linearGradient>
<linearGradient id="paint28_linear_813_13560" x1="190.789" y1="40.0324" x2="126.138" y2="197.467" gradientUnits="userSpaceOnUse">
<stop stop-color="#FE7062"/>
<stop offset="1" stop-color="#FF928E"/>
</linearGradient>
<linearGradient id="paint29_linear_813_13560" x1="196.89" y1="42.5374" x2="132.239" y2="199.972" gradientUnits="userSpaceOnUse">
<stop stop-color="#FE7062"/>
<stop offset="1" stop-color="#FF928E"/>
</linearGradient>
<linearGradient id="paint30_linear_813_13560" x1="202.991" y1="45.0427" x2="138.339" y2="202.477" gradientUnits="userSpaceOnUse">
<stop stop-color="#FE7062"/>
<stop offset="1" stop-color="#FF928E"/>
</linearGradient>
<linearGradient id="paint31_linear_813_13560" x1="209.091" y1="47.5478" x2="144.44" y2="204.982" gradientUnits="userSpaceOnUse">
<stop stop-color="#FE7062"/>
<stop offset="1" stop-color="#FF928E"/>
</linearGradient>
<linearGradient id="paint32_linear_813_13560" x1="215.628" y1="50.2319" x2="150.977" y2="207.666" gradientUnits="userSpaceOnUse">
<stop stop-color="#FE7062"/>
<stop offset="1" stop-color="#FF928E"/>
</linearGradient>
<linearGradient id="paint33_linear_813_13560" x1="221.728" y1="52.7372" x2="157.077" y2="210.172" gradientUnits="userSpaceOnUse">
<stop stop-color="#FE7062"/>
<stop offset="1" stop-color="#FF928E"/>
</linearGradient>
<linearGradient id="paint34_linear_813_13560" x1="227.828" y1="55.2423" x2="163.177" y2="212.677" gradientUnits="userSpaceOnUse">
<stop stop-color="#FE7062"/>
<stop offset="1" stop-color="#FF928E"/>
</linearGradient>
<linearGradient id="paint35_linear_813_13560" x1="233.93" y1="57.7476" x2="169.279" y2="215.182" gradientUnits="userSpaceOnUse">
<stop stop-color="#FE7062"/>
<stop offset="1" stop-color="#FF928E"/>
</linearGradient>
<linearGradient id="paint36_linear_813_13560" x1="240.466" y1="60.4317" x2="175.815" y2="217.866" gradientUnits="userSpaceOnUse">
<stop stop-color="#FE7062"/>
<stop offset="1" stop-color="#FF928E"/>
</linearGradient>
<linearGradient id="paint37_linear_813_13560" x1="246.566" y1="62.937" x2="181.915" y2="220.371" gradientUnits="userSpaceOnUse">
<stop stop-color="#FE7062"/>
<stop offset="1" stop-color="#FF928E"/>
</linearGradient>
<linearGradient id="paint38_linear_813_13560" x1="252.666" y1="65.4421" x2="188.015" y2="222.877" gradientUnits="userSpaceOnUse">
<stop stop-color="#FE7062"/>
<stop offset="1" stop-color="#FF928E"/>
</linearGradient>
<linearGradient id="paint39_linear_813_13560" x1="259.203" y1="68.1262" x2="194.552" y2="225.561" gradientUnits="userSpaceOnUse">
<stop stop-color="#FE7062"/>
<stop offset="1" stop-color="#FF928E"/>
</linearGradient>
<linearGradient id="paint40_linear_813_13560" x1="265.303" y1="70.6315" x2="200.652" y2="228.067" gradientUnits="userSpaceOnUse">
<stop stop-color="#FE7062"/>
<stop offset="1" stop-color="#FF928E"/>
</linearGradient>
<linearGradient id="paint41_linear_813_13560" x1="94.5221" y1="230.398" x2="129.45" y2="230.398" gradientUnits="userSpaceOnUse">
<stop stop-color="#09005D"/>
<stop offset="1" stop-color="#1A0F91"/>
</linearGradient>
<linearGradient id="paint42_linear_813_13560" x1="179.706" y1="198.054" x2="176.982" y2="206.965" gradientUnits="userSpaceOnUse">
<stop stop-color="#FF928E"/>
<stop offset="1" stop-color="#FEB3B1"/>
</linearGradient>
<linearGradient id="paint43_linear_813_13560" x1="121.264" y1="204.104" x2="121.402" y2="204.104" gradientUnits="userSpaceOnUse">
<stop stop-color="#09005D"/>
<stop offset="1" stop-color="#1A0F91"/>
</linearGradient>
<linearGradient id="paint44_linear_813_13560" x1="123.592" y1="204.013" x2="123.575" y2="204.041" gradientUnits="userSpaceOnUse">
<stop stop-color="#53EAC9"/>
<stop offset="0.9964" stop-color="#45AED8"/>
</linearGradient>
<linearGradient id="paint45_linear_813_13560" x1="134.599" y1="322.11" x2="79.3965" y2="382.114" gradientUnits="userSpaceOnUse">
<stop stop-color="#09005D"/>
<stop offset="1" stop-color="#1A0F91"/>
</linearGradient>
<linearGradient id="paint46_linear_813_13560" x1="116.694" y1="326.57" x2="121.594" y2="326.57" gradientUnits="userSpaceOnUse">
<stop stop-color="#FF928E"/>
<stop offset="1" stop-color="#FEB3B1"/>
</linearGradient>
<linearGradient id="paint47_linear_813_13560" x1="97.9673" y1="317.011" x2="128.181" y2="262.193" gradientUnits="userSpaceOnUse">
<stop stop-color="#09005D"/>
<stop offset="1" stop-color="#1A0F91"/>
</linearGradient>
<linearGradient id="paint48_linear_813_13560" x1="122.223" y1="310.726" x2="67.0212" y2="370.73" gradientUnits="userSpaceOnUse">
<stop stop-color="#09005D"/>
<stop offset="1" stop-color="#1A0F91"/>
</linearGradient>
<linearGradient id="paint49_linear_813_13560" x1="99.0349" y1="326.318" x2="103.265" y2="326.318" gradientUnits="userSpaceOnUse">
<stop stop-color="#FF928E"/>
<stop offset="1" stop-color="#FEB3B1"/>
</linearGradient>
<linearGradient id="paint50_linear_813_13560" x1="87.902" y1="311.464" x2="118.116" y2="256.646" gradientUnits="userSpaceOnUse">
<stop stop-color="#09005D"/>
<stop offset="1" stop-color="#1A0F91"/>
</linearGradient>
<linearGradient id="paint51_linear_813_13560" x1="77.7756" y1="230.283" x2="154.909" y2="174.811" gradientUnits="userSpaceOnUse">
<stop stop-color="#DAE3FE"/>
<stop offset="1" stop-color="#E9EFFD"/>
</linearGradient>
<linearGradient id="paint52_linear_813_13560" x1="116.34" y1="188.49" x2="109.032" y2="215.72" gradientUnits="userSpaceOnUse">
<stop stop-color="#FF928E"/>
<stop offset="1" stop-color="#FEB3B1"/>
</linearGradient>
<linearGradient id="paint53_linear_813_13560" x1="92.4577" y1="246.799" x2="114.997" y2="246.799" gradientUnits="userSpaceOnUse">
<stop stop-color="#DAE3FE"/>
<stop offset="1" stop-color="#E9EFFD"/>
</linearGradient>
<linearGradient id="paint54_linear_813_13560" x1="117.079" y1="223.218" x2="138.926" y2="207.506" gradientUnits="userSpaceOnUse">
<stop stop-color="#9CFFFB"/>
<stop offset="1" stop-color="#9BFFFA"/>
</linearGradient>
<linearGradient id="paint55_linear_813_13560" x1="82.0958" y1="233.769" x2="113.774" y2="233.769" gradientUnits="userSpaceOnUse">
<stop stop-color="#DAE3FE"/>
<stop offset="1" stop-color="#E9EFFD"/>
</linearGradient>
<linearGradient id="paint56_linear_813_13560" x1="156.037" y1="165.012" x2="142.416" y2="191.989" gradientUnits="userSpaceOnUse">
<stop stop-color="#09005D"/>
<stop offset="1" stop-color="#1A0F91"/>
</linearGradient>
<linearGradient id="paint57_linear_813_13560" x1="134.263" y1="199.783" x2="130.548" y2="216.084" gradientUnits="userSpaceOnUse">
<stop stop-color="#4042E2"/>
<stop offset="1" stop-color="#4F52FF"/>
</linearGradient>
<linearGradient id="paint58_linear_813_13560" x1="132.322" y1="206.621" x2="130.545" y2="217.273" gradientUnits="userSpaceOnUse">
<stop stop-color="#4042E2"/>
<stop offset="1" stop-color="#4F52FF"/>
</linearGradient>
<linearGradient id="paint59_linear_813_13560" x1="111.422" y1="230.445" x2="121.291" y2="230.445" gradientUnits="userSpaceOnUse">
<stop stop-color="#FF928E"/>
<stop offset="1" stop-color="#FEB3B1"/>
</linearGradient>
<linearGradient id="paint60_linear_813_13560" x1="157.892" y1="468.014" x2="154.238" y2="443.734" gradientUnits="userSpaceOnUse">
<stop stop-color="#FF928E"/>
<stop offset="1" stop-color="#FEB3B1"/>
</linearGradient>
<linearGradient id="paint61_linear_813_13560" x1="127.107" y1="170.652" x2="90.5164" y2="205.985" gradientUnits="userSpaceOnUse">
<stop stop-color="#09005D"/>
<stop offset="1" stop-color="#1A0F91"/>
</linearGradient>
<linearGradient id="paint62_linear_813_13560" x1="152.166" y1="468.875" x2="148.512" y2="444.595" gradientUnits="userSpaceOnUse">
<stop stop-color="#FF928E"/>
<stop offset="1" stop-color="#FEB3B1"/>
</linearGradient>
<clipPath id="clip0_813_13560">
<rect width="552" height="368.249" fill="white"/>
</clipPath>
</defs>
</svg>
