<svg width="552" height="334" viewBox="0 0 552 334" fill="none" xmlns="http://www.w3.org/2000/svg">
<path d="M463.571 321.568C463.571 321.568 464.268 325.511 464.609 329.415C464.743 330.94 463.565 332.267 462.035 332.33C456.836 332.548 445.712 332.966 441.722 332.789C441.123 332.763 440.731 332.147 440.951 331.591C441.138 331.123 441.496 330.745 441.954 330.536L460.327 322.092L463.571 321.568Z" fill="url(#paint0_linear_813_12345)"/>
<path d="M464.141 319.252L463.583 323.969C463.583 323.969 460.364 325.468 458.166 323.78L459.498 318.524L464.141 319.252Z" fill="url(#paint1_linear_813_12345)"/>
<path d="M463.72 230.552C463.961 231.784 465.018 292.034 458.578 319.036C458.472 319.478 458.695 319.93 459.117 320.102C460.106 320.507 462.04 321.091 464.362 321.169C465.081 321.192 465.726 320.724 465.927 320.036C467.767 313.771 476.589 282.384 477.741 252.401C479.028 218.898 477.741 251.26 477.741 251.26L476.987 230.549L463.72 230.552Z" fill="url(#paint2_linear_813_12345)"/>
<path d="M484.704 323.625C484.704 323.625 485.813 325.617 486.887 330.908C487.082 331.863 486.415 332.78 485.443 332.874C483.726 333.043 481.084 333.261 478.965 333.247C477.988 333.241 477.228 332.39 477.346 331.421C477.581 329.489 478.312 326.322 480.568 323.852L484.704 323.625Z" fill="url(#paint3_linear_813_12345)"/>
<path d="M485.678 317.558L484.371 324.692C484.371 324.692 483.078 325.655 480.519 324.955L481.143 317.28L485.678 317.558Z" fill="url(#paint4_linear_813_12345)"/>
<path d="M489.211 232.401C494.479 264.19 488.068 310.968 485.907 320.126C485.775 320.688 485.322 321.115 484.755 321.209C483.789 321.37 482.201 321.499 480.636 321.046C480.097 320.888 479.716 320.404 479.696 319.842C479.406 312.439 479.928 266.996 475.021 249.036C474.772 248.125 474.216 247.334 473.447 246.786L463.92 240.014L463.189 229.068L489.211 232.401Z" fill="url(#paint5_linear_813_12345)"/>
<path d="M455.649 172.169C471.433 171.908 488.85 176.313 488.85 176.313C493.557 203.768 489.673 235.437 489.673 235.437C477.452 238.641 463.668 233.476 463.668 233.476C461.636 222 452.161 189.704 452.161 189.704C444.448 188.747 446.124 182.418 440.891 179.475C444.881 174.849 438.735 177.093 439.552 173.613C445.133 175.347 450.779 172.249 455.649 172.169Z" fill="url(#paint6_linear_813_12345)"/>
<path d="M409.022 148.918C410.573 147.046 412.536 147.932 412.536 147.932C414.857 157.746 427.039 165.699 439.552 169.589C438.736 173.068 436.852 178.955 432.863 183.581C412.095 171.905 409.022 148.918 409.022 148.918Z" fill="#91B3FA"/>
<path d="M409.398 149.394C409.234 149.91 411.114 150.695 412.221 148.585C412.258 147.574 412.874 143.243 412.269 142.42C409.051 138.032 402.814 132.535 402.814 132.535C401.759 133.575 402.628 134.598 402.628 134.598L405.654 137.751C405.021 138.895 404.25 139.861 403.886 141.245C403.611 142.294 403.78 143.412 404.31 144.366C404.84 145.324 405.566 146.568 406.251 147.542C407.549 149.379 409.398 149.394 409.398 149.394Z" fill="url(#paint7_linear_813_12345)"/>
<path d="M406.979 139.792L409.736 142.131L410.601 144.458L408.142 147.186C408.142 147.186 407.317 142.569 406.701 141.569C406.087 140.568 406.405 140.084 406.979 139.792Z" fill="url(#paint8_linear_813_12345)"/>
<path d="M482.797 191.598L488.851 176.313C488.851 176.313 503.594 186.33 506.019 199.033C503.233 199.239 498.163 199.962 493.202 202.469C492.112 196.471 482.797 191.598 482.797 191.598Z" fill="#91B3FA"/>
<path d="M471.637 159.354L476.658 173.88C476.741 174.12 476.644 174.387 476.42 174.51C475.05 175.267 470.118 177.457 464.173 173.688C463.554 173.295 463.133 172.656 463.038 171.928L461.413 159.357H471.637V159.354Z" fill="url(#paint9_linear_813_12345)"/>
<path d="M481.169 174.676L475.176 169.586L466.211 191.475L472.749 278.457L493.161 279.068C493.305 279.073 493.445 279.016 493.548 278.913C493.652 278.81 493.706 278.669 493.7 278.526L490.851 194.845C490.851 194.845 490.774 176.763 488.851 176.31C486.928 175.857 481.169 174.676 481.169 174.676Z" fill="#7D97F4"/>
<path d="M466.211 190.355L462.74 169.589L459.768 172.2L453.503 172.14L452.161 189.704L461.101 279.587C461.115 279.73 461.187 279.859 461.298 279.948C461.41 280.037 461.554 280.074 461.694 280.054L472.749 278.461L466.211 190.355Z" fill="#91B3FA"/>
<path d="M454.325 172.163C454.325 172.163 444.256 171.469 438.444 169.231C431.616 181.363 429.842 181.719 429.842 181.719C429.842 181.719 438.111 189.053 452.161 189.704C466.211 190.354 454.325 172.163 454.325 172.163Z" fill="#91B3FA"/>
<path d="M462.049 191.3V193.427L454.709 192.954V190.589L462.049 191.3Z" fill="url(#paint10_linear_813_12345)"/>
<path d="M466.695 196.619C466.747 196.619 466.798 196.608 466.847 196.582L473.735 192.882C473.823 192.833 473.886 192.747 473.901 192.647L474.832 186.37L477.269 185.937C477.386 185.917 477.484 185.831 477.521 185.717L480.178 177.084C480.229 176.915 480.135 176.734 479.966 176.682C479.797 176.631 479.616 176.725 479.564 176.895L476.965 185.341L474.494 185.78C474.359 185.803 474.253 185.911 474.233 186.049L473.29 192.395L466.543 196.018C466.386 196.101 466.328 196.296 466.412 196.453C466.469 196.559 466.581 196.619 466.695 196.619Z" fill="#91B3FA"/>
<path d="M465.059 194.467C465.099 194.467 465.139 194.459 465.179 194.436C465.294 194.37 465.334 194.224 465.268 194.106L461.668 187.795L462.262 184.241C462.279 184.138 462.227 184.038 462.138 183.989L459.275 182.467L460.012 172.217C460.02 172.086 459.92 171.968 459.788 171.959C459.653 171.954 459.539 172.051 459.53 172.183L458.782 182.59C458.776 182.685 458.825 182.776 458.908 182.819L461.754 184.336L461.175 187.801C461.167 187.855 461.175 187.913 461.204 187.958L464.847 194.344C464.893 194.425 464.976 194.467 465.059 194.467Z" fill="#BDD0FB"/>
<path d="M469.894 205.533C469.894 205.533 486.449 214.888 492.032 206.9C493.193 205.241 493.468 203.593 493.184 202.022C498.146 199.517 503.216 198.792 506.002 198.585C506.733 202.415 506.346 206.487 504.096 210.603C494.311 228.502 467.701 209.614 467.701 209.614L469.894 205.533Z" fill="#91B3FA"/>
<path d="M471.883 217.368L462.848 185.817C462.745 185.459 462.441 185.198 462.072 185.155C460.435 184.963 455.692 184.427 450.214 183.965C443.616 183.406 435.958 182.956 431.381 183.341C430.73 183.395 430.337 184.083 430.627 184.67C433.229 189.938 443.937 211.36 449.3 218.377C449.478 218.609 449.753 218.746 450.045 218.743L471.008 218.549C471.613 218.54 472.049 217.955 471.883 217.368Z" fill="url(#paint11_linear_813_12345)"/>
<path d="M449.275 181.228L442.725 180.136C442.376 180.078 442.092 180.411 442.201 180.746L442.849 182.712C442.906 182.884 443.055 183.008 443.233 183.031L449.535 183.873C449.862 183.916 450.132 183.621 450.054 183.3L449.653 181.583C449.613 181.4 449.464 181.259 449.275 181.228Z" fill="url(#paint12_linear_813_12345)"/>
<path d="M454.181 186.774L453.642 183.962C453.588 183.681 453.356 183.466 453.069 183.438L439.839 182.096C439.395 182.051 439.036 182.46 439.142 182.893L439.985 186.396C440.051 186.677 440.297 186.877 440.584 186.892L453.513 187.542C453.929 187.565 454.258 187.187 454.181 186.774Z" fill="url(#paint13_linear_813_12345)"/>
<path d="M469.698 209.744C469.698 209.744 470.957 204.567 470.449 202.733C469.942 200.896 468.959 198.537 465.68 199.061C462.401 199.586 458.535 200.967 458.535 200.967C458.535 200.967 458.73 203.358 461.223 202.587L459.678 203.782C459.678 203.782 459.899 205.696 462.003 204.673L460.567 206.258C460.567 206.258 461.47 207.832 463.02 206.823C464.565 205.817 465.307 210.368 469.698 209.744Z" fill="url(#paint14_linear_813_12345)"/>
<path d="M485.48 210.283C487.036 210.283 488.464 210.054 489.553 209.455C489.708 209.369 489.765 209.174 489.679 209.019C489.593 208.864 489.398 208.807 489.243 208.893C484.875 211.292 474.035 207.162 473.926 207.119C473.895 207.107 471.817 206.385 471.083 204.949C471.003 204.791 470.808 204.728 470.65 204.809C470.493 204.889 470.43 205.084 470.51 205.241C471.364 206.912 473.611 207.689 473.709 207.724C474.047 207.853 480.427 210.283 485.48 210.283Z" fill="#BDD0FB"/>
<path d="M491.447 218.738C491.619 218.738 491.763 218.543 491.768 218.368C491.774 218.19 491.637 218.012 491.459 218.007C478.937 217.577 471.794 211.827 471.725 211.77C471.588 211.658 471.387 211.67 471.272 211.807C471.161 211.945 471.181 212.203 471.318 212.315C471.39 212.375 478.687 218.124 491.439 218.738C491.439 218.738 491.444 218.738 491.447 218.738Z" fill="#BDD0FB"/>
<path d="M459.8 143.111C459.636 143.338 454.543 161.096 454.543 161.096L464.744 163.791L472.072 147.677C472.072 147.677 462.534 139.316 459.8 143.111Z" fill="url(#paint15_linear_813_12345)"/>
<path d="M468.022 148.87C468.272 149.268 468.323 149.755 468.163 150.199L465.016 158.855C464.967 158.987 464.904 159.11 464.824 159.222C464.371 159.844 462.766 161.713 460.906 159.956C459.321 158.46 457.842 157.104 456.46 156.694C455.655 156.456 454.809 156.935 454.58 157.743C454.107 159.411 453.224 162.796 452.86 165.912C452.769 166.694 453.302 167.411 454.076 167.56C456.113 167.958 460.115 168.617 463.514 168.434C464.073 168.402 464.566 168.07 464.804 167.563C465.85 165.333 468.808 159.099 469.914 157.468C470.943 155.952 473.385 155.975 474.503 156.072C474.927 156.109 475.345 155.972 475.661 155.685C476.609 154.828 478.171 152.853 475.927 150.457C475.368 149.861 475.411 148.915 475.996 148.345C477.042 147.322 478.057 145.588 476.351 143.43C474.623 141.246 472.339 141.46 470.848 141.945C470.189 142.16 469.433 141.936 469.051 141.357C468.882 141.099 468.607 140.904 468.166 140.902C467.335 140.893 466.667 140.265 466.667 139.431C466.67 138.004 466.119 136.258 463.692 135.479C459.238 134.046 456.412 138.336 456.105 141.552C455.798 144.771 460.717 146.049 463.617 145.857C465.752 145.722 467.332 147.772 468.022 148.87Z" fill="url(#paint16_linear_813_12345)"/>
<path d="M468.719 160.655C468.719 160.655 469.493 155.071 471.82 154.819C474.147 154.567 476.394 156.499 474.053 159.614C471.141 163.492 468.719 160.655 468.719 160.655Z" fill="url(#paint17_linear_813_12345)"/>
<path d="M459.019 143.811C459.079 143.811 459.142 143.793 459.197 143.756C459.346 143.659 459.386 143.461 459.289 143.312C459.277 143.298 458.271 141.733 458.798 140.096C459.191 138.884 460.32 137.915 462.152 137.213C462.318 137.15 462.401 136.963 462.338 136.797C462.275 136.631 462.089 136.548 461.923 136.611C459.893 137.385 458.635 138.494 458.182 139.901C457.56 141.833 458.701 143.587 458.75 143.662C458.813 143.762 458.916 143.811 459.019 143.811Z" fill="#91B3FA"/>
<path d="M309.736 41.6723C309.736 28.9895 299.455 18.7057 286.769 18.7057H106.98C94.2975 18.7057 84.0137 28.9866 84.0137 41.6723V301.597C84.0137 314.279 94.2946 324.563 106.98 324.563H286.769C299.452 324.563 309.736 314.282 309.736 301.597V41.6723Z" fill="url(#paint18_linear_813_12345)"/>
<path d="M198.402 321.505C198.402 322.855 197.307 323.953 195.955 323.953C194.605 323.953 193.507 322.858 193.507 321.505V22.3775C193.507 21.0275 194.602 19.9298 195.955 19.9298C197.305 19.9298 198.402 21.0247 198.402 22.3775V321.505Z" fill="url(#paint19_linear_813_12345)"/>
<path d="M183.722 77.448C183.722 89.2624 174.143 98.8411 162.329 98.8411H120.701C108.886 98.8411 99.3076 89.2624 99.3076 77.448V77.4165C99.3076 65.6022 108.886 56.0234 120.701 56.0234H162.329C174.143 56.0234 183.722 65.6022 183.722 77.4165V77.448Z" fill="#7D97F4"/>
<path d="M159.982 91.1251L123.965 91.2828C116.648 91.3143 110.689 85.41 110.655 78.0898C110.638 74.4326 112.105 71.1107 114.493 68.7031C116.88 66.2926 120.191 64.7965 123.848 64.7822L159.864 64.6245C167.182 64.593 173.14 70.4973 173.175 77.8175C173.192 81.4747 171.724 84.7966 169.337 87.2042C166.949 89.6146 163.639 91.1079 159.982 91.1251Z" fill="url(#paint20_linear_813_12345)"/>
<path d="M141.974 91.2051L123.965 91.2853C116.648 91.3168 110.689 85.4125 110.655 78.0923C110.638 74.4351 112.105 71.1132 114.493 68.7056C116.88 66.2952 120.191 64.799 123.848 64.7847L141.856 64.7045L141.974 91.2051Z" fill="url(#paint21_linear_813_12345)"/>
<path d="M291.994 77.4479C291.994 89.2623 282.416 98.841 270.601 98.841H228.973C217.159 98.841 207.58 89.2623 207.58 77.4479V77.4164C207.58 65.602 217.159 56.0233 228.973 56.0233H270.601C282.416 56.0233 291.994 65.602 291.994 77.4164V77.4479Z" fill="#7D97F4"/>
<path d="M268.818 91.125L232.802 91.2826C225.485 91.3142 219.526 85.4099 219.491 78.0897C219.474 74.4324 220.942 71.1105 223.329 68.703C225.717 66.2925 229.027 64.7964 232.684 64.782L268.701 64.6244C276.021 64.5929 281.977 70.4972 282.011 77.8174C282.028 81.4746 280.561 84.7965 278.173 87.2041C275.783 89.6145 272.472 91.1078 268.818 91.125Z" fill="url(#paint22_linear_813_12345)"/>
<path d="M250.81 91.2049L232.802 91.2852C225.485 91.3167 219.526 85.4124 219.491 78.0922C219.474 74.435 220.942 71.1131 223.329 68.7055C225.717 66.2951 229.027 64.7989 232.684 64.7846L250.692 64.7043L250.81 91.2049Z" fill="url(#paint23_linear_813_12345)"/>
<path opacity="0.3" d="M170.265 67.3387C170.265 68.5224 169.308 69.4797 168.124 69.4797H113.682C112.498 69.4797 111.541 68.5224 111.541 67.3387C111.541 66.1549 112.498 65.1976 113.682 65.1976H168.124C169.305 65.1976 170.265 66.1578 170.265 67.3387Z" fill="white"/>
<path opacity="0.3" d="M280.372 67.3387C280.372 68.5224 279.415 69.4797 278.231 69.4797H223.788C222.604 69.4797 221.647 68.5224 221.647 67.3387C221.647 66.1549 222.604 65.1976 223.788 65.1976H278.231C279.415 65.1976 280.372 66.1578 280.372 67.3387Z" fill="white"/>
<path d="M183.722 140.455C183.722 152.269 174.143 161.848 162.329 161.848H120.701C108.886 161.848 99.3076 152.269 99.3076 140.455V140.423C99.3076 128.609 108.886 119.03 120.701 119.03H162.329C174.143 119.03 183.722 128.609 183.722 140.423V140.455Z" fill="#7D97F4"/>
<path d="M159.982 153.886L123.965 154.044C116.648 154.076 110.689 148.171 110.655 140.851C110.638 137.194 112.105 133.872 114.493 131.464C116.88 129.054 120.191 127.558 123.848 127.544L159.864 127.386C167.182 127.354 173.14 133.259 173.175 140.579C173.192 144.236 171.724 147.558 169.337 149.966C166.949 152.373 163.639 153.869 159.982 153.886Z" fill="url(#paint24_linear_813_12345)"/>
<path d="M141.974 153.964L123.965 154.044C116.648 154.075 110.689 148.171 110.655 140.851C110.638 137.194 112.105 133.872 114.493 131.464C116.88 129.054 120.191 127.558 123.848 127.543L141.856 127.463L141.974 153.964Z" fill="url(#paint25_linear_813_12345)"/>
<path d="M291.994 140.455C291.994 152.269 282.416 161.848 270.601 161.848H228.973C217.159 161.848 207.58 152.269 207.58 140.455V140.423C207.58 128.609 217.159 119.03 228.973 119.03H270.601C282.416 119.03 291.994 128.609 291.994 140.423V140.455Z" fill="#7D97F4"/>
<path d="M268.818 153.887L232.802 154.044C225.485 154.076 219.526 148.171 219.491 140.851C219.474 137.194 220.942 133.872 223.329 131.465C225.717 129.054 229.027 127.558 232.684 127.544L268.701 127.386C276.021 127.354 281.977 133.259 282.011 140.579C282.028 144.236 280.561 147.558 278.173 149.966C275.783 152.373 272.472 153.869 268.818 153.887Z" fill="url(#paint26_linear_813_12345)"/>
<path d="M250.81 153.964L232.802 154.044C225.485 154.076 219.526 148.171 219.491 140.851C219.474 137.194 220.942 133.872 223.329 131.464C225.717 129.054 229.027 127.558 232.684 127.543L250.692 127.463L250.81 153.964Z" fill="url(#paint27_linear_813_12345)"/>
<path opacity="0.3" d="M170.265 130.346C170.265 131.53 169.308 132.487 168.124 132.487H113.682C112.498 132.487 111.541 131.53 111.541 130.346C111.541 129.163 112.498 128.205 113.682 128.205H168.124C169.305 128.205 170.265 129.163 170.265 130.346Z" fill="white"/>
<path opacity="0.3" d="M280.372 130.346C280.372 131.53 279.415 132.487 278.231 132.487H223.788C222.604 132.487 221.647 131.53 221.647 130.346C221.647 129.163 222.604 128.205 223.788 128.205H278.231C279.415 128.205 280.372 129.163 280.372 130.346Z" fill="white"/>
<path d="M183.722 203.462C183.722 215.276 174.143 224.855 162.329 224.855H120.701C108.886 224.855 99.3076 215.276 99.3076 203.462V203.431C99.3076 191.616 108.886 182.037 120.701 182.037H162.329C174.143 182.037 183.722 191.616 183.722 203.431V203.462Z" fill="#7D97F4"/>
<path d="M159.982 216.644L123.965 216.801C116.648 216.833 110.689 210.929 110.655 203.608C110.638 199.951 112.105 196.629 114.493 194.222C116.88 191.811 120.191 190.315 123.848 190.301L159.864 190.143C167.182 190.112 173.14 196.016 173.175 203.336C173.192 206.993 171.724 210.315 169.337 212.723C166.949 215.13 163.639 216.626 159.982 216.644Z" fill="url(#paint28_linear_813_12345)"/>
<path d="M141.974 216.723L123.965 216.804C116.648 216.835 110.689 210.931 110.655 203.611C110.638 199.953 112.105 196.632 114.493 194.224C116.88 191.814 120.191 190.317 123.848 190.303L141.856 190.223L141.974 216.723Z" fill="url(#paint29_linear_813_12345)"/>
<path d="M291.994 203.462C291.994 215.276 282.416 224.855 270.601 224.855H228.973C217.159 224.855 207.58 215.276 207.58 203.462V203.43C207.58 191.616 217.159 182.037 228.973 182.037H270.601C282.416 182.037 291.994 191.616 291.994 203.43V203.462Z" fill="#7D97F4"/>
<path d="M268.818 216.644L232.802 216.801C225.485 216.833 219.526 210.928 219.491 203.608C219.474 199.951 220.942 196.629 223.329 194.222C225.717 191.811 229.027 190.315 232.684 190.301L268.701 190.143C276.021 190.111 281.977 196.016 282.011 203.336C282.028 206.993 280.561 210.315 278.173 212.723C275.783 215.13 272.472 216.626 268.818 216.644Z" fill="url(#paint30_linear_813_12345)"/>
<path d="M250.81 216.723L232.802 216.804C225.485 216.835 219.526 210.931 219.491 203.611C219.474 199.953 220.942 196.631 223.329 194.224C225.717 191.813 229.027 190.317 232.684 190.303L250.692 190.223L250.81 216.723Z" fill="url(#paint31_linear_813_12345)"/>
<path opacity="0.3" d="M170.265 192.74C170.265 193.923 169.308 194.881 168.124 194.881H113.682C112.498 194.881 111.541 193.923 111.541 192.74C111.541 191.556 112.498 190.599 113.682 190.599H168.124C169.305 190.599 170.265 191.559 170.265 192.74Z" fill="white"/>
<path opacity="0.3" d="M280.372 192.74C280.372 193.923 279.415 194.881 278.231 194.881H223.788C222.604 194.881 221.647 193.923 221.647 192.74C221.647 191.556 222.604 190.599 223.788 190.599H278.231C279.415 190.599 280.372 191.559 280.372 192.74Z" fill="white"/>
<path d="M183.722 265.856C183.722 277.67 174.143 287.249 162.329 287.249H120.701C108.886 287.249 99.3076 277.67 99.3076 265.856V265.824C99.3076 254.01 108.886 244.431 120.701 244.431H162.329C174.143 244.431 183.722 254.01 183.722 265.824V265.856Z" fill="#7D97F4"/>
<path d="M159.982 279.404L123.965 279.561C116.648 279.593 110.689 273.688 110.655 266.368C110.638 262.711 112.105 259.389 114.493 256.982C116.88 254.571 120.191 253.075 123.848 253.061L159.864 252.903C167.182 252.871 173.14 258.776 173.175 266.096C173.192 269.753 171.724 273.075 169.337 275.483C166.949 277.89 163.639 279.386 159.982 279.404Z" fill="url(#paint32_linear_813_12345)"/>
<path d="M141.974 279.482L123.965 279.562C116.648 279.593 110.689 273.689 110.655 266.369C110.638 262.712 112.105 259.39 114.493 256.982C116.88 254.572 120.191 253.076 123.848 253.061L141.856 252.981L141.974 279.482Z" fill="url(#paint33_linear_813_12345)"/>
<path d="M291.994 265.856C291.994 277.67 282.416 287.249 270.601 287.249H228.973C217.159 287.249 207.58 277.67 207.58 265.856V265.824C207.58 254.01 217.159 244.431 228.973 244.431H270.601C282.416 244.431 291.994 254.01 291.994 265.824V265.856Z" fill="#7D97F4"/>
<path d="M268.818 279.404L232.802 279.561C225.485 279.593 219.526 273.688 219.491 266.368C219.474 262.711 220.942 259.389 223.329 256.981C225.717 254.571 229.027 253.075 232.684 253.061L268.701 252.903C276.021 252.871 281.977 258.776 282.011 266.096C282.028 269.753 280.561 273.075 278.173 275.483C275.783 277.89 272.472 279.386 268.818 279.404Z" fill="url(#paint34_linear_813_12345)"/>
<path d="M250.81 279.482L232.802 279.562C225.485 279.593 219.526 273.689 219.491 266.369C219.474 262.712 220.942 259.39 223.329 256.982C225.717 254.572 229.027 253.075 232.684 253.061L250.692 252.981L250.81 279.482Z" fill="url(#paint35_linear_813_12345)"/>
<path opacity="0.3" d="M170.265 255.133C170.265 256.317 169.308 257.274 168.124 257.274H113.682C112.498 257.274 111.541 256.317 111.541 255.133C111.541 253.949 112.498 252.992 113.682 252.992H168.124C169.305 252.992 170.265 253.952 170.265 255.133Z" fill="white"/>
<path opacity="0.3" d="M280.372 255.133C280.372 256.317 279.415 257.274 278.231 257.274H223.788C222.604 257.274 221.647 256.317 221.647 255.133C221.647 253.949 222.604 252.992 223.788 252.992H278.231C279.415 252.992 280.372 253.952 280.372 255.133Z" fill="white"/>
<path d="M353.147 145.797H276.833V166.477H353.147V145.797Z" fill="url(#paint36_linear_813_12345)"/>
<path d="M358.26 331.729H271.722C258.457 331.729 247.706 321.135 247.706 308.068V181.097C247.706 168.03 258.457 157.437 271.722 157.437H358.26C371.525 157.437 382.276 168.03 382.276 181.097V308.068C382.276 321.135 371.525 331.729 358.26 331.729Z" fill="url(#paint37_linear_813_12345)"/>
<path d="M357.274 304.52H272.708C268.306 304.52 264.737 301.003 264.737 296.667V201.527C264.737 197.191 268.306 193.674 272.708 193.674H357.274C361.677 193.674 365.245 197.191 365.245 201.527V296.667C365.242 301.006 361.674 304.52 357.274 304.52Z" fill="#7D97F4"/>
<path d="M361.567 152.447H268.411C266.086 152.447 264.203 150.589 264.203 148.299V127.786C264.203 123.458 267.766 119.947 272.16 119.947H357.824C362.217 119.947 365.78 123.455 365.78 127.786V148.299C365.777 150.589 363.891 152.447 361.567 152.447Z" fill="#91B3FA"/>
<path opacity="0.6" d="M275.549 124.584H271.9V148.176H275.549V124.584Z" fill="#BDD0FB"/>
<path opacity="0.6" d="M283.052 124.584H279.403V148.176H283.052V124.584Z" fill="#BDD0FB"/>
<path opacity="0.6" d="M290.555 124.584H286.907V148.176H290.555V124.584Z" fill="#BDD0FB"/>
<path opacity="0.6" d="M298.059 124.584H294.41V148.176H298.059V124.584Z" fill="#BDD0FB"/>
<path opacity="0.6" d="M305.56 124.584H301.911V148.176H305.56V124.584Z" fill="#BDD0FB"/>
<path opacity="0.6" d="M313.064 124.584H309.415V148.176H313.064V124.584Z" fill="#BDD0FB"/>
<path opacity="0.6" d="M320.567 124.584H316.918V148.176H320.567V124.584Z" fill="#BDD0FB"/>
<path opacity="0.6" d="M328.071 124.584H324.422V148.176H328.071V124.584Z" fill="#BDD0FB"/>
<path opacity="0.6" d="M335.572 124.584H331.923V148.176H335.572V124.584Z" fill="#BDD0FB"/>
<path opacity="0.6" d="M343.075 124.584H339.426V148.176H343.075V124.584Z" fill="#BDD0FB"/>
<path opacity="0.6" d="M350.579 124.584H346.93V148.176H350.579V124.584Z" fill="#BDD0FB"/>
<path opacity="0.6" d="M358.077 124.584H354.431V148.176H358.077V124.584Z" fill="#BDD0FB"/>
<path d="M359.556 329.857C381.239 329.857 398.816 312.54 398.816 291.178C398.816 269.816 381.239 252.499 359.556 252.499C337.873 252.499 320.295 269.816 320.295 291.178C320.295 312.54 337.873 329.857 359.556 329.857Z" fill="url(#paint38_linear_813_12345)"/>
<path d="M386.741 286.119L335.646 306.572C334.574 307.002 333.35 306.492 332.915 305.437L330.713 300.097C330.278 299.04 330.794 297.836 331.866 297.406L382.961 276.953C384.033 276.523 385.257 277.033 385.692 278.088L387.893 283.428C388.332 284.485 387.816 285.692 386.741 286.119Z" fill="url(#paint39_linear_813_12345)"/>
<path d="M124.168 221.646L60.5088 311.772C57.8378 315.55 58.9552 320.804 62.93 323.174L63.5818 323.563C67.1007 325.659 71.6513 324.49 73.722 320.958L129.871 225.29L124.168 221.646Z" fill="url(#paint40_linear_813_12345)"/>
<path opacity="0.34" d="M179.028 217.124C202.25 201.006 208.245 169.454 192.417 146.651C176.59 123.848 144.934 118.429 121.712 134.547C98.4894 150.666 92.4948 182.218 108.322 205.021C124.15 227.824 155.806 233.243 179.028 217.124Z" fill="white"/>
<path d="M118.482 129.88C92.6413 147.815 85.971 182.926 103.585 208.299C121.197 233.674 156.423 239.702 182.264 221.767C208.105 203.831 214.775 168.72 197.161 143.348C179.549 117.973 144.323 111.944 118.482 129.88ZM177.579 215.018C155.534 230.319 125.483 225.175 110.459 203.53C95.4325 181.885 101.123 151.932 123.167 136.628C145.212 121.327 175.263 126.471 190.287 148.116C205.314 169.764 199.623 199.717 177.579 215.018Z" fill="url(#paint41_linear_813_12345)"/>
<path d="M110.644 211.419C109.75 210.426 108.885 209.387 108.069 208.331C107.963 208.194 107.988 207.995 108.127 207.89C108.26 207.775 108.463 207.809 108.569 207.946C109.372 208.99 110.228 210.017 111.112 210.997C111.23 211.127 111.218 211.326 111.09 211.441C111.08 211.451 111.071 211.458 111.058 211.465C110.928 211.556 110.749 211.539 110.644 211.419ZM102.41 198.424C102.254 198.495 102.065 198.426 101.994 198.269C100.474 194.951 99.308 191.462 98.5263 187.894C93.9194 166.876 102.543 145.242 120.498 132.782C128.869 126.971 138.622 123.646 148.701 123.171C148.875 123.163 149.022 123.296 149.029 123.47C149.036 123.644 148.902 123.791 148.73 123.798C138.769 124.269 129.131 127.555 120.855 133.296C103.111 145.613 94.5883 166.988 99.1414 187.756C99.9133 191.28 101.065 194.728 102.567 198.005C102.631 198.144 102.584 198.308 102.462 198.394C102.445 198.406 102.428 198.416 102.41 198.424Z" fill="#7D97F4"/>
<path d="M69.9239 321.748C70.0317 321.675 70.0856 321.537 70.0464 321.405C69.9998 321.238 69.8258 321.14 69.6592 321.187C66.65 322.032 64.4323 321.555 63.0722 319.763C61.695 317.95 61.6705 315.391 63.011 313.399L70.4703 302.313C70.5683 302.168 70.5291 301.972 70.3846 301.877C70.24 301.779 70.0439 301.818 69.9484 301.963L62.489 313.049C60.9966 315.266 61.0309 318.119 62.5723 320.145C64.1063 322.162 66.547 322.716 69.8307 321.795C69.8626 321.782 69.8945 321.768 69.9239 321.748Z" fill="#7D97F4"/>
<path d="M72.6851 298.978C72.717 298.956 72.7439 298.929 72.766 298.895L73.7339 297.459C73.8319 297.314 73.7927 297.121 73.6481 297.023C73.5036 296.927 73.3075 296.964 73.212 297.108L72.244 298.544C72.146 298.689 72.1852 298.885 72.3298 298.981C72.44 299.054 72.5822 299.049 72.6851 298.978Z" fill="#7D97F4"/>
<path d="M214.639 223.594L213.258 224.818C213.129 224.932 212.931 224.921 212.816 224.792C212.702 224.663 212.713 224.465 212.842 224.351L214.229 223.132C214.358 223.021 214.553 223.032 214.665 223.161C214.78 223.287 214.768 223.482 214.639 223.594Z" fill="white"/>
<path d="M210.024 227.663L208.634 228.878C208.5 228.996 208.293 228.982 208.176 228.847C208.058 228.712 208.073 228.506 208.207 228.388H208.21L209.603 227.179C209.738 227.061 209.938 227.076 210.056 227.21C210.171 227.345 210.156 227.549 210.024 227.663Z" fill="white"/>
<path d="M205.376 231.699L203.974 232.9C203.834 233.02 203.621 233.006 203.498 232.862C203.378 232.722 203.392 232.51 203.535 232.387L203.538 232.384L204.943 231.189C205.083 231.068 205.292 231.085 205.413 231.226C205.533 231.369 205.516 231.578 205.376 231.699Z" fill="white"/>
<path d="M200.689 235.689L199.273 236.875C199.124 236.999 198.906 236.979 198.783 236.832C198.66 236.683 198.68 236.466 198.826 236.342L198.829 236.339L200.248 235.161C200.394 235.038 200.612 235.058 200.735 235.204C200.852 235.348 200.835 235.566 200.689 235.689Z" fill="white"/>
<path d="M195.952 239.621L194.519 240.788C194.364 240.914 194.138 240.891 194.012 240.736C193.885 240.582 193.908 240.355 194.063 240.229L194.066 240.226L195.502 239.068C195.654 238.945 195.88 238.968 196.004 239.12C196.127 239.272 196.104 239.495 195.952 239.621Z" fill="white"/>
<path d="M191.154 243.482L189.701 244.625C189.54 244.751 189.305 244.726 189.176 244.562C189.05 244.402 189.076 244.167 189.239 244.038L189.242 244.035L190.695 242.9C190.856 242.774 191.088 242.802 191.214 242.96C191.34 243.124 191.314 243.356 191.154 243.482Z" fill="white"/>
<path d="M186.29 247.257L184.817 248.372C184.648 248.501 184.407 248.466 184.278 248.297C184.149 248.128 184.183 247.887 184.352 247.758L184.355 247.755L185.829 246.649C185.995 246.523 186.236 246.554 186.362 246.721C186.491 246.89 186.456 247.13 186.29 247.257Z" fill="white"/>
<path d="M181.348 250.937L179.849 252.021C179.671 252.15 179.422 252.11 179.296 251.932C179.167 251.754 179.207 251.508 179.385 251.379L179.388 251.376L180.887 250.301C181.061 250.172 181.308 250.212 181.437 250.387C181.563 250.562 181.523 250.808 181.348 250.937Z" fill="white"/>
<path d="M176.321 254.505L174.796 255.551C174.61 255.677 174.355 255.631 174.229 255.445C174.1 255.259 174.148 255.004 174.335 254.878L174.337 254.875L175.862 253.837L175.865 253.834C176.051 253.708 176.301 253.757 176.427 253.94C176.553 254.127 176.507 254.379 176.321 254.505Z" fill="white"/>
<path d="M171.205 257.945L169.651 258.948C169.456 259.074 169.195 259.019 169.069 258.822C168.943 258.627 168.998 258.366 169.195 258.24L169.198 258.237L170.749 257.242L170.752 257.239C170.947 257.116 171.204 257.171 171.328 257.366C171.454 257.563 171.399 257.821 171.205 257.945Z" fill="white"/>
<path d="M166 261.238L164.418 262.195C164.215 262.319 163.948 262.253 163.825 262.049C163.702 261.846 163.768 261.579 163.971 261.456H163.974L163.977 261.453L165.553 260.504L165.556 260.501C165.759 260.378 166.023 260.444 166.146 260.648C166.267 260.854 166.204 261.118 166 261.238Z" fill="white"/>
<path d="M160.692 264.373L159.082 265.279C158.867 265.399 158.597 265.325 158.477 265.11C158.357 264.895 158.431 264.625 158.646 264.505H158.649L158.652 264.502L160.26 263.608L160.263 263.605C160.475 263.487 160.744 263.562 160.862 263.777C160.979 263.986 160.905 264.253 160.692 264.373Z" fill="white"/>
<path d="M155.284 267.329L153.642 268.18C153.418 268.295 153.143 268.209 153.025 267.985C152.911 267.762 152.997 267.487 153.22 267.369H153.223L153.229 267.366L154.865 266.526L154.871 266.523C155.095 266.409 155.367 266.498 155.482 266.721C155.593 266.942 155.507 267.214 155.284 267.329Z" fill="white"/>
<path d="M149.766 270.094L148.089 270.882C147.854 270.991 147.576 270.891 147.464 270.656C147.355 270.421 147.456 270.143 147.691 270.031H147.694L147.699 270.028L149.367 269.252L149.373 269.249C149.605 269.14 149.883 269.24 149.992 269.475C150.098 269.71 150.001 269.985 149.766 270.094Z" fill="white"/>
<path d="M144.143 272.637L142.435 273.354C142.191 273.457 141.907 273.342 141.804 273.096C141.701 272.852 141.815 272.568 142.062 272.465H142.065L142.071 272.462L143.77 271.757L143.776 271.754C144.02 271.654 144.298 271.769 144.401 272.012C144.501 272.256 144.386 272.534 144.143 272.637Z" fill="white"/>
<path d="M138.418 274.941L136.681 275.583C136.426 275.677 136.143 275.548 136.048 275.29C135.953 275.035 136.082 274.752 136.34 274.657H136.343L136.349 274.654L138.077 274.024L138.083 274.021C138.338 273.929 138.619 274.058 138.711 274.313C138.8 274.565 138.671 274.846 138.418 274.941Z" fill="white"/>
<path d="M132.598 276.993L130.832 277.558C130.566 277.644 130.282 277.497 130.196 277.231C130.11 276.964 130.256 276.681 130.523 276.595H130.526L130.531 276.592L132.285 276.039L132.291 276.036C132.555 275.953 132.836 276.099 132.922 276.363C133.005 276.629 132.862 276.91 132.598 276.993Z" fill="white"/>
<path d="M126.685 278.782L124.896 279.263C124.621 279.338 124.337 279.175 124.263 278.899C124.188 278.624 124.352 278.341 124.627 278.266H124.63L124.635 278.263L126.412 277.79L126.418 277.787C126.693 277.716 126.974 277.879 127.046 278.151C127.12 278.429 126.96 278.71 126.685 278.782Z" fill="white"/>
<path d="M120.697 280.289L118.886 280.685C118.599 280.748 118.318 280.567 118.255 280.281C118.192 279.994 118.373 279.713 118.659 279.65H118.662L118.671 279.647L120.468 279.263L120.477 279.261C120.76 279.2 121.038 279.381 121.101 279.665C121.159 279.951 120.981 280.229 120.697 280.289Z" fill="white"/>
<path d="M114.639 281.499L112.81 281.8C112.515 281.849 112.237 281.648 112.188 281.353C112.139 281.057 112.34 280.779 112.635 280.731H112.638H112.647L114.461 280.438H114.469C114.762 280.393 115.037 280.59 115.086 280.883C115.129 281.178 114.931 281.453 114.639 281.499Z" fill="white"/>
<path d="M108.521 282.39L106.678 282.591C106.375 282.625 106.102 282.405 106.068 282.101C106.034 281.797 106.254 281.525 106.558 281.49H106.561H106.57L108.395 281.298H108.404C108.705 281.267 108.977 281.485 109.009 281.788C109.037 282.087 108.822 282.356 108.521 282.39Z" fill="white"/>
<path d="M102.363 282.941L100.509 283.035C100.196 283.052 99.9326 282.812 99.9154 282.499C99.8982 282.187 100.139 281.923 100.451 281.906H100.454H100.463L102.297 281.817H102.306C102.615 281.803 102.879 282.041 102.893 282.35C102.911 282.663 102.673 282.923 102.363 282.941Z" fill="white"/>
<path d="M96.1801 283.129L94.3257 283.112C94.0075 283.109 93.7524 282.849 93.7524 282.53C93.7553 282.212 94.0161 281.954 94.3343 281.957H94.3372H94.3486L96.1801 281.98H96.1916C96.5097 281.983 96.7619 282.244 96.7591 282.562C96.7562 282.88 96.4982 283.132 96.1801 283.129Z" fill="white"/>
<path d="M89.9982 282.94L88.1466 282.805C87.8228 282.782 87.5792 282.499 87.6021 282.175C87.625 281.851 87.9088 281.607 88.2326 281.63H88.2355H88.247L90.0756 281.771H90.087C90.4081 281.796 90.6517 282.077 90.6259 282.398C90.6001 282.722 90.3221 282.963 89.9982 282.94Z" fill="white"/>
<path d="M83.8355 282.35L81.9955 282.092C81.6658 282.047 81.4365 281.743 81.4824 281.413C81.5283 281.084 81.8321 280.854 82.1617 280.9H82.1645L82.176 280.903L83.9903 281.164L84.0018 281.167C84.3285 281.213 84.5549 281.516 84.5091 281.843C84.4632 282.17 84.1623 282.399 83.8355 282.35Z" fill="white"/>
<path d="M77.7249 281.347L75.9077 280.963C75.5753 280.894 75.3632 280.568 75.4348 280.238C75.5036 279.905 75.8303 279.693 76.1599 279.765H76.1628L76.1743 279.768L77.9656 280.152L77.9771 280.155C78.3067 280.226 78.5159 280.55 78.4443 280.88C78.3755 281.21 78.0545 281.419 77.7249 281.347Z" fill="white"/>
<path d="M71.7003 279.91L69.9147 279.391C69.585 279.297 69.3988 278.953 69.4933 278.623C69.5879 278.294 69.9319 278.107 70.2615 278.202L70.2758 278.205L72.0328 278.718L72.0471 278.721C72.3738 278.815 72.563 279.159 72.4656 279.486C72.3681 279.818 72.027 280.008 71.7003 279.91Z" fill="white"/>
<path d="M65.7957 278.028L64.0531 277.377C63.7321 277.257 63.5658 276.899 63.6862 276.575C63.8066 276.254 64.1649 276.088 64.4887 276.208L64.5031 276.214L66.217 276.856L66.2314 276.861C66.5524 276.982 66.7157 277.34 66.5954 277.661C66.475 277.985 66.1167 278.148 65.7957 278.028Z" fill="white"/>
<path d="M60.049 275.712L58.3609 274.935C58.0456 274.792 57.908 274.419 58.0513 274.104C58.1946 273.789 58.5672 273.651 58.8825 273.794L58.894 273.8L60.5564 274.565L60.5678 274.571C60.8831 274.715 61.0178 275.087 60.8745 275.402C60.7341 275.718 60.3615 275.855 60.049 275.712Z" fill="white"/>
<path d="M54.486 272.987L52.858 272.092C52.5513 271.926 52.4396 271.542 52.6087 271.235C52.7778 270.929 53.159 270.817 53.4656 270.986L53.4771 270.992L55.0822 271.875L55.0936 271.88C55.3974 272.049 55.5092 272.431 55.343 272.737C55.1739 273.041 54.7898 273.153 54.486 272.987Z" fill="white"/>
<path d="M49.1318 269.876L47.5698 268.873C47.2746 268.684 47.1886 268.291 47.3777 267.996C47.5669 267.701 47.9596 267.615 48.2548 267.804L48.2663 267.81L49.8054 268.801L49.8169 268.807C50.1121 268.996 50.1952 269.389 50.006 269.684C49.8168 269.979 49.4242 270.065 49.1318 269.876Z" fill="white"/>
<path d="M44.0016 266.408L42.5083 265.302C42.2246 265.093 42.1644 264.691 42.3765 264.408C42.5857 264.124 42.987 264.064 43.2707 264.276L43.2822 264.284L44.7525 265.376L44.764 265.385C45.0477 265.594 45.1051 265.995 44.8958 266.279C44.6837 266.557 44.2853 266.617 44.0016 266.408Z" fill="white"/>
<path d="M39.112 262.608L37.6933 261.407C37.421 261.178 37.3895 260.771 37.6188 260.499C37.848 260.227 38.255 260.195 38.5273 260.424L38.5359 260.433L39.9318 261.619L39.9403 261.628C40.2098 261.857 40.2442 262.264 40.0149 262.534C39.7884 262.806 39.3843 262.838 39.112 262.608Z" fill="white"/>
<path d="M34.4779 258.504L33.1394 257.217C32.8814 256.968 32.8728 256.558 33.1222 256.3C33.3716 256.042 33.7814 256.034 34.0394 256.283L34.048 256.292L35.3693 257.564L35.3779 257.573C35.6358 257.819 35.6416 258.229 35.3951 258.487C35.1457 258.745 34.7358 258.754 34.4779 258.504Z" fill="white"/>
<path d="M30.1057 254.124L28.8475 252.76C28.6038 252.496 28.621 252.083 28.8847 251.837C29.1484 251.593 29.5611 251.61 29.8076 251.874L29.8162 251.883L31.0573 253.232L31.0659 253.241C31.3095 253.505 31.2923 253.917 31.0286 254.161C30.7621 254.405 30.3493 254.388 30.1057 254.124Z" fill="white"/>
<path d="M26.0079 249.487L24.8327 248.051C24.6034 247.77 24.6436 247.357 24.9244 247.128C25.2053 246.898 25.6181 246.939 25.8473 247.219L25.8531 247.228L27.0139 248.65L27.0225 248.658C27.2518 248.939 27.2088 249.352 26.9308 249.581C26.647 249.808 26.2343 249.768 26.0079 249.487Z" fill="white"/>
<path d="M22.1818 244.621L21.0898 243.119C20.8749 242.823 20.9408 242.411 21.236 242.196C21.5312 241.981 21.9439 242.047 22.1589 242.342L22.1646 242.35L23.2423 243.835L23.248 243.844C23.463 244.139 23.3971 244.552 23.1019 244.764C22.8095 244.982 22.3968 244.916 22.1818 244.621Z" fill="white"/>
<path d="M18.6421 239.547L17.6361 237.988C17.4384 237.678 17.5272 237.269 17.8339 237.068C18.1434 236.87 18.5533 236.959 18.7539 237.266L18.7597 237.274L19.7514 238.816L19.7571 238.825C19.9548 239.132 19.866 239.544 19.5593 239.742C19.2498 239.943 18.8399 239.854 18.6421 239.547Z" fill="white"/>
<path d="M15.3887 234.281L14.4686 232.668C14.2852 232.347 14.397 231.94 14.718 231.756C15.039 231.573 15.446 231.685 15.6294 232.006L15.6352 232.014L16.5409 233.611L16.5466 233.619C16.73 233.94 16.6154 234.347 16.2972 234.531C15.9762 234.714 15.5692 234.602 15.3887 234.281Z" fill="white"/>
<path d="M12.4283 228.851L11.5971 227.191C11.4309 226.859 11.5656 226.454 11.898 226.288C12.2305 226.122 12.6346 226.257 12.8009 226.589L12.8066 226.598L13.6263 228.24L13.6321 228.249C13.7983 228.581 13.6636 228.985 13.3311 229.149C12.9958 229.315 12.5917 229.18 12.4283 228.851Z" fill="white"/>
<path d="M9.76244 223.261L9.0201 221.556C8.87106 221.212 9.0287 220.813 9.36978 220.664C9.71372 220.515 10.1121 220.673 10.2611 221.014L10.264 221.022L10.9949 222.708L10.9978 222.719C11.1468 223.06 10.9892 223.459 10.6452 223.608C10.3099 223.76 9.91148 223.605 9.76244 223.261Z" fill="white"/>
<path d="M7.4033 217.54L6.75556 215.8C6.62371 215.448 6.80428 215.055 7.15682 214.923C7.50936 214.791 7.90202 214.972 8.03387 215.324L8.03673 215.336L8.67588 217.056L8.67875 217.067C8.8106 217.42 8.63003 217.809 8.27749 217.941C7.92495 218.07 7.53228 217.892 7.4033 217.54Z" fill="white"/>
<path d="M5.3546 211.702L4.80144 209.931C4.68966 209.57 4.89029 209.185 5.25143 209.071C5.61256 208.959 5.99663 209.16 6.11128 209.521L6.11414 209.532L6.65872 211.284L6.66158 211.295C6.77336 211.656 6.57273 212.04 6.21159 212.152C5.84759 212.264 5.46638 212.063 5.3546 211.702Z" fill="white"/>
<path d="M3.61999 205.76L3.16427 203.96C3.06969 203.59 3.29324 203.215 3.66298 203.123C4.03272 203.029 4.40819 203.252 4.49991 203.622L4.50277 203.633L4.95276 205.413L4.95563 205.425C5.04734 205.795 4.82378 206.167 4.45691 206.262C4.08717 206.351 3.71457 206.127 3.61999 205.76Z" fill="white"/>
<path d="M2.21287 199.733L1.8546 197.91C1.78008 197.535 2.02657 197.171 2.40204 197.096C2.77751 197.022 3.14151 197.268 3.21603 197.644L3.2189 197.655L3.56857 199.455L3.57143 199.467C3.64309 199.842 3.39946 200.206 3.02399 200.278C2.65139 200.352 2.28739 200.109 2.21287 199.733Z" fill="white"/>
<path d="M1.14136 193.636L0.88627 191.796C0.834679 191.415 1.10124 191.063 1.48244 191.008C1.86364 190.957 2.21618 191.223 2.27063 191.604L2.27349 191.616L2.52285 193.433L2.52572 193.444C2.57731 193.826 2.31076 194.178 1.92956 194.23C1.54549 194.284 1.19295 194.018 1.14136 193.636Z" fill="white"/>
<path d="M0.412618 187.489L0.26358 185.634C0.232053 185.247 0.521533 184.909 0.905599 184.878C1.29253 184.846 1.63074 185.133 1.66226 185.52V185.531L1.80844 187.363V187.374C1.83997 187.761 1.55049 188.096 1.16642 188.128C0.782355 188.162 0.444146 187.876 0.412618 187.489Z" fill="white"/>
<path d="M0.0403054 181.306L0.000174885 179.446C-0.00842362 179.056 0.301124 178.732 0.690923 178.724C1.08072 178.715 1.4046 179.025 1.41319 179.414V179.426L1.45046 181.26V181.272C1.45905 181.662 1.14951 181.983 0.759708 181.991C0.369909 182.003 0.0460378 181.693 0.0403054 181.306Z" fill="white"/>
<path d="M0.0309628 175.11L0.0997568 173.253C0.114088 172.86 0.443699 172.556 0.836364 172.57C1.22903 172.585 1.53284 172.914 1.5185 173.307V173.319L1.44685 175.15V175.161C1.43252 175.554 1.10292 175.858 0.710252 175.841C0.320453 175.829 0.0137658 175.5 0.0309628 175.11Z" fill="white"/>
<path d="M0.381647 168.93L0.550758 167.082C0.585152 166.689 0.934823 166.4 1.32749 166.434C1.72015 166.468 2.00964 166.818 1.97524 167.211V167.222L1.80613 169.048V169.059C1.76887 169.452 1.42207 169.739 1.0294 169.704C0.633872 169.667 0.344387 169.32 0.381647 168.93Z" fill="white"/>
<path d="M1.05156 162.777L1.31525 160.94C1.37257 160.547 1.73657 160.275 2.12924 160.329C2.5219 160.386 2.79419 160.75 2.73973 161.143L2.73686 161.155L2.47605 162.972L2.47318 162.983C2.41586 163.376 2.05185 163.648 1.66205 163.591C1.26652 163.533 0.994241 163.169 1.05156 162.777Z" fill="white"/>
<path d="M2.03483 156.668L2.39023 154.846C2.46762 154.453 2.84595 154.198 3.23862 154.275C3.63128 154.353 3.88638 154.731 3.80899 155.124L3.80612 155.135L3.45358 156.935L3.45072 156.946C3.37333 157.336 2.99499 157.591 2.60519 157.517C2.21253 157.437 1.95744 157.058 2.03483 156.668Z" fill="white"/>
<path d="M3.31919 150.618L3.76345 148.815C3.85804 148.425 4.25357 148.187 4.64337 148.282C5.03317 148.376 5.27106 148.772 5.17647 149.162L5.1736 149.173L4.73222 150.953L4.72935 150.965C4.6319 151.354 4.23924 151.592 3.8523 151.495C3.45964 151.397 3.22174 151.005 3.31919 150.618Z" fill="white"/>
<path d="M4.89604 144.637L5.42342 142.857C5.53807 142.47 5.94506 142.249 6.33199 142.364C6.71893 142.478 6.93962 142.885 6.82497 143.272L6.82211 143.281L6.2976 145.038L6.29473 145.046C6.18008 145.433 5.77309 145.651 5.38616 145.537C5.00209 145.428 4.78139 145.023 4.89604 144.637Z" fill="white"/>
<path d="M6.75575 138.738L7.36625 136.987C7.50096 136.603 7.91941 136.402 8.30348 136.534C8.68755 136.669 8.88817 137.087 8.75633 137.471L8.75347 137.48L8.14584 139.211L8.14297 139.22C8.00826 139.601 7.5898 139.804 7.2086 139.67C6.82167 139.538 6.62104 139.119 6.75575 138.738Z" fill="white"/>
<path d="M8.88247 132.93L9.57036 131.208C9.72226 130.829 10.1522 130.643 10.5305 130.795C10.9089 130.947 11.0952 131.377 10.9432 131.755L10.9404 131.764L10.2554 133.466L10.2525 133.475C10.1006 133.853 9.67067 134.037 9.29234 133.885C8.914 133.736 8.73056 133.309 8.88247 132.93Z" fill="white"/>
<path d="M11.2695 127.228L12.0348 125.536C12.2039 125.161 12.6453 124.995 13.0179 125.167C13.3905 125.336 13.5567 125.777 13.3876 126.15L13.3848 126.158L12.6252 127.829L12.6224 127.838C12.4533 128.211 12.0119 128.377 11.6393 128.208C11.2638 128.039 11.0976 127.6 11.2695 127.228Z" fill="white"/>
<path d="M13.9012 121.633L14.7381 119.976C14.9244 119.606 15.3744 119.46 15.7413 119.646C16.111 119.833 16.2572 120.283 16.0709 120.649L16.0651 120.658L15.2368 122.295L15.234 122.303C15.0477 122.67 14.5977 122.819 14.2308 122.633C13.8611 122.447 13.7149 121.999 13.9012 121.633Z" fill="white"/>
<path d="M16.7673 116.152L17.6701 114.533C17.8736 114.172 18.3294 114.04 18.6934 114.243C19.0545 114.447 19.1863 114.903 18.9828 115.267L18.9771 115.275L18.08 116.877L18.0743 116.886C17.8708 117.247 17.4151 117.376 17.0539 117.176C16.6956 116.972 16.5638 116.516 16.7673 116.152Z" fill="white"/>
<path d="M19.8569 110.798L20.8257 109.216C21.0435 108.861 21.5078 108.749 21.8661 108.967C22.2215 109.185 22.3333 109.649 22.1154 110.007L22.1097 110.016L21.1495 111.581L21.1438 111.589C20.926 111.945 20.4617 112.057 20.1063 111.836C19.7508 111.618 19.6391 111.154 19.8569 110.798Z" fill="white"/>
<path d="M23.1592 105.574L24.1882 104.032C24.4203 103.682 24.8933 103.587 25.2429 103.822C25.5926 104.055 25.6872 104.527 25.4522 104.877L25.4464 104.886L24.4232 106.411L24.4175 106.419C24.1853 106.766 23.7124 106.861 23.3656 106.628C23.0188 106.393 22.9242 105.92 23.1592 105.574Z" fill="white"/>
<path d="M26.6608 100.48L27.7499 98.9784C27.9964 98.6373 28.4751 98.5599 28.8161 98.8093C29.1572 99.0558 29.2346 99.5344 28.9852 99.8755L28.9795 99.8812L27.899 101.366L27.8932 101.372C27.6467 101.713 27.1681 101.787 26.827 101.541C26.4888 101.297 26.4114 100.821 26.6608 100.48Z" fill="white"/>
<path d="M30.3561 95.5274L31.4997 94.0714C31.7605 93.7389 32.2449 93.6787 32.5773 93.9424C32.9098 94.2032 32.97 94.6876 32.7063 95.0201L32.7006 95.0258L31.5656 96.4675L31.5598 96.4732C31.299 96.8057 30.8146 96.863 30.4822 96.6022C30.1526 96.3414 30.0952 95.8598 30.3561 95.5274Z" fill="white"/>
<path d="M34.2309 90.7152L35.429 89.2993C35.7041 88.9726 36.1913 88.9324 36.5181 89.2076C36.8448 89.4827 36.885 89.97 36.6098 90.2967L36.6041 90.3025L35.4146 91.704L35.4089 91.7097C35.1337 92.0336 34.6465 92.0737 34.3226 91.7986C33.9959 91.5263 33.9557 91.0419 34.2309 90.7152Z" fill="white"/>
<path d="M38.2835 86.046L39.5331 84.6731C39.8226 84.3549 40.3127 84.332 40.6309 84.6215C40.949 84.911 40.972 85.4011 40.6825 85.7192L40.6767 85.725L39.4357 87.0835L39.43 87.0893C39.1405 87.4045 38.6504 87.4275 38.3351 87.1409C38.0169 86.8514 37.994 86.3641 38.2835 86.046Z" fill="white"/>
<path d="M42.5004 81.5258L43.7959 80.1988C44.0968 79.8893 44.5927 79.8835 44.8993 80.1873C45.2089 80.4883 45.2146 80.9841 44.9108 81.2908L44.9051 81.2966L43.6181 82.6092L43.6124 82.615C43.3115 82.9217 42.8185 82.9274 42.5089 82.6264C42.2051 82.3255 42.1994 81.8354 42.5004 81.5258Z" fill="white"/>
<path d="M46.8741 77.1611L48.2154 75.8828C48.5278 75.5847 49.0266 75.5961 49.3247 75.9085C49.6227 76.221 49.6113 76.7197 49.2989 77.0178L49.2931 77.0235L47.9604 78.2903L47.9546 78.2961C47.6422 78.5941 47.1464 78.5827 46.8483 78.2674C46.5473 77.955 46.5588 77.4591 46.8741 77.1611Z" fill="white"/>
<path d="M51.3961 72.9534L52.7804 71.721C53.1072 71.4315 53.6059 71.4601 53.8954 71.7869C54.1849 72.1136 54.1562 72.6123 53.8295 72.9018L53.8237 72.9076L52.448 74.1257L52.4422 74.1314C52.1155 74.4209 51.6196 74.3894 51.3302 74.0655C51.0435 73.7388 51.0722 73.2429 51.3961 72.9534Z" fill="white"/>
<path d="M56.065 68.9068L57.4923 67.7231C57.8306 67.4451 58.3293 67.4909 58.6101 67.8291C58.8882 68.1673 58.8423 68.666 58.5041 68.9469L58.4984 68.9527L57.0825 70.1221L57.0767 70.1278C56.7385 70.4058 56.2398 70.3599 55.9618 70.0217C55.6809 69.6835 55.7296 69.1848 56.065 68.9068Z" fill="white"/>
<path d="M60.8718 65.0227L62.3393 63.8905C62.6889 63.6211 63.1877 63.687 63.4571 64.0339C63.7265 64.3835 63.6606 64.8822 63.3138 65.1517L63.308 65.1574L61.852 66.2781L61.8463 66.2838C61.4966 66.5532 60.9979 66.4873 60.7313 66.1376C60.4591 65.788 60.525 65.2892 60.8718 65.0227Z" fill="white"/>
<path d="M65.8104 61.3084L67.318 60.2279C67.6763 59.9699 68.1779 60.053 68.4359 60.4113C68.6938 60.7696 68.6107 61.2711 68.2524 61.5291L68.2467 61.5348L66.7505 62.6039L66.7448 62.6096C66.3865 62.8676 65.885 62.7845 65.6299 62.4233C65.369 62.0651 65.4522 61.5663 65.8104 61.3084Z" fill="white"/>
<path d="M70.8802 57.7654L72.4251 56.7393C72.7948 56.4928 73.2964 56.5932 73.5429 56.9629C73.7894 57.3326 73.689 57.8342 73.3193 58.0807L73.3136 58.0864L71.783 59.1011L71.7773 59.1068C71.4076 59.3533 70.9088 59.253 70.6624 58.8804C70.4101 58.5106 70.5105 58.0119 70.8802 57.7654Z" fill="white"/>
<path d="M76.0661 54.4009L77.6425 53.4265C78.0237 53.1914 78.5224 53.3089 78.7574 53.6901C78.9924 54.0713 78.8749 54.5701 78.4937 54.8051L78.488 54.8079L76.923 55.7738L76.9173 55.7767C76.5361 56.0117 76.0403 55.8942 75.8052 55.513C75.5673 55.1318 75.6849 54.636 76.0661 54.4009Z" fill="white"/>
<path d="M81.3559 51.2078L82.9639 50.2849C83.3537 50.0613 83.8495 50.196 84.0759 50.5858C84.2995 50.9756 84.1648 51.4715 83.775 51.6979L83.7693 51.7008L82.1757 52.6151L82.1699 52.6179C81.7801 52.8415 81.2843 52.7068 81.0607 52.317C80.8314 51.9272 80.9661 51.4313 81.3559 51.2078Z" fill="white"/>
<path d="M86.7448 48.19L88.3814 47.3187C88.7798 47.1066 89.2756 47.2585 89.4877 47.6569C89.6998 48.0553 89.5479 48.5512 89.1495 48.7633L89.1438 48.7661L87.5216 49.6289L87.5158 49.6317C87.1174 49.8438 86.6244 49.6919 86.4124 49.2935C86.1974 48.8951 86.3464 48.4021 86.7448 48.19Z" fill="white"/>
<path d="M92.2281 45.3464L93.8905 44.5267C94.2975 44.326 94.7905 44.4923 94.9911 44.9021C95.1917 45.3091 95.0255 45.8021 94.6156 46.0027L94.6099 46.0056L92.9619 46.8167L92.9561 46.8196C92.5491 47.0202 92.0562 46.8511 91.8584 46.4441C91.6549 46.0371 91.8211 45.547 92.2281 45.3464Z" fill="white"/>
<path d="M97.7963 42.6778L99.4845 41.9125C99.9001 41.7234 100.39 41.9068 100.579 42.3224C100.769 42.738 100.585 43.2281 100.17 43.4173L100.164 43.4201L98.4899 44.1768L98.4842 44.1797C98.0686 44.3688 97.5814 44.1825 97.3922 43.7669C97.2002 43.3542 97.3807 42.867 97.7963 42.6778Z" fill="white"/>
<path d="M103.449 40.1879L105.16 39.4742C105.584 39.2965 106.069 39.4971 106.246 39.9213C106.424 40.3455 106.223 40.8299 105.799 41.0076L105.791 41.0105L104.094 41.7155L104.088 41.7184C103.664 41.8932 103.179 41.6926 103.005 41.2713C102.827 40.8499 103.025 40.3627 103.449 40.1879Z" fill="white"/>
<path d="M109.176 37.8747L110.907 37.2154C111.337 37.0521 111.818 37.267 111.985 37.697C112.148 38.1269 111.933 38.6084 111.503 38.7746L111.497 38.7775L109.78 39.4281L109.772 39.431C109.342 39.5944 108.86 39.3765 108.697 38.9466C108.528 38.5195 108.746 38.038 109.176 37.8747Z" fill="white"/>
<path d="M114.971 35.7392L116.722 35.1344C117.16 34.9825 117.636 35.2147 117.788 35.6532C117.94 36.0917 117.708 36.5675 117.269 36.7194L117.261 36.7223L115.524 37.3213L115.515 37.3242C115.077 37.4761 114.601 37.2411 114.452 36.8054C114.3 36.3669 114.532 35.8911 114.971 35.7392Z" fill="white"/>
<path d="M120.83 33.7847L122.598 33.2344C123.042 33.0968 123.515 33.3433 123.653 33.7876C123.79 34.2318 123.544 34.7047 123.1 34.8423L123.091 34.8452L121.337 35.3898L121.328 35.3926C120.884 35.5302 120.414 35.2808 120.276 34.8395C120.139 34.3923 120.385 33.9223 120.83 33.7847Z" fill="white"/>
<path d="M126.748 32.0077L128.534 31.5119C128.984 31.3858 129.451 31.6494 129.577 32.0994C129.704 32.5494 129.44 33.0166 128.99 33.1427L128.981 33.1456L127.21 33.6357L127.201 33.6386C126.751 33.7618 126.284 33.4981 126.161 33.0481C126.035 32.5981 126.298 32.1338 126.748 32.0077Z" fill="white"/>
<path d="M132.715 30.4143L134.515 29.9729C134.971 29.8612 135.432 30.1392 135.544 30.5949C135.656 31.0506 135.378 31.5121 134.922 31.6239L134.913 31.6267L133.128 32.0624L133.119 32.0653C132.663 32.177 132.202 31.8962 132.093 31.4404C131.981 30.9876 132.259 30.5261 132.715 30.4143Z" fill="white"/>
<path d="M138.731 29.0042L140.546 28.6172C141.007 28.5198 141.463 28.8121 141.56 29.2736C141.658 29.735 141.365 30.1908 140.904 30.2882L140.895 30.2911L139.098 30.6723L139.09 30.6751C138.628 30.7726 138.175 30.4774 138.078 30.0188C137.978 29.5545 138.27 29.1016 138.731 29.0042Z" fill="white"/>
<path d="M144.79 27.7741L146.613 27.4416C147.08 27.3556 147.527 27.6651 147.613 28.1323C147.699 28.5995 147.39 29.0466 146.922 29.1326H146.914L145.105 29.4594H145.097C144.63 29.5425 144.185 29.2329 144.099 28.7686C144.013 28.3043 144.323 27.86 144.79 27.7741Z" fill="white"/>
<path d="M150.881 26.7307L152.715 26.4527C153.188 26.381 153.627 26.7049 153.699 27.1778C153.77 27.6507 153.446 28.0893 152.973 28.1609H152.965L151.148 28.4332H151.139C150.669 28.5049 150.231 28.1781 150.159 27.7081C150.087 27.238 150.411 26.7995 150.881 26.7307Z" fill="white"/>
<path d="M157.004 25.8711L158.844 25.6504C159.32 25.5931 159.752 25.9313 159.81 26.407C159.867 26.8828 159.529 27.3156 159.053 27.3729H159.044L157.219 27.5908H157.21C156.734 27.6481 156.304 27.307 156.247 26.8341C156.19 26.3583 156.528 25.9284 157.004 25.8711Z" fill="white"/>
<path d="M163.145 25.1975L164.991 25.0313C165.469 24.9883 165.893 25.3408 165.936 25.8223C165.979 26.301 165.624 26.7252 165.145 26.7682H165.137L163.305 26.9287H163.297C162.818 26.9717 162.397 26.6163 162.354 26.1376C162.314 25.6618 162.666 25.2405 163.145 25.1975Z" fill="white"/>
<path d="M169.308 24.7134L171.159 24.6045C171.641 24.5758 172.056 24.9455 172.085 25.4271C172.114 25.9086 171.744 26.3242 171.262 26.3528H171.254L169.419 26.4589H169.411C168.929 26.4875 168.517 26.1178 168.488 25.6363C168.459 25.1519 168.826 24.7392 169.308 24.7134Z" fill="white"/>
<path d="M175.481 24.4155L177.335 24.3639C177.82 24.3496 178.227 24.7336 178.241 25.218C178.255 25.7053 177.871 26.1094 177.387 26.1237H177.378L175.541 26.1725H175.533C175.048 26.1868 174.644 25.8027 174.63 25.3183C174.615 24.8311 174.997 24.427 175.481 24.4155Z" fill="white"/>
<path d="M181.661 24.3064L183.515 24.3121C184.002 24.3121 184.398 24.7105 184.398 25.1978C184.398 25.685 183.999 26.0806 183.512 26.0806H183.504L181.666 26.0748H181.658C181.171 26.072 180.775 25.6764 180.778 25.1892C180.778 24.6962 181.173 24.3035 181.661 24.3064Z" fill="white"/>
<path d="M187.841 24.3863L189.692 24.4465C190.182 24.4637 190.566 24.8735 190.549 25.3637C190.532 25.8538 190.122 26.2378 189.632 26.2206H189.623L187.786 26.1576H187.777C187.287 26.1404 186.903 25.7305 186.92 25.2404C186.941 24.7532 187.35 24.3691 187.841 24.3863Z" fill="white"/>
<path d="M194.014 24.6585L195.863 24.7789C196.356 24.8104 196.728 25.2346 196.697 25.7276C196.665 26.2205 196.241 26.5932 195.748 26.5616H195.739L193.905 26.4412H193.897C193.406 26.4097 193.034 25.9855 193.065 25.4925C193.1 24.9967 193.521 24.627 194.014 24.6585Z" fill="white"/>
<path d="M200.176 25.1231L202.022 25.3008C202.515 25.3495 202.876 25.7851 202.83 26.2781C202.784 26.7711 202.346 27.1322 201.853 27.0864H201.844L200.016 26.9087H200.007C199.514 26.8599 199.156 26.4243 199.202 25.9313C199.248 25.4355 199.683 25.0743 200.176 25.1231Z" fill="white"/>
<path d="M206.319 25.7791L208.156 26.0141C208.649 26.0772 208.998 26.5272 208.935 27.023C208.872 27.516 208.422 27.8657 207.927 27.8026H207.918L206.098 27.5676H206.089C205.596 27.5046 205.25 27.0517 205.313 26.5616C205.376 26.0629 205.826 25.7161 206.319 25.7791Z" fill="white"/>
<path d="M212.438 26.6303L214.269 26.9226C214.762 27.0029 215.097 27.4643 215.02 27.9602C214.94 28.4532 214.478 28.7885 213.983 28.7111L213.974 28.7082L212.16 28.4159H212.151C211.658 28.3356 211.323 27.8713 211.403 27.3783C211.483 26.8854 211.945 26.55 212.438 26.6303Z" fill="white"/>
<path d="M218.529 27.6767L220.349 28.0293C220.842 28.1239 221.163 28.6025 221.068 29.0955C220.973 29.5885 220.495 29.9095 220.002 29.8149L219.993 29.812L218.19 29.4624L218.182 29.4595C217.689 29.3649 217.368 28.8863 217.465 28.3961C217.56 27.9032 218.036 27.5793 218.529 27.6767Z" fill="white"/>
<path d="M224.582 28.918L226.391 29.3279C226.884 29.4397 227.191 29.9298 227.079 30.4199C226.967 30.9129 226.477 31.2196 225.987 31.1078L225.978 31.1049L224.187 30.695L224.178 30.6922C223.688 30.5804 223.381 30.0903 223.493 29.6002C223.605 29.1129 224.092 28.8062 224.582 28.918Z" fill="white"/>
<path d="M230.592 30.3565L232.386 30.8266C232.876 30.9555 233.168 31.4571 233.042 31.9472C232.913 32.4373 232.412 32.7297 231.922 32.6036L231.913 32.6007L230.136 32.1335L230.127 32.1307C229.637 32.0017 229.345 31.5001 229.474 31.0129C229.603 30.5199 230.104 30.2275 230.592 30.3565Z" fill="white"/>
<path d="M236.551 31.9848L238.325 32.5093C238.812 32.6526 239.093 33.1657 238.947 33.6529C238.804 34.1402 238.291 34.4211 237.803 34.2749L237.795 34.272L236.035 33.7504L236.026 33.7475C235.539 33.6042 235.261 33.0912 235.404 32.6039C235.553 32.1195 236.064 31.8415 236.551 31.9848Z" fill="white"/>
<path d="M242.456 33.793L244.216 34.3691C244.7 34.5267 244.961 35.0455 244.803 35.5299C244.646 36.0143 244.127 36.2751 243.643 36.1174L243.637 36.1146L241.888 35.5442L241.883 35.5413C241.398 35.3837 241.135 34.8649 241.292 34.3805C241.453 33.899 241.972 33.6353 242.456 33.793Z" fill="white"/>
<path d="M248.307 35.7678L250.053 36.3898C250.529 36.5589 250.778 37.0834 250.609 37.562C250.44 38.0378 249.915 38.2872 249.439 38.1181L249.434 38.1152L247.7 37.499L247.694 37.4961C247.215 37.327 246.966 36.8025 247.135 36.3238C247.304 35.8481 247.829 35.5987 248.307 35.7678Z" fill="white"/>
<path d="M254.106 37.8913L255.834 38.5563C256.304 38.7368 256.539 39.2642 256.359 39.7342C256.178 40.2043 255.651 40.4393 255.181 40.2588L255.175 40.2559L253.458 39.5995L253.453 39.5967C252.983 39.4161 252.745 38.8887 252.925 38.4158C253.106 37.9486 253.633 37.7107 254.106 37.8913Z" fill="white"/>
<path d="M259.85 40.1503L261.561 40.8497C262.025 41.0389 262.249 41.5691 262.057 42.0334C261.868 42.4977 261.338 42.7213 260.873 42.5293L260.87 42.5264L259.168 41.8328L259.162 41.8299C258.698 41.6408 258.474 41.1105 258.663 40.6433C258.853 40.1819 259.383 39.9583 259.85 40.1503Z" fill="white"/>
<path d="M265.539 42.5266L267.239 43.2603C267.698 43.4581 267.91 43.9912 267.709 44.4498C267.511 44.9084 266.978 45.1205 266.52 44.9199H266.517L264.826 44.1919L264.82 44.189C264.361 43.9912 264.149 43.4581 264.347 42.9995C264.545 42.5381 265.078 42.326 265.539 42.5266Z" fill="white"/>
<path d="M271.189 45.011L272.877 45.7762C273.33 45.9826 273.53 46.5157 273.324 46.9686C273.117 47.4214 272.584 47.622 272.132 47.4157H272.129L270.449 46.6561L270.446 46.6533C269.993 46.4469 269.79 45.9138 269.996 45.4609C270.2 45.0052 270.733 44.8046 271.189 45.011Z" fill="white"/>
<path d="M276.792 47.5882L278.463 48.3792C278.91 48.5913 279.102 49.1244 278.89 49.5744C278.678 50.0215 278.145 50.2136 277.695 50.0015H277.692L276.027 49.2161L276.024 49.2133C275.574 49.0012 275.382 48.4681 275.594 48.0181C275.806 47.571 276.342 47.3789 276.792 47.5882Z" fill="white"/>
<path d="M282.352 50.2476L284.014 51.0588C284.459 51.2766 284.642 51.8097 284.424 52.254C284.206 52.6982 283.673 52.8817 283.229 52.6638H283.226L281.569 51.8584L281.567 51.8556C281.122 51.6406 280.939 51.1046 281.154 50.6604C281.372 50.2161 281.908 50.0298 282.352 50.2476Z" fill="white"/>
<path d="M287.878 52.9764L289.529 53.8047C289.968 54.0254 290.146 54.5585 289.925 54.9999C289.704 55.4385 289.168 55.6162 288.73 55.3955L287.082 54.57C286.64 54.3522 286.463 53.8162 286.68 53.3748C286.898 52.9334 287.434 52.7557 287.876 52.9735L287.878 52.9764Z" fill="white"/>
<path d="M293.373 55.7592L295.015 56.6048C295.451 56.8283 295.623 57.3614 295.399 57.7971C295.176 58.2327 294.64 58.4018 294.207 58.1783L292.567 57.3385C292.132 57.1149 291.957 56.5818 292.18 56.1462C292.404 55.7105 292.937 55.5357 293.373 55.7592Z" fill="white"/>
<path d="M298.844 58.5886L300.481 59.4456C300.914 59.672 301.08 60.2052 300.853 60.6351C300.627 61.0679 300.094 61.2341 299.664 61.0077L298.027 60.1564C297.595 59.9329 297.425 59.3998 297.649 58.967C297.875 58.5313 298.409 58.3622 298.844 58.5886Z" fill="white"/>
<path d="M304.296 61.4489L305.929 62.3116C306.359 62.538 306.523 63.0683 306.296 63.4982C306.07 63.9281 305.54 64.0915 305.11 63.8651L303.479 63.0052C303.049 62.7788 302.883 62.2486 303.109 61.8186C303.333 61.3887 303.863 61.2225 304.296 61.4489Z" fill="white"/>
<path d="M309.733 64.3322L311.364 65.2006C311.791 65.427 311.951 65.9573 311.725 66.3815C311.499 66.8085 310.968 66.969 310.544 66.7426L308.913 65.877C308.486 65.6506 308.323 65.1203 308.549 64.6933C308.773 64.2691 309.303 64.1057 309.733 64.3322Z" fill="white"/>
<path d="M315.161 67.2271L316.789 68.0955C317.213 68.3219 317.374 68.8493 317.147 69.2735C316.921 69.6977 316.394 69.8582 315.972 69.6318L314.344 68.7662C313.92 68.5398 313.76 68.0124 313.983 67.5882C314.207 67.164 314.734 67.0006 315.161 67.2271Z" fill="white"/>
<path d="M320.59 70.1217L322.218 70.9873C322.639 71.2109 322.8 71.7354 322.576 72.1596C322.353 72.5809 321.828 72.7414 321.404 72.5179L319.773 71.6523C319.349 71.4287 319.188 70.9013 319.415 70.48C319.638 70.0587 320.163 69.8982 320.59 70.1217Z" fill="white"/>
<path d="M326.021 73.0079L327.652 73.8706C328.073 74.0913 328.234 74.613 328.013 75.0343C327.792 75.4556 327.271 75.619 326.849 75.3954L325.216 74.5356C324.794 74.312 324.631 73.7904 324.855 73.369C325.072 72.9448 325.597 72.7843 326.021 73.0079Z" fill="white"/>
<path d="M331.461 75.8688L333.095 76.7201C333.516 76.9379 333.68 77.4567 333.462 77.878C333.244 78.2993 332.725 78.4627 332.304 78.2449L330.664 77.3936C330.243 77.1758 330.08 76.6542 330.298 76.2328C330.518 75.8115 331.037 75.6482 331.461 75.8688Z" fill="white"/>
<path d="M336.919 78.697L338.558 79.5368C338.979 79.7518 339.146 80.2648 338.933 80.6862C338.718 81.1075 338.203 81.2737 337.784 81.0588L336.139 80.219C335.718 80.004 335.551 79.4881 335.766 79.0668C335.981 78.6455 336.497 78.4792 336.919 78.6942V78.697Z" fill="white"/>
<path d="M342.395 81.4806L344.043 82.306C344.465 82.5152 344.636 83.0254 344.427 83.4468C344.218 83.8681 343.708 84.04 343.287 83.8308L341.633 83.0054C341.211 82.7961 341.039 82.2831 341.252 81.8618C341.461 81.4404 341.974 81.2685 342.395 81.4806Z" fill="white"/>
<path d="M347.898 84.2062L349.555 85.0116L349.558 85.0144C349.979 85.2179 350.154 85.7252 349.95 86.1466C349.747 86.5679 349.24 86.7427 348.818 86.5392L347.153 85.7338C346.732 85.5303 346.554 85.023 346.76 84.6017C346.964 84.1804 347.471 84.0027 347.893 84.209L347.898 84.2062Z" fill="white"/>
<path d="M353.436 86.8633L355.104 87.6458L355.107 87.6487C355.528 87.8464 355.709 88.348 355.511 88.7693C355.313 89.1907 354.812 89.3741 354.39 89.1763L352.714 88.3939C352.292 88.1961 352.109 87.6945 352.307 87.2703C352.504 86.849 353.006 86.6656 353.43 86.8633H353.436Z" fill="white"/>
<path d="M359.008 89.44L360.688 90.1938L360.69 90.1967C361.112 90.3858 361.301 90.8845 361.112 91.3059C360.923 91.7301 360.427 91.9164 360.003 91.7272L358.314 90.9705C357.89 90.7814 357.701 90.2826 357.89 89.8613C358.079 89.4371 358.578 89.248 359.002 89.4371L359.008 89.44Z" fill="white"/>
<path d="M364.62 91.9216L366.311 92.6467L366.317 92.6496C366.741 92.8302 366.939 93.3232 366.755 93.7474C366.575 94.1716 366.085 94.3693 365.66 94.1859L363.958 93.4607C363.534 93.2802 363.336 92.7872 363.517 92.363C363.697 91.9388 364.19 91.741 364.614 91.9216H364.62Z" fill="white"/>
<path d="M370.278 94.2951L371.986 94.9858L371.992 94.9887C372.419 95.1606 372.622 95.645 372.45 96.0721C372.278 96.4991 371.794 96.7055 371.37 96.5335L369.653 95.8428C369.226 95.6708 369.02 95.1864 369.191 94.7594C369.363 94.3323 369.848 94.126 370.275 94.2979L370.278 94.2951Z" fill="white"/>
<path d="M375.981 96.5478L377.701 97.1984L377.707 97.2013C378.134 97.3618 378.349 97.8404 378.188 98.2675C378.028 98.6945 377.549 98.9124 377.122 98.749L375.391 98.0984C374.964 97.9379 374.746 97.4592 374.906 97.0322C375.067 96.6022 375.545 96.3873 375.973 96.5478H375.981Z" fill="white"/>
<path d="M381.734 98.6691L383.471 99.2767L383.477 99.2796C383.904 99.4287 384.127 99.8958 383.978 100.323C383.829 100.75 383.365 100.974 382.938 100.824L381.187 100.217C380.76 100.068 380.53 99.6006 380.679 99.1736C380.828 98.7465 381.296 98.5172 381.725 98.6662H381.728L381.734 98.6691Z" fill="white"/>
<path d="M387.535 100.644L389.286 101.205L389.292 101.208C389.716 101.343 389.948 101.799 389.813 102.223C389.679 102.647 389.226 102.882 388.802 102.745L387.036 102.186C386.609 102.051 386.374 101.595 386.509 101.171C386.643 100.744 387.099 100.509 387.523 100.644H387.526H387.535Z" fill="white"/>
<path d="M393.391 102.455L395.157 102.965L395.162 102.968C395.584 103.089 395.827 103.53 395.704 103.951C395.584 104.373 395.145 104.616 394.724 104.496L392.941 103.989C392.517 103.868 392.27 103.427 392.391 103.003C392.511 102.578 392.953 102.332 393.377 102.452H393.38L393.391 102.455Z" fill="white"/>
<path d="M399.295 104.089L401.075 104.542L401.083 104.545C401.502 104.651 401.754 105.078 401.648 105.496C401.542 105.915 401.118 106.17 400.699 106.061L398.902 105.611C398.481 105.505 398.226 105.078 398.332 104.657C398.438 104.235 398.865 103.98 399.286 104.086H399.289L399.295 104.089Z" fill="white"/>
<path d="M405.247 105.533L407.042 105.926L407.05 105.929C407.466 106.02 407.73 106.43 407.638 106.846C407.546 107.261 407.139 107.525 406.724 107.433L404.912 107.044C404.494 106.955 404.227 106.542 404.319 106.124C404.408 105.705 404.82 105.439 405.239 105.53H405.242L405.247 105.533Z" fill="white"/>
<path d="M411.246 106.771L413.052 107.101L413.061 107.104C413.473 107.179 413.746 107.574 413.671 107.987C413.597 108.399 413.204 108.672 412.791 108.597L410.968 108.271C410.553 108.196 410.278 107.8 410.352 107.385C410.427 106.969 410.822 106.694 411.238 106.769H411.241L411.246 106.771Z" fill="white"/>
<path d="M417.282 107.795L419.099 108.055H419.108C419.518 108.113 419.802 108.494 419.741 108.901C419.684 109.311 419.306 109.595 418.899 109.534L417.061 109.279C416.652 109.222 416.365 108.844 416.422 108.431C416.48 108.021 416.858 107.734 417.271 107.792H417.274L417.282 107.795Z" fill="white"/>
<path d="M423.354 108.574L425.179 108.758H425.188C425.592 108.798 425.887 109.159 425.847 109.563C425.807 109.967 425.449 110.262 425.045 110.222L423.199 110.045C422.792 110.004 422.494 109.643 422.534 109.236C422.574 108.829 422.935 108.531 423.342 108.571H423.345L423.354 108.574Z" fill="white"/>
<path d="M429.45 109.084L431.281 109.182H431.292C431.691 109.205 431.998 109.546 431.977 109.944C431.955 110.343 431.616 110.649 431.218 110.629L429.364 110.537C428.962 110.517 428.653 110.176 428.673 109.775C428.693 109.374 429.034 109.064 429.435 109.084H429.438H429.45Z" fill="white"/>
<path d="M435.563 109.311L437.397 109.319H437.409C437.801 109.322 438.12 109.64 438.12 110.036C438.117 110.429 437.801 110.747 437.406 110.747H435.549C435.153 110.747 434.832 110.426 434.832 110.03C434.832 109.635 435.153 109.314 435.549 109.314H435.551L435.563 109.311Z" fill="white"/>
<path d="M441.674 109.22L443.506 109.128H443.517C443.904 109.108 444.234 109.406 444.251 109.793C444.271 110.18 443.976 110.509 443.589 110.527L441.734 110.627C441.345 110.647 441.015 110.349 440.992 109.962C440.972 109.572 441.27 109.243 441.657 109.22H441.66H441.674Z" fill="white"/>
<path d="M447.77 108.793L449.593 108.595H449.604C449.983 108.555 450.324 108.827 450.364 109.205C450.404 109.584 450.134 109.925 449.756 109.965L447.907 110.174C447.526 110.217 447.185 109.945 447.142 109.564C447.099 109.182 447.371 108.841 447.753 108.798H447.756L447.77 108.793Z" fill="white"/>
<path d="M453.83 107.998L455.632 107.686L455.647 107.683C456.016 107.62 456.366 107.866 456.429 108.236C456.492 108.606 456.249 108.956 455.879 109.019L454.05 109.343C453.681 109.408 453.325 109.162 453.259 108.789C453.193 108.42 453.44 108.064 453.812 108.001H453.815L453.83 107.998Z" fill="white"/>
<path d="M459.816 106.814L461.593 106.381L461.608 106.378C461.966 106.292 462.324 106.51 462.413 106.869C462.499 107.227 462.284 107.585 461.926 107.674L460.123 108.121C459.765 108.21 459.401 107.992 459.312 107.634C459.223 107.276 459.441 106.912 459.799 106.823H459.802L459.816 106.814Z" fill="white"/>
<path d="M465.707 105.217L467.449 104.656L467.464 104.65C467.808 104.538 468.177 104.727 468.286 105.071C468.398 105.415 468.212 105.782 467.868 105.894L466.1 106.47C465.756 106.582 465.383 106.395 465.271 106.049C465.159 105.702 465.346 105.332 465.693 105.22H465.695L465.707 105.217Z" fill="white"/>
<path d="M471.456 103.188L473.147 102.489L473.162 102.483C473.488 102.349 473.867 102.503 474.001 102.833C474.136 103.16 473.984 103.535 473.655 103.673L471.938 104.389C471.608 104.527 471.23 104.372 471.092 104.043C470.955 103.713 471.109 103.335 471.439 103.197H471.442L471.456 103.188Z" fill="white"/>
<path d="M477.025 100.701L478.653 99.8669L478.667 99.8612C478.977 99.7036 479.358 99.8239 479.516 100.133C479.673 100.443 479.553 100.824 479.243 100.982L477.59 101.836C477.277 101.997 476.896 101.876 476.736 101.564C476.575 101.251 476.695 100.87 477.008 100.71H477.011L477.025 100.701Z" fill="white"/>
<path d="M482.368 97.7628L483.921 96.794L483.936 96.7854C484.225 96.6049 484.609 96.6937 484.79 96.9832C484.97 97.2727 484.884 97.6539 484.595 97.8344L483.018 98.8233C482.726 99.0067 482.342 98.9179 482.159 98.6284C481.975 98.336 482.064 97.952 482.353 97.7685H482.356L482.368 97.7628Z" fill="white"/>
<path d="M487.447 94.3871L488.912 93.2922L488.923 93.2836C489.19 93.0859 489.565 93.1403 489.766 93.4069C489.964 93.6706 489.909 94.046 489.648 94.2467L488.164 95.3702C487.897 95.5737 487.516 95.5193 487.312 95.2527C487.109 94.9861 487.163 94.6049 487.43 94.4014L487.433 94.3986L487.447 94.3871Z" fill="white"/>
<path d="M492.216 90.589L493.577 89.368L493.589 89.3565C493.827 89.1416 494.194 89.1616 494.409 89.3995C494.621 89.6374 494.603 90.0014 494.368 90.2164L492.993 91.4689C492.752 91.6867 492.382 91.6695 492.164 91.4288C491.946 91.188 491.964 90.8183 492.204 90.6005L492.207 90.5976L492.216 90.589Z" fill="white"/>
<path d="M496.619 86.3703L497.86 85.0232L497.871 85.0117C498.08 84.7853 498.436 84.771 498.662 84.9802C498.889 85.1894 498.903 85.542 498.697 85.7684L497.444 87.147C497.235 87.3792 496.877 87.3964 496.644 87.1843C496.412 86.9751 496.395 86.6168 496.607 86.3846L496.61 86.3818L496.619 86.3703Z" fill="white"/>
<path d="M500.588 81.7445L501.683 80.2827L501.694 80.2684C501.872 80.0305 502.21 79.9818 502.448 80.1595C502.686 80.3372 502.735 80.6725 502.557 80.9104L501.451 82.4065C501.273 82.6502 500.929 82.6989 500.688 82.5212C500.447 82.3435 500.396 81.9995 500.574 81.7588L500.576 81.7559L500.588 81.7445Z" fill="white"/>
<path d="M504.062 76.7397L504.996 75.1691L505.005 75.1547C505.151 74.9083 505.469 74.828 505.715 74.9742C505.959 75.1204 506.042 75.4356 505.899 75.6821L504.956 77.29C504.81 77.5394 504.489 77.6254 504.239 77.4764C503.99 77.3302 503.907 77.0092 504.053 76.7569L504.056 76.7541L504.062 76.7397Z" fill="white"/>
<path d="M506.967 71.3859L507.718 69.7207L507.724 69.7035C507.836 69.4541 508.131 69.3424 508.383 69.4541C508.632 69.5659 508.744 69.8583 508.632 70.1105L507.879 71.813C507.767 72.0681 507.469 72.1827 507.214 72.0681C506.959 71.9563 506.844 71.6582 506.959 71.4031V71.4003L506.967 71.3859Z" fill="white"/>
<path d="M509.235 65.7367L509.774 63.9912L509.78 63.974C509.857 63.7218 510.124 63.5813 510.376 63.6587C510.625 63.7361 510.769 64.0026 510.691 64.252L510.153 66.0376C510.075 66.2927 509.806 66.4389 509.551 66.3615C509.296 66.2841 509.149 66.0147 509.227 65.7596V65.7567L509.235 65.7367Z" fill="white"/>
<path d="M510.777 59.8435L511.098 58.0436L511.101 58.0264C511.144 57.777 511.382 57.6136 511.631 57.6566C511.878 57.6996 512.044 57.9347 512.001 58.184L511.686 60.0184C511.643 60.2706 511.405 60.4397 511.153 60.3967C510.9 60.3537 510.731 60.1158 510.774 59.8636V59.8607L510.777 59.8435Z" fill="white"/>
<path d="M511.592 53.8049L511.692 51.9792V51.9648C511.706 51.7241 511.91 51.5407 512.15 51.555C512.388 51.5693 512.572 51.7728 512.56 52.0107L512.469 53.8708C512.457 54.1145 512.251 54.3036 512.007 54.2893C511.763 54.2778 511.574 54.0715 511.589 53.8279V53.825L511.592 53.8049Z" fill="white"/>
<path d="M511.674 47.7084L511.557 45.8827V45.8684C511.543 45.6391 511.715 45.4413 511.944 45.427C512.17 45.4127 512.368 45.5846 512.385 45.811L512.517 47.6683C512.534 47.9005 512.36 48.1011 512.127 48.1183C511.895 48.1355 511.695 47.9607 511.677 47.7285V47.7256L511.674 47.7084Z" fill="white"/>
<path d="M511.018 41.6442L510.674 39.8471L510.671 39.8328C510.631 39.6178 510.772 39.4115 510.984 39.3713C511.196 39.3312 511.402 39.4688 511.445 39.6809L511.806 41.5066C511.849 41.7245 511.709 41.9337 511.491 41.9767C511.273 42.0197 511.064 41.8792 511.021 41.6614V41.6585L511.018 41.6442Z" fill="white"/>
<path d="M509.611 35.7078L509.038 33.9681L509.032 33.9537C508.969 33.7588 509.075 33.5467 509.27 33.4837C509.465 33.4206 509.674 33.5238 509.74 33.7187L510.333 35.4814C510.399 35.6792 510.293 35.8941 510.095 35.9629C509.897 36.0289 509.682 35.9228 509.614 35.725V35.7222L509.611 35.7078Z" fill="white"/>
<path d="M507.432 30.013L506.627 28.3679L506.621 28.3535C506.535 28.1787 506.607 27.9666 506.782 27.8806C506.957 27.7946 507.166 27.8663 507.252 28.0411L508.08 29.7064C508.169 29.8841 508.097 30.099 507.92 30.1879C507.742 30.2767 507.527 30.2051 507.438 30.0274V30.0245L507.432 30.013Z" fill="white"/>
<path d="M504.477 24.6816L503.44 23.174L503.431 23.1625C503.328 23.0106 503.365 22.8042 503.517 22.7011C503.666 22.5979 503.873 22.6351 503.979 22.7842L505.042 24.3118C505.148 24.4638 505.111 24.6759 504.959 24.7819C504.807 24.888 504.595 24.8507 504.489 24.6988V24.6959L504.477 24.6816Z" fill="white"/>
<path d="M500.758 19.8524L499.499 18.5254L499.488 18.5139C499.37 18.3878 499.376 18.1929 499.499 18.0754C499.623 17.9579 499.82 17.9636 499.938 18.0869L501.225 19.4282C501.345 19.5543 501.342 19.755 501.216 19.8782C501.09 19.9986 500.89 19.9957 500.766 19.8696V19.8667L500.758 19.8524Z" fill="white"/>
<path d="M461.603 13.1556L435.386 54.7527L436.938 55.7308L463.155 14.1337L461.603 13.1556Z" fill="#91B3FA"/>
<path d="M518.138 97.4019H462.368V95.5675H517.055L539.514 54.7963L541.122 55.6819L518.138 97.4019Z" fill="#91B3FA"/>
<path d="M470.026 15.6907C471.05 11.3704 468.378 7.03773 464.058 6.01339C459.738 4.98904 455.405 7.66093 454.381 11.9812C453.356 16.3015 456.028 20.6341 460.348 21.6584C464.669 22.6828 469.001 20.0109 470.026 15.6907Z" fill="#91B3FA"/>
<path d="M524.532 100.438C526.614 96.5165 525.123 91.6493 521.202 89.5668C517.28 87.4844 512.413 88.9753 510.331 92.8968C508.248 96.8184 509.739 101.686 513.661 103.768C517.582 105.85 522.449 104.36 524.532 100.438Z" fill="#91B3FA"/>
<path d="M541.565 65.8206C547.328 65.2454 551.534 60.1069 550.959 54.3432C550.384 48.5796 545.245 44.3736 539.482 44.9487C533.718 45.5239 529.512 50.6624 530.087 56.426C530.662 62.1896 535.801 66.3957 541.565 65.8206Z" fill="#91B3FA"/>
<path d="M437.742 136.201H381.468L354.669 94.04L381.445 51.5548L437.748 47.9922L460.958 94.0572L437.742 136.201ZM382.476 134.367H436.659L458.886 94.02L436.656 49.901L382.499 53.329L356.841 94.0372L382.476 134.367Z" fill="#91B3FA"/>
<path d="M437.025 61.3541C441.851 61.3541 445.764 57.4416 445.764 52.6152C445.764 47.7888 441.851 43.8762 437.025 43.8762C432.199 43.8762 428.286 47.7888 428.286 52.6152C428.286 57.4416 432.199 61.3541 437.025 61.3541Z" fill="#91B3FA"/>
<path d="M387.039 135.459C387.039 138.354 384.692 140.701 381.797 140.701C378.902 140.701 376.555 138.354 376.555 135.459C376.555 132.564 378.902 130.217 381.797 130.217C384.692 130.217 387.039 132.564 387.039 135.459Z" fill="#91B3FA"/>
<path d="M445.084 135.946C445.361 131.514 441.993 127.697 437.561 127.42C433.129 127.143 429.312 130.511 429.035 134.942C428.758 139.374 432.126 143.191 436.558 143.468C440.989 143.746 444.806 140.378 445.084 135.946Z" fill="#91B3FA"/>
<path d="M460.095 104.699C465.887 104.699 470.583 100.004 470.583 94.2118C470.583 88.4198 465.887 83.7245 460.095 83.7245C454.303 83.7245 449.608 88.4198 449.608 94.2118C449.608 100.004 454.303 104.699 460.095 104.699Z" fill="#91B3FA"/>
<path d="M356.97 94.9569H300.722L273.923 52.7955L300.699 10.3103L356.987 6.74768L381.977 53.8732L356.97 94.9569ZM301.728 93.1197H355.938L379.868 53.8073L355.921 8.65082L301.751 12.0788L276.093 52.7869L301.728 93.1197Z" fill="#91B3FA"/>
<path d="M306.732 17.0546C309.871 13.9149 309.871 8.82458 306.732 5.68495C303.592 2.54532 298.502 2.54533 295.362 5.68496C292.222 8.82459 292.222 13.9149 295.362 17.0546C298.502 20.1942 303.592 20.1942 306.732 17.0546Z" fill="#91B3FA"/>
<path d="M356.28 20.1072C361.106 20.1072 365.019 16.1946 365.019 11.3682C365.019 6.54183 361.106 2.62927 356.28 2.62927C351.454 2.62927 347.541 6.54183 347.541 11.3682C347.541 16.1946 351.454 20.1072 356.28 20.1072Z" fill="url(#paint42_linear_813_12345)"/>
<path d="M306.203 95.1836C306.75 92.3405 304.889 89.5919 302.046 89.0444C299.203 88.497 296.454 90.3579 295.907 93.201C295.359 96.0441 297.22 98.7927 300.063 99.3402C302.906 99.8877 305.655 98.0267 306.203 95.1836Z" fill="#91B3FA"/>
<path d="M364.254 95.0127C364.692 90.5943 361.464 86.6579 357.046 86.2206C352.628 85.7832 348.691 89.0105 348.254 93.4289C347.816 97.8472 351.044 101.784 355.462 102.221C359.881 102.658 363.817 99.4311 364.254 95.0127Z" fill="#91B3FA"/>
<path d="M275.184 44.9254C279.624 44.9254 283.224 48.5253 283.224 52.965C283.224 57.4047 279.624 61.0046 275.184 61.0046C270.744 61.0046 267.145 57.4047 267.145 52.965C267.145 48.5253 270.744 44.9254 275.184 44.9254Z" fill="#91B3FA"/>
<path d="M380.921 63.33C386.648 62.4618 390.586 57.1157 389.718 51.3891C388.85 45.6626 383.504 41.7242 377.777 42.5924C372.05 43.4606 368.112 48.8067 368.98 54.5332C369.848 60.2598 375.195 64.1982 380.921 63.33Z" fill="#91B3FA"/>
<defs>
<linearGradient id="paint0_linear_813_12345" x1="442.305" y1="316.118" x2="509.581" y2="389.296" gradientUnits="userSpaceOnUse">
<stop stop-color="#09005D"/>
<stop offset="1" stop-color="#1A0F91"/>
</linearGradient>
<linearGradient id="paint1_linear_813_12345" x1="464.142" y1="321.553" x2="458.166" y2="321.553" gradientUnits="userSpaceOnUse">
<stop stop-color="#FF928E"/>
<stop offset="1" stop-color="#FEB3B1"/>
</linearGradient>
<linearGradient id="paint2_linear_813_12345" x1="437.007" y1="233.36" x2="494.253" y2="310.95" gradientUnits="userSpaceOnUse">
<stop stop-color="#09005D"/>
<stop offset="1" stop-color="#1A0F91"/>
</linearGradient>
<linearGradient id="paint3_linear_813_12345" x1="457.397" y1="302.242" x2="524.674" y2="375.42" gradientUnits="userSpaceOnUse">
<stop stop-color="#09005D"/>
<stop offset="1" stop-color="#1A0F91"/>
</linearGradient>
<linearGradient id="paint4_linear_813_12345" x1="485.678" y1="321.246" x2="480.519" y2="321.246" gradientUnits="userSpaceOnUse">
<stop stop-color="#FF928E"/>
<stop offset="1" stop-color="#FEB3B1"/>
</linearGradient>
<linearGradient id="paint5_linear_813_12345" x1="447.21" y1="225.833" x2="504.456" y2="303.423" gradientUnits="userSpaceOnUse">
<stop stop-color="#09005D"/>
<stop offset="1" stop-color="#1A0F91"/>
</linearGradient>
<linearGradient id="paint6_linear_813_12345" x1="491.179" y1="204.32" x2="439.475" y2="204.32" gradientUnits="userSpaceOnUse">
<stop stop-color="#09005D"/>
<stop offset="1" stop-color="#1A0F91"/>
</linearGradient>
<linearGradient id="paint7_linear_813_12345" x1="415.823" y1="160.533" x2="436.309" y2="207.143" gradientUnits="userSpaceOnUse">
<stop stop-color="#FF928E"/>
<stop offset="1" stop-color="#FEB3B1"/>
</linearGradient>
<linearGradient id="paint8_linear_813_12345" x1="415.955" y1="130.542" x2="403.344" y2="150.605" gradientUnits="userSpaceOnUse">
<stop stop-color="#FF928E"/>
<stop offset="1" stop-color="#FEB3B1"/>
</linearGradient>
<linearGradient id="paint9_linear_813_12345" x1="476.69" y1="167.591" x2="461.415" y2="167.591" gradientUnits="userSpaceOnUse">
<stop stop-color="#FF928E"/>
<stop offset="1" stop-color="#FEB3B1"/>
</linearGradient>
<linearGradient id="paint10_linear_813_12345" x1="463.13" y1="195.546" x2="436.808" y2="176.603" gradientUnits="userSpaceOnUse">
<stop stop-color="#9CFFFB"/>
<stop offset="1" stop-color="#9BFFFA"/>
</linearGradient>
<linearGradient id="paint11_linear_813_12345" x1="456.84" y1="182.722" x2="446.235" y2="217.116" gradientUnits="userSpaceOnUse">
<stop stop-color="#4042E2"/>
<stop offset="1" stop-color="#4F52FF"/>
</linearGradient>
<linearGradient id="paint12_linear_813_12345" x1="346.991" y1="60.4598" x2="351.434" y2="65.9055" gradientUnits="userSpaceOnUse">
<stop stop-color="#09005D"/>
<stop offset="1" stop-color="#1A0F91"/>
</linearGradient>
<linearGradient id="paint13_linear_813_12345" x1="345.84" y1="61.398" x2="350.282" y2="66.8438" gradientUnits="userSpaceOnUse">
<stop stop-color="#09005D"/>
<stop offset="1" stop-color="#1A0F91"/>
</linearGradient>
<linearGradient id="paint14_linear_813_12345" x1="450.367" y1="220.837" x2="469.713" y2="199.054" gradientUnits="userSpaceOnUse">
<stop stop-color="#FF928E"/>
<stop offset="1" stop-color="#FEB3B1"/>
</linearGradient>
<linearGradient id="paint15_linear_813_12345" x1="554.385" y1="136.696" x2="422.541" y2="160.198" gradientUnits="userSpaceOnUse">
<stop stop-color="#FF928E"/>
<stop offset="1" stop-color="#FEB3B1"/>
</linearGradient>
<linearGradient id="paint16_linear_813_12345" x1="472.305" y1="160.562" x2="451.76" y2="145.771" gradientUnits="userSpaceOnUse">
<stop stop-color="#09005D"/>
<stop offset="1" stop-color="#1A0F91"/>
</linearGradient>
<linearGradient id="paint17_linear_813_12345" x1="475.321" y1="181.796" x2="471.716" y2="157.71" gradientUnits="userSpaceOnUse">
<stop stop-color="#FF928E"/>
<stop offset="1" stop-color="#FEB3B1"/>
</linearGradient>
<linearGradient id="paint18_linear_813_12345" x1="58.1876" y1="375.586" x2="272.576" y2="60.3088" gradientUnits="userSpaceOnUse">
<stop stop-color="#4042E2"/>
<stop offset="1" stop-color="#4F52FF"/>
</linearGradient>
<linearGradient id="paint19_linear_813_12345" x1="156.476" y1="188.801" x2="-55.6196" y2="279.371" gradientUnits="userSpaceOnUse">
<stop stop-color="#4042E2"/>
<stop offset="1" stop-color="#4F52FF"/>
</linearGradient>
<linearGradient id="paint20_linear_813_12345" x1="-99.7505" y1="-97.8709" x2="-337.836" y2="-271.09" gradientUnits="userSpaceOnUse">
<stop stop-color="#E1473D"/>
<stop offset="1" stop-color="#E9605A"/>
</linearGradient>
<linearGradient id="paint21_linear_813_12345" x1="126.228" y1="64.7708" x2="126.345" y2="91.2733" gradientUnits="userSpaceOnUse">
<stop stop-color="#FF928E"/>
<stop offset="1" stop-color="#FEB3B1"/>
</linearGradient>
<linearGradient id="paint22_linear_813_12345" x1="-62.0811" y1="-149.647" x2="-300.167" y2="-322.866" gradientUnits="userSpaceOnUse">
<stop stop-color="#E1473D"/>
<stop offset="1" stop-color="#E9605A"/>
</linearGradient>
<linearGradient id="paint23_linear_813_12345" x1="235.063" y1="64.7706" x2="235.18" y2="91.2732" gradientUnits="userSpaceOnUse">
<stop stop-color="#FF928E"/>
<stop offset="1" stop-color="#FEB3B1"/>
</linearGradient>
<linearGradient id="paint24_linear_813_12345" x1="-129.607" y1="-56.8329" x2="-367.692" y2="-230.052" gradientUnits="userSpaceOnUse">
<stop stop-color="#E1473D"/>
<stop offset="1" stop-color="#E9605A"/>
</linearGradient>
<linearGradient id="paint25_linear_813_12345" x1="126.229" y1="127.531" x2="126.345" y2="154.033" gradientUnits="userSpaceOnUse">
<stop stop-color="#FF928E"/>
<stop offset="1" stop-color="#FEB3B1"/>
</linearGradient>
<linearGradient id="paint26_linear_813_12345" x1="-91.9378" y1="-108.609" x2="-330.023" y2="-281.828" gradientUnits="userSpaceOnUse">
<stop stop-color="#E1473D"/>
<stop offset="1" stop-color="#E9605A"/>
</linearGradient>
<linearGradient id="paint27_linear_813_12345" x1="235.063" y1="127.531" x2="235.18" y2="154.033" gradientUnits="userSpaceOnUse">
<stop stop-color="#FF928E"/>
<stop offset="1" stop-color="#FEB3B1"/>
</linearGradient>
<linearGradient id="paint28_linear_813_12345" x1="-159.463" y1="-15.7962" x2="-397.549" y2="-189.015" gradientUnits="userSpaceOnUse">
<stop stop-color="#E1473D"/>
<stop offset="1" stop-color="#E9605A"/>
</linearGradient>
<linearGradient id="paint29_linear_813_12345" x1="126.228" y1="190.289" x2="126.345" y2="216.792" gradientUnits="userSpaceOnUse">
<stop stop-color="#FF928E"/>
<stop offset="1" stop-color="#FEB3B1"/>
</linearGradient>
<linearGradient id="paint30_linear_813_12345" x1="-121.794" y1="-67.5728" x2="-359.88" y2="-240.791" gradientUnits="userSpaceOnUse">
<stop stop-color="#E1473D"/>
<stop offset="1" stop-color="#E9605A"/>
</linearGradient>
<linearGradient id="paint31_linear_813_12345" x1="235.063" y1="190.289" x2="235.18" y2="216.791" gradientUnits="userSpaceOnUse">
<stop stop-color="#FF928E"/>
<stop offset="1" stop-color="#FEB3B1"/>
</linearGradient>
<linearGradient id="paint32_linear_813_12345" x1="-189.319" y1="25.2402" x2="-427.405" y2="-147.978" gradientUnits="userSpaceOnUse">
<stop stop-color="#E1473D"/>
<stop offset="1" stop-color="#E9605A"/>
</linearGradient>
<linearGradient id="paint33_linear_813_12345" x1="126.229" y1="253.049" x2="126.345" y2="279.551" gradientUnits="userSpaceOnUse">
<stop stop-color="#FF928E"/>
<stop offset="1" stop-color="#FEB3B1"/>
</linearGradient>
<linearGradient id="paint34_linear_813_12345" x1="-151.651" y1="-26.5363" x2="-389.736" y2="-199.755" gradientUnits="userSpaceOnUse">
<stop stop-color="#E1473D"/>
<stop offset="1" stop-color="#E9605A"/>
</linearGradient>
<linearGradient id="paint35_linear_813_12345" x1="235.063" y1="253.048" x2="235.18" y2="279.551" gradientUnits="userSpaceOnUse">
<stop stop-color="#FF928E"/>
<stop offset="1" stop-color="#FEB3B1"/>
</linearGradient>
<linearGradient id="paint36_linear_813_12345" x1="276.833" y1="156.139" x2="353.148" y2="156.139" gradientUnits="userSpaceOnUse">
<stop stop-color="#09005D"/>
<stop offset="1" stop-color="#1A0F91"/>
</linearGradient>
<linearGradient id="paint37_linear_813_12345" x1="442.518" y1="339.047" x2="287.745" y2="224.4" gradientUnits="userSpaceOnUse">
<stop stop-color="#09005D"/>
<stop offset="1" stop-color="#1A0F91"/>
</linearGradient>
<linearGradient id="paint38_linear_813_12345" x1="351.973" y1="314.309" x2="385.794" y2="211.127" gradientUnits="userSpaceOnUse">
<stop stop-color="#FE7062"/>
<stop offset="1" stop-color="#FF928E"/>
</linearGradient>
<linearGradient id="paint39_linear_813_12345" x1="376.994" y1="235.521" x2="337.827" y2="360.045" gradientUnits="userSpaceOnUse">
<stop stop-color="#E1473D"/>
<stop offset="1" stop-color="#E9605A"/>
</linearGradient>
<linearGradient id="paint40_linear_813_12345" x1="126.911" y1="221.145" x2="63.1973" y2="322.596" gradientUnits="userSpaceOnUse">
<stop stop-color="#09005D"/>
<stop offset="1" stop-color="#1A0F91"/>
</linearGradient>
<linearGradient id="paint41_linear_813_12345" x1="185.12" y1="100.715" x2="136.6" y2="205.597" gradientUnits="userSpaceOnUse">
<stop stop-color="#09005D"/>
<stop offset="1" stop-color="#1A0F91"/>
</linearGradient>
<linearGradient id="paint42_linear_813_12345" x1="390.5" y1="-72.584" x2="347.507" y2="32.8911" gradientUnits="userSpaceOnUse">
<stop stop-color="#FF928E"/>
<stop offset="1" stop-color="#FEB3B1"/>
</linearGradient>
</defs>
</svg>
