<svg width="28" height="28" viewBox="0 0 28 28" fill="none" xmlns="http://www.w3.org/2000/svg">
<g clip-path="url(#clip0_743_11892)">
<path d="M14 0C10.287 0 6.72601 1.475 4.1005 4.1005C1.475 6.72601 0 10.287 0 14C0 17.713 1.475 21.274 4.1005 23.8995C6.72601 26.525 10.287 28 14 28C17.713 28 21.274 26.525 23.8995 23.8995C26.525 21.274 28 17.713 28 14C28 10.287 26.525 6.72601 23.8995 4.1005C21.274 1.475 17.713 0 14 0Z" fill="#29B6F6"/>
<path d="M19.8043 8.75008L17.6192 19.9069C17.6192 19.9069 17.5252 20.4168 16.8929 20.4168C16.5569 20.4168 16.3837 20.2569 16.3837 20.2569L11.6505 16.3293L9.33466 15.1621L6.36258 14.3717C6.36258 14.3717 5.8335 14.2188 5.8335 13.7813C5.8335 13.4167 6.37775 13.2429 6.37775 13.2429L18.8121 8.30325C18.8121 8.30325 19.1918 8.16617 19.4689 8.16675C19.6392 8.16675 19.8335 8.23967 19.8335 8.45842C19.8335 8.60425 19.8043 8.75008 19.8043 8.75008Z" fill="white"/>
<path d="M13.4167 17.7946L11.4182 19.7628C11.4182 19.7628 11.3312 19.8299 11.2152 19.8328C11.1749 19.834 11.1317 19.8275 11.0874 19.8077L11.6497 16.3281L13.4167 17.7946Z" fill="#B0BEC5"/>
<path d="M17.4401 10.6143C17.3415 10.4859 17.1595 10.4626 17.0312 10.56L9.3335 15.1666C9.3335 15.1666 10.562 18.6036 10.7492 19.1986C10.9371 19.7942 11.0876 19.8082 11.0876 19.8082L11.6499 16.3286L17.3852 11.0226C17.5136 10.9252 17.5375 10.7426 17.4401 10.6143Z" fill="#CFD8DC"/>
</g>
<defs>
<clipPath id="clip0_743_11892">
<rect width="28" height="28" fill="white"/>
</clipPath>
</defs>
</svg>
