<svg width="28" height="28" viewBox="0 0 28 28" fill="none" xmlns="http://www.w3.org/2000/svg">
<g clip-path="url(#clip0_743_11925)">
<path d="M14 0C7.0875 0 0 1.4875 0 12.25C0 18.025 2.0125 21.6125 6.125 23.275V26.5125C6.125 27.125 6.475 27.65 7 27.9125C7.175 28 7.4375 28 7.6125 28C7.9625 28 8.4 27.825 8.6625 27.5625L11.8125 24.4125C12.5125 24.4125 13.2125 24.5 14 24.5C20.9125 24.5 28 23.0125 28 12.25C28 1.4875 20.9125 0 14 0Z" fill="#7B519C"/>
<path d="M13.5625 7.9624C15.6625 7.9624 17.4125 9.7124 17.4125 11.8124C17.4125 12.3374 17.7625 12.6874 18.2875 12.6874C18.8125 12.6874 19.1625 12.3374 19.1625 11.8124C19.1625 8.7499 16.625 6.2124 13.5625 6.2124C13.0375 6.2124 12.6875 6.5624 12.6875 7.0874C12.6875 7.6124 13.0375 7.9624 13.5625 7.9624Z" fill="white"/>
<path d="M13.5625 10.675C14.175 10.675 14.7 11.2 14.7 11.8125C14.7 12.3375 15.05 12.6875 15.575 12.6875C16.1 12.6875 16.45 12.3375 16.45 11.8125C16.45 10.2375 15.1375 8.92505 13.5625 8.92505C13.0375 8.92505 12.6875 9.27505 12.6875 9.80005C12.6875 10.325 13.0375 10.675 13.5625 10.675Z" fill="white"/>
<path d="M13.5625 3.5C13.0375 3.5 12.6875 3.85 12.6875 4.375C12.6875 4.9 13.0375 5.25 13.5625 5.25C17.15 5.25 20.125 8.225 20.125 11.8125C20.125 12.3375 20.475 12.6875 21 12.6875C21.525 12.6875 21.875 12.3375 21.875 11.8125C21.875 7.2625 18.1125 3.5 13.5625 3.5Z" fill="white"/>
<path d="M19.1625 14.9625L18.9875 14.875C18.9875 14.875 17.0625 13.9125 16.7125 13.825C16.0125 13.5625 15.3125 13.7375 14.875 14.35L14.7875 14.525C14.6125 14.7875 14.35 15.1375 14.175 15.3125C13.7375 15.1375 12.95 14.7875 11.9 13.9125C11.2 13.3 10.675 12.5125 10.4125 12.075C10.5 11.9875 10.5 11.9875 10.5875 11.9C10.675 11.8125 10.7625 11.725 10.85 11.6375C11.025 11.4625 11.1125 11.2875 11.2875 11.025C11.4625 10.5875 11.4625 10.15 11.2875 9.625C11.2 9.45 10.85 8.6625 10.5875 8.05L10.2375 7.35C9.8875 6.475 9.3625 6.3 8.75 6.3C8.6625 6.125 8.575 6.125 8.4 6.125C7.7 6.125 7.0875 6.3875 6.65 6.825C6.2125 7.2625 5.25 8.225 5.25 10.15C5.25 11.725 6.2125 13.2125 6.7375 14L6.825 14.0875C8.4875 16.5375 10.5875 18.2875 12.6875 19.1625C14.525 19.95 15.575 20.125 16.275 20.125C16.625 20.125 16.8875 20.125 17.0625 20.0375C18.2 19.775 19.5125 18.9875 19.8625 17.9375C20.0375 17.325 20.3 16.275 19.95 15.6625C19.775 15.3125 19.425 15.1375 19.1625 14.9625Z" fill="white"/>
</g>
<defs>
<clipPath id="clip0_743_11925">
<rect width="28" height="28" fill="white"/>
</clipPath>
</defs>
</svg>
